<?xml version="1.0" encoding="UTF-8"?>
<svg id="Camada_2" data-name="Camada 2" xmlns="http://www.w3.org/2000/svg" viewBox="0 0 68.96 17.85">
  <defs>
    <style>
      .cls-1 {
        isolation: isolate;
      }
    </style>
  </defs>
  <g id="Camada_1-2" data-name="Camada 1">
    <g id="H3_Subtítulo_TÉCNICO_EM_ÓPTICA_font_size_28_Bold" data-name="H3 Subtítulo TÉCNICO EM ÓPTICA font size 28 Bold" class="cls-1">
      <g class="cls-1">
        <path d="M15,2.98c0,.12-.03.28-.09.48-.06.21-.13.43-.22.66-.09.23-.19.46-.3.68s-.21.4-.31.55c-.25.35-.58.71-1.01,1.09-.43.38-.94.77-1.52,1.17-.54.37-1.1.72-1.68,1.07-.58.34-1.15.66-1.71.94-.68.35-1.38.67-2.11.98s-1.44.57-2.14.8v.52c0,.09,0,.25.02.46.01.21.03.45.04.73s.04.57.05.88c.02.31.04.61.05.91.02.3.03.57.04.82s.02.46.02.62c0,.37-.12.66-.35.86-.23.21-.55.31-.94.31-1.04,0-1.56-1.76-1.56-5.28,0-.31,0-.62.03-.94.02-.32.05-.66.09-1.02.04-.36.09-.76.15-1.18.06-.42.13-.89.21-1.41.06-.43.13-.85.2-1.25.07-.4.15-.79.23-1.17s.19-.75.31-1.12c.12-.37.26-.74.43-1.12-.23.06-.47.14-.71.22-.24.08-.5.17-.76.25-.08.04-.16.06-.24.09-.08.02-.17.03-.26.03-.27,0-.5-.08-.68-.23-.18-.15-.27-.35-.27-.6,0-.3.06-.55.18-.77.12-.22.32-.42.59-.59s.62-.33,1.04-.46c.42-.13.94-.26,1.54-.38.35-.07.72-.14,1.13-.21.4-.07.81-.13,1.22-.18s.81-.1,1.2-.14c.39-.04.74-.05,1.06-.05.38,0,.75,0,1.11.01s.71.03,1.06.05c.35.03.69.07,1.03.12.34.05.69.12,1.05.21.79.2,1.43.48,1.91.87.58.45.87,1.02.87,1.72ZM8.81,2.13c-.57,0-1.19.03-1.87.1-.68.07-1.34.16-2,.27.22.22.33.51.33.88,0,.04-.03.16-.08.34-.05.18-.11.38-.18.6-.07.22-.13.42-.19.61-.06.19-.1.3-.12.35-.04.09-.07.21-.1.35-.03.14-.07.29-.1.46-.03.17-.06.34-.09.51-.03.18-.06.35-.09.51-.04.22-.08.42-.1.59-.03.17-.05.32-.06.46-.01.13-.03.26-.04.38s-.02.25-.03.38c.24-.1.51-.21.81-.34.3-.13.61-.26.93-.39.31-.13.62-.27.92-.4.3-.13.57-.25.8-.36.12-.06.26-.14.42-.22.16-.08.31-.16.48-.25.16-.09.33-.17.49-.27.17-.09.32-.18.46-.27.35-.21.71-.46,1.08-.74.37-.29.71-.59,1.02-.92.31-.33.57-.66.76-.99.2-.34.3-.65.3-.95,0-.15-.18-.27-.55-.37-.54-.14-1.1-.24-1.66-.28-.57-.04-1.07-.06-1.52-.06Z"/>
        <path d="M31.02,7.15c0,.13-.03.27-.08.41s-.13.28-.22.42c-.09.13-.2.26-.32.37-.12.12-.24.21-.36.29-.26.17-.64.32-1.13.46-.49.13-1.09.19-1.79.19-.2,0-.42-.01-.64-.04-.23-.03-.46-.07-.69-.12-.23-.05-.47-.11-.69-.19-.23-.08-.45-.16-.66-.25.04.06.08.15.11.27.03.11.05.23.06.35.01.12.02.24.02.35,0,.11,0,.2,0,.27,0,.46-.08.92-.24,1.38-.16.46-.38.9-.64,1.32-.27.42-.57.81-.91,1.16-.34.36-.69.67-1.04.93-.28.21-.59.39-.94.54-.34.15-.7.28-1.08.38-.38.1-.77.18-1.17.23-.4.05-.81.08-1.22.08-.34,0-.66-.08-.98-.25-.31-.17-.58-.38-.82-.64-.23-.26-.42-.56-.56-.89-.14-.33-.21-.66-.21-.99,0-.58.08-1.13.23-1.67.16-.53.36-1.05.62-1.55.26-.5.56-.99.91-1.47.35-.48.71-.96,1.09-1.42.22-.27.48-.54.77-.8.29-.26.59-.49.92-.7.32-.21.65-.37.98-.49.33-.12.64-.18.95-.18.25,0,.47.03.66.09s.35.14.51.24c.16.1.31.23.45.38.14.15.3.32.46.51l.23.25c.06.06.21.14.47.26.26.12.56.23.92.34.35.11.73.21,1.12.3.39.09.74.13,1.06.13s.63,0,.92-.01c.29,0,.58-.03.87-.08.29-.05.6-.12.92-.22s.68-.23,1.07-.41c.04.06.06.15.08.25.02.1.03.18.03.24ZM22.61,9.59c0-.18,0-.37-.03-.56-.02-.19-.06-.38-.11-.55-.06-.17-.14-.32-.24-.44-.1-.13-.23-.21-.4-.25-.25-.06-.46-.14-.62-.21-.16-.08-.29-.15-.38-.21-.09-.06-.16-.12-.2-.16-.04-.04-.06-.06-.08-.06-.06,0-.14.05-.24.15-.1.1-.22.22-.35.37-.13.15-.26.31-.39.49-.13.17-.26.34-.38.49-.15.19-.29.37-.43.55-.13.18-.26.36-.39.55-.13.19-.25.39-.37.6-.12.21-.25.44-.38.69-.12.23-.2.51-.26.85-.06.34-.09.65-.09.95,0,.12.01.25.04.37.03.13.07.24.13.34.06.1.13.18.23.25.09.06.21.1.35.1.33,0,.61-.02.83-.05.22-.03.43-.09.63-.17s.39-.2.59-.34c.2-.14.44-.32.72-.53.13-.1.26-.22.39-.35.13-.13.26-.28.39-.43s.26-.32.38-.49c.12-.17.23-.33.34-.49.06-.09.11-.2.15-.34.04-.14.07-.28.1-.43.03-.14.04-.28.05-.4.01-.12.02-.21.02-.26h0Z"/>
        <path d="M47.36,8.43c0,.14-.03.29-.08.45-.05.16-.11.32-.19.48-.08.16-.16.31-.25.45-.09.14-.18.26-.25.35-.23.29-.49.6-.77.92-.29.33-.58.65-.89.96-.31.32-.63.62-.95.92-.32.29-.65.55-.98.76-.25.17-.5.33-.73.48-.23.15-.48.28-.73.4-.25.12-.51.21-.79.27-.28.06-.58.1-.92.1-.54,0-.99-.11-1.35-.33-.36-.22-.65-.51-.87-.87-.22-.36-.4-.77-.51-1.24-.12-.47-.21-.95-.28-1.46-.09-.69-.2-1.23-.31-1.63-.12-.4-.26-.6-.42-.6-.14,0-.29.03-.42.1-.14.07-.31.21-.51.44-.21.22-.47.55-.78.98s-.72,1-1.23,1.72c-.17.25-.38.52-.63.82-.25.3-.51.59-.79.87-.27.28-.55.52-.82.74s-.52.36-.75.44c-.91-.2-1.37-1.07-1.37-2.61,0-.39.04-.96.13-1.72.04-.34.09-.7.15-1.07.05-.38.12-.75.21-1.13.08-.38.18-.75.3-1.12.12-.36.25-.7.4-1.01.09-.17.18-.31.29-.41.11-.1.22-.18.33-.23.11-.05.23-.08.35-.1.12-.01.25-.02.37-.02.11,0,.21.03.31.08.1.05.19.13.27.23.08.1.14.22.19.37.05.14.07.31.07.5,0,.17-.01.32-.04.48-.03.15-.07.31-.12.47s-.1.33-.16.51c-.05.18-.11.39-.17.62-.04.15-.09.35-.16.59-.07.24-.14.49-.21.74-.07.26-.13.51-.19.75-.06.25-.09.45-.11.62.13-.15.28-.34.45-.57.17-.23.35-.47.54-.74s.38-.53.57-.81c.2-.27.39-.53.59-.78.25-.32.5-.62.75-.9.25-.28.5-.53.77-.73.27-.21.57-.37.88-.49.32-.12.68-.18,1.07-.18.47,0,.85.1,1.15.29.3.19.53.46.71.8.18.34.31.74.4,1.21s.16.97.21,1.52c.03.28.07.57.11.87.05.3.12.56.21.81.09.24.22.44.37.6.15.16.34.23.56.23.33,0,.7-.09,1.09-.27.39-.18.81-.42,1.24-.73.43-.31.88-.67,1.33-1.08s.91-.85,1.37-1.32c.14-.15.28-.3.42-.45.13-.15.26-.28.38-.4.12-.12.24-.21.36-.29.12-.07.23-.11.35-.11.04,0,.09,0,.15.02.06.01.11.03.16.06.05.03.09.08.12.14.03.06.05.14.05.24Z"/>
        <path d="M56.86,6.72c0,.14-.03.26-.09.37-.06.11-.13.21-.22.3s-.18.17-.29.24c-.1.07-.2.14-.3.19-.33.14-.67.27-1.05.38-.37.11-.74.2-1.11.28-.37.08-.73.14-1.08.19-.35.05-.67.09-.97.13-.2.02-.41.05-.63.07-.22.03-.44.05-.64.07-.21.02-.4.04-.59.06s-.34.04-.47.06c-.16.61-.31,1.2-.45,1.77s-.26,1.09-.36,1.59c-.01.09-.04.21-.07.36-.03.15-.06.32-.09.5-.03.18-.06.37-.09.57-.03.2-.06.39-.08.56-.03.18-.05.34-.06.48-.01.14-.02.25-.02.32,0,.25.04.43.12.54.08.1.16.19.24.25.14.12.27.23.36.34s.15.26.15.44c0,.14-.05.28-.15.41-.1.13-.23.24-.38.33-.15.09-.31.17-.49.23-.17.06-.34.09-.49.09-.26,0-.49-.06-.7-.19-.21-.13-.39-.29-.54-.5s-.27-.45-.35-.71c-.08-.27-.12-.54-.12-.82,0-.48.04-1,.11-1.57.07-.57.18-1.14.31-1.72.06-.25.12-.53.19-.83.07-.3.13-.59.19-.87.06-.27.11-.52.15-.73.04-.21.07-.36.09-.43-.15,0-.37.03-.66.06-.29.04-.62.05-1.01.05-.33,0-.6-.02-.82-.06-.22-.04-.41-.11-.55-.22-.14-.11-.25-.26-.31-.44-.06-.19-.1-.43-.1-.74,0-.17.06-.31.18-.42.12-.1.27-.18.46-.24.18-.05.37-.09.56-.11s.37-.03.52-.03c.07,0,.2,0,.38-.03.18-.02.38-.04.59-.05.21-.02.42-.04.62-.05.2-.02.35-.03.46-.03.04,0,.08-.07.14-.21s.11-.31.17-.53c.06-.22.12-.46.18-.72.06-.26.12-.52.18-.78.06-.26.11-.49.16-.71.05-.22.08-.39.11-.51.08-.3.15-.64.2-1.02s.14-.73.24-1.07c.11-.34.26-.62.46-.85.2-.23.48-.34.85-.34.39,0,.68.08.87.25.19.17.28.45.28.84,0,.18-.02.39-.05.64s-.09.49-.17.74c-.17.56-.32,1.08-.44,1.56-.12.48-.22.9-.3,1.26-.08.36-.15.74-.21,1.14.3,0,.58,0,.85,0,.27,0,.55-.01.83-.02s.58-.03.88-.05c.31-.02.64-.05,1-.1.42-.05.77-.1,1.06-.15.29-.05.54-.1.76-.14.22-.04.42-.08.6-.11.18-.03.37-.04.56-.04.1,0,.2.03.29.08.09.05.14.18.14.38Z"/>
        <path d="M68.96,7.15c0,.13-.03.27-.08.41s-.13.28-.22.42c-.09.13-.2.26-.32.37-.12.12-.24.21-.36.29-.26.17-.64.32-1.13.46-.49.13-1.09.19-1.79.19-.2,0-.42-.01-.64-.04-.23-.03-.46-.07-.69-.12-.23-.05-.47-.11-.69-.19-.23-.08-.45-.16-.66-.25.04.06.08.15.11.27.03.11.05.23.06.35.01.12.02.24.02.35,0,.11,0,.2,0,.27,0,.46-.08.92-.24,1.38-.16.46-.38.9-.64,1.32-.27.42-.57.81-.91,1.16-.34.36-.69.67-1.04.93-.28.21-.59.39-.94.54-.34.15-.7.28-1.08.38-.38.1-.77.18-1.17.23-.4.05-.81.08-1.22.08-.34,0-.66-.08-.98-.25-.31-.17-.58-.38-.82-.64-.23-.26-.42-.56-.56-.89-.14-.33-.21-.66-.21-.99,0-.58.08-1.13.23-1.67.16-.53.36-1.05.62-1.55.26-.5.56-.99.91-1.47.35-.48.71-.96,1.09-1.42.22-.27.48-.54.77-.8.29-.26.59-.49.92-.7.32-.21.65-.37.98-.49.33-.12.64-.18.95-.18.25,0,.47.03.66.09s.35.14.51.24c.16.1.31.23.45.38.14.15.3.32.46.51l.23.25c.06.06.21.14.47.26.26.12.56.23.92.34.35.11.73.21,1.12.3.39.09.74.13,1.06.13s.63,0,.92-.01c.29,0,.58-.03.87-.08.29-.05.6-.12.92-.22s.68-.23,1.07-.41c.04.06.06.15.08.25.02.1.03.18.03.24ZM60.55,9.59c0-.18,0-.37-.03-.56-.02-.19-.06-.38-.11-.55-.06-.17-.14-.32-.24-.44-.1-.13-.23-.21-.4-.25-.25-.06-.46-.14-.62-.21-.16-.08-.29-.15-.38-.21-.09-.06-.16-.12-.2-.16-.04-.04-.06-.06-.08-.06-.06,0-.14.05-.24.15-.1.1-.22.22-.35.37-.13.15-.26.31-.39.49-.13.17-.26.34-.38.49-.15.19-.29.37-.43.55-.13.18-.26.36-.39.55-.13.19-.25.39-.37.6-.12.21-.25.44-.38.69-.12.23-.2.51-.26.85-.06.34-.09.65-.09.95,0,.12.01.25.04.37.03.13.07.24.13.34.06.1.13.18.23.25.09.06.21.1.35.1.33,0,.61-.02.83-.05.22-.03.43-.09.63-.17s.39-.2.59-.34c.2-.14.44-.32.72-.53.13-.1.26-.22.39-.35.13-.13.26-.28.39-.43s.26-.32.38-.49c.12-.17.23-.33.34-.49.06-.09.11-.2.15-.34.04-.14.07-.28.1-.43.03-.14.04-.28.05-.4.01-.12.02-.21.02-.26h0Z"/>
      </g>
    </g>
  </g>
</svg>