<?xml version="1.0" encoding="UTF-8"?>
<svg id="Camada_2" data-name="Camada 2" xmlns="http://www.w3.org/2000/svg" viewBox="0 0 104.5 16.58">
  <defs>
    <style>
      .cls-1 {
        isolation: isolate;
      }
    </style>
  </defs>
  <g id="Camada_1-2" data-name="Camada 1">
    <g id="H3_Subtítulo_TÉCNICO_EM_ÓPTICA_font_size_28_Bold" data-name="H3 Subtítulo TÉCNICO EM ÓPTICA font size 28 Bold" class="cls-1">
      <g class="cls-1">
        <path d="M15.38,1.94c0,.2-.03.36-.09.48-.06.12-.14.21-.24.28s-.2.11-.32.14c-.11.02-.22.03-.33.03-.23,0-.44,0-.63,0s-.37,0-.54-.01-.36-.01-.55-.01c-.19,0-.42,0-.67,0-.16,0-.35,0-.56.03-.21.02-.43.05-.66.08-.23.03-.46.07-.68.12-.23.05-.44.09-.63.14s-.37.09-.51.14-.25.09-.32.13c-.05.03-.09.1-.12.22-.04.12-.05.23-.05.32l-.25,2.34c-.1.91-.19,1.81-.28,2.69s-.13,1.75-.13,2.61c0,.12,0,.28.03.5s.04.43.07.65c.03.21.05.4.07.57s.03.25.03.26c0,.16-.02.32-.07.48s-.12.31-.21.44c-.09.13-.2.24-.34.32-.13.08-.28.12-.45.12-.11,0-.23-.03-.35-.08-.12-.06-.24-.13-.36-.22s-.22-.21-.31-.33c-.09-.13-.16-.26-.21-.41-.06-.16-.1-.35-.14-.57-.03-.21-.06-.43-.08-.66s-.03-.45-.04-.66c0-.22,0-.42,0-.59,0-.29.02-.66.05-1.11.03-.45.07-.92.12-1.44s.1-1.03.16-1.56.12-1.03.17-1.49c.06-.47.1-.87.15-1.22.04-.35.07-.59.08-.73-.21,0-.47.02-.79.05-.32.04-.66.08-1.04.12-.47.06-.95.11-1.45.17-.49.05-.96.08-1.41.08-.09,0-.22,0-.38-.02-.16-.02-.32-.05-.48-.1s-.29-.12-.41-.21-.18-.2-.18-.35c-.01-.05-.02-.09-.02-.1,0-.02,0-.06,0-.12,0-.11,0-.22.03-.32s.06-.2.11-.29c.05-.09.13-.16.23-.23.1-.06.23-.12.39-.16.36-.09.77-.16,1.22-.21s.9-.07,1.35-.07c.08,0,.24-.01.47-.04.23-.03.5-.06.81-.1.31-.04.64-.08,1-.13.35-.05.69-.1,1.02-.14s.61-.09.86-.13.44-.07.56-.09c.42-.08.85-.16,1.27-.25.42-.09.85-.18,1.27-.26.42-.08.84-.15,1.26-.21s.83-.08,1.25-.08c.05,0,.14,0,.25,0s.25.01.4.02c.15.01.31.03.47.06s.32.06.46.11c.11.03.21.09.29.18.08.08.16.18.22.28.06.1.11.21.14.31.03.1.05.18.05.25Z"/>
        <path d="M25.07,6.91c0,.06-.01.14-.04.23-.03.1-.07.2-.12.29-.05.1-.12.18-.2.25-.08.07-.18.11-.3.12-.03,0-.08,0-.17,0-.08,0-.18,0-.27-.01s-.19-.01-.27-.01c-.08,0-.15,0-.19,0-1.09.06-2.03.45-2.82,1.17-.18.16-.37.35-.56.58-.19.22-.38.46-.57.73s-.36.55-.53.84c-.17.3-.32.61-.46.94-.11.27-.22.54-.32.83-.1.28-.2.58-.27.89-.05.17-.08.32-.1.44-.02.13-.06.27-.11.44-.03.1-.09.19-.17.27s-.17.14-.27.19c-.1.05-.21.09-.33.11-.11.03-.23.04-.34.05-.42,0-.7-.19-.86-.57s-.23-.94-.23-1.69c0-.17,0-.33,0-.48,0-.15,0-.3.02-.45s.02-.31.03-.48c.01-.17.03-.35.05-.56.03-.31.06-.67.11-1.09.05-.42.09-.85.15-1.28.05-.43.11-.85.17-1.25.06-.4.13-.75.19-1.03.08-.35.21-.62.4-.81s.46-.29.82-.29c.1,0,.21.03.32.08s.2.12.29.2c.08.08.16.16.21.25s.09.17.1.24v.18c0,.18,0,.4-.04.64-.03.25-.08.51-.13.79-.06.28-.11.56-.18.84-.06.28-.12.55-.19.81-.06.26-.12.49-.17.71s-.09.4-.11.54c.23-.48.47-.95.73-1.39.26-.45.54-.86.84-1.24.3-.38.62-.72.97-1.02.34-.3.72-.54,1.11-.72.31-.14.6-.25.86-.33.26-.07.49-.11.7-.11.25,0,.5.03.77.08s.5.13.72.23c.22.1.4.22.54.37.14.14.21.31.21.49Z"/>
        <path d="M40.31,8.16c0,.08-.01.17-.04.28s-.07.21-.11.32c-.05.11-.1.21-.15.31-.06.1-.11.19-.16.26-.03.05-.08.11-.16.19-.07.08-.15.17-.24.27-.09.1-.19.21-.31.33-.11.12-.23.23-.35.35-.38.35-.76.7-1.15,1.04-.39.34-.79.64-1.22.91-.42.26-.87.48-1.33.64-.46.16-.95.24-1.47.24-.22,0-.45-.05-.67-.15-.23-.1-.44-.23-.63-.4s-.37-.37-.51-.61-.25-.49-.31-.77c-.12.2-.27.41-.46.63-.19.22-.4.45-.62.67s-.46.43-.7.63c-.24.2-.47.37-.67.51-.14.1-.32.2-.52.3s-.42.2-.65.29c-.23.09-.46.16-.69.21-.23.06-.44.08-.64.08-.31,0-.59-.09-.82-.27s-.43-.4-.58-.66c-.15-.26-.27-.54-.34-.83-.07-.29-.11-.56-.11-.79,0-.43.06-.87.19-1.31s.29-.88.49-1.3c.2-.42.42-.83.66-1.21s.48-.73.72-1.03c.25-.31.54-.62.89-.93.34-.31.71-.59,1.08-.83.38-.24.75-.44,1.12-.59.37-.15.69-.22.98-.22.16,0,.32,0,.48.01s.33.02.49.04c.16.02.32.05.47.09.15.04.28.09.4.15.08.05.16.15.26.28.09.13.18.28.26.43.08.15.15.3.21.45s.09.27.09.35c0,.18-.03.4-.08.65-.06.25-.12.51-.19.79s-.13.55-.19.84-.09.56-.09.82c0,.18.03.37.08.56.05.19.13.36.22.51s.21.28.35.38.29.15.46.15c.38,0,.76-.07,1.14-.21.38-.14.76-.34,1.13-.59.38-.25.76-.55,1.13-.89.38-.34.76-.71,1.14-1.11.01,0,.06-.05.16-.15.09-.1.2-.21.33-.32s.26-.22.4-.32c.14-.1.26-.15.37-.15.19,0,.31.06.37.17s.09.28.09.51ZM31.44,7.16c0-.06-.01-.13-.03-.21-.02-.08-.05-.15-.09-.22-.04-.07-.08-.13-.12-.18-.05-.05-.09-.07-.13-.07-.43,0-.82.12-1.18.35-.35.23-.72.55-1.11.94-.21.21-.44.5-.69.87s-.47.75-.68,1.16c-.21.41-.38.82-.52,1.23s-.21.77-.21,1.08c0,.08,0,.15.01.23s.03.14.06.2.07.11.12.15c.05.04.12.06.21.06.25,0,.53-.08.84-.24s.63-.37.94-.62c.32-.26.62-.55.92-.89.3-.34.55-.68.75-1.03.25-.43.46-.88.63-1.35s.26-.96.26-1.46Z"/>
        <path d="M52.92,7.05c0,.27-.19.57-.58.9-.23.2-.49.39-.78.55s-.57.31-.87.43c-.3.12-.6.21-.89.28-.3.07-.57.1-.83.1-.29,0-.63-.04-1.01-.13-.38-.09-.72-.2-1.04-.33-.06.12-.13.27-.22.47s-.18.41-.28.63-.2.45-.29.66-.19.41-.26.58c-.16.34-.31.66-.45.96-.14.3-.28.59-.42.86s-.27.54-.4.8c-.13.26-.26.51-.39.76-.13.25-.26.45-.39.61-.13.16-.26.28-.38.37-.12.09-.23.15-.34.19s-.2.05-.29.05c-.21,0-.41-.06-.59-.17s-.38-.3-.58-.56c.02-.1.03-.19.04-.25,0-.06,0-.12,0-.18,0-.25-.08-.63-.25-1.13s-.42-1.1-.77-1.81c-.18-.38-.36-.77-.53-1.17-.17-.4-.32-.79-.45-1.17-.13-.38-.23-.74-.31-1.07s-.12-.63-.12-.87c0-.2.03-.4.08-.62.06-.22.14-.42.25-.6.11-.18.26-.33.43-.45.17-.12.38-.18.62-.18.38,0,.66.11.86.32s.29.49.29.84c0,.19-.02.39-.06.6s-.06.4-.06.57c0,.09,0,.23.02.42.01.19.04.39.07.62.04.23.09.48.16.74s.16.51.27.75c.05.11.11.24.18.4.06.16.13.32.21.5.07.18.14.36.21.54.06.18.12.35.18.51.05.16.09.3.13.42.03.12.05.21.05.27h0c.04-.07.1-.2.18-.4s.17-.42.26-.67.2-.53.32-.83c.11-.3.23-.59.34-.89.11-.3.21-.58.3-.84.09-.26.17-.49.23-.68.1-.32.21-.62.31-.89.1-.27.22-.51.36-.72s.3-.37.48-.48.42-.18.7-.18c.19,0,.35.04.49.12s.27.17.4.27c.06.05.15.11.26.18s.23.15.37.21.28.13.43.18c.15.05.31.07.46.07.27,0,.52-.02.76-.05.24-.03.46-.08.68-.13s.42-.12.62-.19.39-.14.59-.22c.19-.07.34-.13.47-.18.12-.05.26-.07.42-.07.13,0,.22.05.28.14.06.09.08.16.08.21Z"/>
        <path d="M62.63,7.97c0,.12-.09.33-.26.64-.34.49-.71.97-1.13,1.45-.41.48-.85.93-1.32,1.36s-.96.83-1.46,1.2-1.02.69-1.54.95c-.52.27-1.04.48-1.56.63s-1.02.23-1.52.23c-1.11,0-1.98-.31-2.6-.94-.62-.63-.93-1.58-.93-2.85,0-.51.04-1.01.11-1.5.07-.49.19-.98.36-1.46s.38-.95.65-1.41c.27-.46.6-.91.99-1.35.14-.16.31-.32.5-.47.19-.15.4-.28.62-.4.22-.12.45-.21.68-.28.24-.07.47-.11.71-.11.34,0,.64.06.89.2.25.13.46.3.62.52.16.22.28.47.36.75s.12.58.12.89c0,.58-.21,1.18-.64,1.8s-1.03,1.26-1.79,1.91c-.25.21-.53.43-.86.68-.33.24-.69.52-1.09.83.01.16.06.32.14.46.08.14.19.27.33.38.14.11.31.19.5.25s.42.09.66.09c.32,0,.66-.04,1.02-.12.36-.08.71-.19,1.06-.33s.69-.29,1.03-.47.63-.37.91-.56c.48-.35.95-.72,1.39-1.12.45-.4.88-.81,1.29-1.23l.52-.52c.36-.32.66-.48.92-.48.13,0,.22.04.27.13s.07.16.07.23ZM55.01,6.17c0-.14-.01-.28-.04-.41s-.08-.21-.14-.24c-.22,0-.46.09-.71.28-.25.19-.49.46-.72.81-.23.35-.43.77-.61,1.26-.18.49-.31,1.04-.4,1.64.31-.23.61-.47.92-.72.31-.25.59-.51.84-.79.25-.27.46-.56.62-.86.16-.3.24-.62.24-.96Z"/>
        <path d="M71.17,7.66c0,.18-.08.4-.23.66s-.35.54-.59.83c-.24.29-.5.59-.8.89s-.58.59-.85.85c-.16.16-.4.37-.72.65-.32.28-.68.58-1.07.91-.39.33-.81.68-1.24,1.03s-.83.69-1.22.99-.72.57-1.01.8-.5.38-.62.47c-.4.27-.78.47-1.13.62-.35.14-.66.21-.93.21-.23,0-.42-.02-.58-.06s-.28-.1-.38-.17-.17-.15-.21-.23c-.05-.09-.07-.18-.07-.27,0-.23.04-.43.13-.61.08-.18.22-.35.4-.5.18-.16.41-.31.68-.45.28-.15.6-.3.98-.45.25-.1.47-.19.67-.28.2-.09.37-.19.52-.3s.26-.23.34-.37.12-.3.12-.5c0-.05-.03-.13-.09-.25-.06-.12-.14-.27-.24-.43s-.21-.34-.33-.53c-.12-.19-.24-.38-.36-.57s-.23-.36-.33-.52c-.1-.16-.19-.3-.24-.41-.27-.49-.4-1-.4-1.51,0-.22.02-.45.06-.68s.1-.47.2-.71c.08-.3.22-.59.42-.88.19-.29.41-.54.64-.77s.47-.41.71-.54c.24-.14.44-.21.62-.21.23,0,.43.02.58.06.15.04.27.11.35.2.08.09.14.2.17.33.03.13.05.29.05.48,0,.16-.04.31-.12.46s-.17.29-.28.42c-.11.13-.23.25-.35.36-.12.11-.23.21-.32.29-.14.12-.27.24-.39.35-.12.11-.22.2-.29.28,0,.41.11.79.3,1.13.1.17.22.38.37.62s.3.5.45.76c.15.26.3.5.43.74s.24.42.32.56c.1-.05.24-.13.42-.26s.4-.28.65-.46c.25-.18.51-.38.8-.6s.57-.45.85-.68c.29-.23.56-.47.83-.7.27-.23.51-.45.72-.66.18-.18.33-.33.45-.45.12-.13.22-.23.31-.31s.16-.14.23-.19c.06-.04.14-.06.21-.06.08,0,.15.03.21.09.06.06.1.13.13.21.03.07.06.15.07.21.01.06.02.1.02.12Z"/>
        <path d="M79.51,7.66c0,.18-.08.4-.23.66s-.35.54-.59.83c-.24.29-.5.59-.8.89s-.58.59-.85.85c-.16.16-.4.37-.72.65-.32.28-.68.58-1.07.91-.39.33-.81.68-1.24,1.03s-.83.69-1.22.99-.72.57-1.01.8-.5.38-.62.47c-.4.27-.78.47-1.13.62-.35.14-.66.21-.93.21-.23,0-.42-.02-.58-.06s-.28-.1-.38-.17-.17-.15-.21-.23c-.05-.09-.07-.18-.07-.27,0-.23.04-.43.13-.61.08-.18.22-.35.4-.5.18-.16.41-.31.68-.45.28-.15.6-.3.98-.45.25-.1.47-.19.67-.28.2-.09.37-.19.52-.3s.26-.23.34-.37.12-.3.12-.5c0-.05-.03-.13-.09-.25-.06-.12-.14-.27-.24-.43s-.21-.34-.33-.53c-.12-.19-.24-.38-.36-.57s-.23-.36-.33-.52c-.1-.16-.19-.3-.24-.41-.27-.49-.4-1-.4-1.51,0-.22.02-.45.06-.68s.1-.47.2-.71c.08-.3.22-.59.42-.88.19-.29.41-.54.64-.77s.47-.41.71-.54c.24-.14.44-.21.62-.21.23,0,.43.02.58.06.15.04.27.11.35.2.08.09.14.2.17.33.03.13.05.29.05.48,0,.16-.04.31-.12.46s-.17.29-.28.42c-.11.13-.23.25-.35.36-.12.11-.23.21-.32.29-.14.12-.27.24-.39.35-.12.11-.22.2-.29.28,0,.41.11.79.3,1.13.1.17.22.38.37.62s.3.5.45.76c.15.26.3.5.43.74s.24.42.32.56c.1-.05.24-.13.42-.26s.4-.28.65-.46c.25-.18.51-.38.8-.6s.57-.45.85-.68c.29-.23.56-.47.83-.7.27-.23.51-.45.72-.66.18-.18.33-.33.45-.45.12-.13.22-.23.31-.31s.16-.14.23-.19c.06-.04.14-.06.21-.06.08,0,.15.03.21.09.06.06.1.13.13.21.03.07.06.15.07.21.01.06.02.1.02.12Z"/>
        <path d="M92.29,8.16c0,.08-.01.17-.04.28s-.07.21-.11.32c-.05.11-.1.21-.15.31-.06.1-.11.19-.16.26-.03.05-.08.11-.16.19-.07.08-.15.17-.24.27-.09.1-.19.21-.31.33-.11.12-.23.23-.35.35-.38.35-.76.7-1.15,1.04-.39.34-.79.64-1.22.91-.42.26-.87.48-1.33.64-.46.16-.95.24-1.47.24-.22,0-.45-.05-.67-.15-.23-.1-.44-.23-.63-.4s-.37-.37-.51-.61-.25-.49-.31-.77c-.12.2-.27.41-.46.63-.19.22-.4.45-.62.67s-.46.43-.7.63c-.24.2-.47.37-.67.51-.14.1-.32.2-.52.3s-.42.2-.65.29c-.23.09-.46.16-.69.21-.23.06-.44.08-.64.08-.31,0-.59-.09-.82-.27s-.43-.4-.58-.66c-.15-.26-.27-.54-.34-.83-.07-.29-.11-.56-.11-.79,0-.43.06-.87.19-1.31s.29-.88.49-1.3c.2-.42.42-.83.66-1.21s.48-.73.72-1.03c.25-.31.54-.62.89-.93.34-.31.71-.59,1.08-.83.38-.24.75-.44,1.12-.59.37-.15.69-.22.98-.22.16,0,.32,0,.48.01s.33.02.49.04c.16.02.32.05.47.09.15.04.28.09.4.15.08.05.16.15.26.28.09.13.18.28.26.43.08.15.15.3.21.45s.09.27.09.35c0,.18-.03.4-.08.65-.06.25-.12.51-.19.79s-.13.55-.19.84-.09.56-.09.82c0,.18.03.37.08.56.05.19.13.36.22.51s.21.28.35.38.29.15.46.15c.38,0,.76-.07,1.14-.21.38-.14.76-.34,1.13-.59.38-.25.76-.55,1.13-.89.38-.34.76-.71,1.14-1.11.01,0,.06-.05.16-.15.09-.1.2-.21.33-.32s.26-.22.4-.32c.14-.1.26-.15.37-.15.19,0,.31.06.37.17s.09.28.09.51ZM83.42,7.16c0-.06-.01-.13-.03-.21-.02-.08-.05-.15-.09-.22-.04-.07-.08-.13-.12-.18-.05-.05-.09-.07-.13-.07-.43,0-.82.12-1.18.35-.35.23-.72.55-1.11.94-.21.21-.44.5-.69.87s-.47.75-.68,1.16c-.21.41-.38.82-.52,1.23s-.21.77-.21,1.08c0,.08,0,.15.01.23s.03.14.06.2.07.11.12.15c.05.04.12.06.21.06.25,0,.53-.08.84-.24s.63-.37.94-.62c.32-.26.62-.55.92-.89.3-.34.55-.68.75-1.03.25-.43.46-.88.63-1.35s.26-.96.26-1.46ZM87.29,1.04c0,.1-.03.22-.08.36-.06.14-.13.28-.21.43-.07.12-.16.26-.26.41-.1.15-.22.3-.35.45-.1.12-.21.23-.32.33-.11.09-.22.18-.33.25-.2.12-.44.18-.71.18s-.52-.02-.73-.06c-.21-.04-.4-.12-.57-.22-.07-.05-.15-.12-.24-.2s-.2-.18-.33-.29c-.06-.05-.13-.12-.21-.21-.08-.08-.14-.14-.17-.18-.05-.05-.1-.11-.18-.18-.07-.07-.15-.13-.22-.19-.07-.06-.15-.11-.22-.15-.07-.04-.14-.06-.19-.06-.13,0-.28.06-.45.19-.17.12-.36.32-.57.6-.12.16-.23.3-.33.43-.1.13-.21.24-.31.34-.1.09-.21.17-.33.22s-.24.08-.38.08c-.25,0-.43-.07-.54-.21-.11-.14-.17-.32-.17-.53,0-.31.18-.7.53-1.17.16-.2.32-.4.5-.59s.37-.37.6-.54c.44-.35.85-.52,1.23-.52.23,0,.44.01.61.04.17.03.32.06.43.12.13.05.26.12.38.21.12.09.25.2.38.33.11.11.21.22.31.33.09.11.18.19.27.24.06.03.12.08.2.14.07.06.14.12.21.18.07.06.14.11.21.16s.13.07.17.07c.12,0,.24-.05.34-.16.1-.1.21-.23.32-.39.08-.11.14-.22.2-.33.06-.11.13-.22.22-.33.21-.25.42-.37.63-.37.27,0,.46.07.55.21.09.14.14.33.14.57Z"/>
        <path d="M104.5,6.58c0,.12-.02.24-.07.37s-.12.26-.2.38c-.08.12-.18.23-.29.34s-.22.19-.33.26c-.23.16-.57.29-1.02.41-.45.12-.98.18-1.62.18-.18,0-.38-.01-.58-.04s-.41-.06-.62-.11c-.21-.05-.42-.1-.62-.17s-.4-.15-.59-.23c.04.06.07.14.1.24.03.1.04.21.05.32s.02.22.02.32c0,.1,0,.18,0,.24,0,.42-.07.83-.22,1.25s-.34.81-.58,1.19c-.24.38-.51.73-.82,1.05-.31.32-.62.6-.94.83-.25.19-.54.35-.84.49-.31.14-.63.25-.98.34s-.69.16-1.05.21-.73.07-1.1.07c-.31,0-.6-.07-.88-.22-.28-.15-.53-.34-.74-.58-.21-.24-.38-.51-.51-.81s-.19-.6-.19-.89c0-.52.07-1.02.21-1.5.14-.48.33-.95.56-1.4s.51-.89.82-1.32.64-.86.99-1.28c.2-.25.43-.49.69-.72.26-.23.54-.44.83-.63.29-.19.58-.33.88-.44.3-.11.58-.17.85-.17.23,0,.42.03.59.08s.32.13.46.22c.14.09.27.21.41.35.13.14.27.29.41.46l.21.22c.05.05.19.13.42.23.23.1.51.21.83.31.32.1.65.19,1.01.27s.67.12.96.12.57,0,.83,0c.26,0,.52-.03.79-.07s.54-.11.83-.2c.29-.09.61-.21.96-.37.03.06.06.13.07.22.02.09.02.16.02.21ZM96.92,8.78c0-.16,0-.33-.02-.51-.02-.18-.05-.34-.1-.49-.05-.15-.12-.29-.21-.4-.09-.11-.21-.19-.36-.23-.23-.06-.41-.12-.56-.19-.14-.07-.26-.13-.34-.19-.08-.06-.14-.11-.18-.15-.03-.04-.06-.06-.07-.06-.05,0-.13.04-.22.13-.09.09-.2.2-.31.34-.11.14-.23.28-.35.44-.12.16-.24.3-.35.44-.14.17-.27.33-.39.49-.12.16-.24.33-.35.5-.11.17-.23.35-.34.54-.11.19-.22.4-.34.62-.1.21-.18.46-.23.77-.05.3-.08.59-.08.85,0,.11.01.22.04.34.03.11.06.22.12.31.05.09.12.17.21.22.08.06.19.09.31.09.3,0,.55-.01.75-.04.2-.03.39-.08.57-.16s.35-.18.53-.3c.18-.13.4-.28.65-.47.12-.09.23-.2.35-.32s.23-.25.35-.39.23-.29.34-.44c.11-.15.21-.3.3-.44.05-.08.1-.18.13-.31.04-.13.06-.26.09-.39.02-.13.04-.25.05-.36s.01-.19.01-.23h0Z"/>
      </g>
    </g>
  </g>
</svg>