<?xml version="1.0" encoding="UTF-8"?>
<svg id="Camada_2" data-name="Camada 2" xmlns="http://www.w3.org/2000/svg" viewBox="0 0 92.86 22.3">
  <defs>
    <style>
      .cls-1 {
        isolation: isolate;
      }
    </style>
  </defs>
  <g id="Camada_1-2" data-name="Camada 1">
    <g id="H3_Subtítulo_TÉCNICO_EM_ÓPTICA_font_size_28_Bold" data-name="H3 Subtítulo TÉCNICO EM ÓPTICA font size 28 Bold" class="cls-1">
      <g class="cls-1">
        <path d="M16.05,3.56c0,.59-.48,1.77-1.45,3.54-.26.46-.55.94-.86,1.43-.29.46-.57.88-.83,1.27-.26.38-.54.78-.83,1.2-.2.3-.41.6-.62.9-.21.3-.43.61-.66.94-.21.3-.4.59-.59.86-.18.27-.34.51-.47.72-.25.41-.49.84-.7,1.28-.21.44-.37.9-.47,1.36-.34,0-.65-.01-.93-.04-.28-.03-.54-.08-.77-.14-.16-.04-.34-.19-.53-.44-.19-.25-.4-.59-.62-1.02-.09-.19-.2-.41-.31-.64-.12-.23-.23-.48-.36-.74-.12-.26-.24-.53-.36-.8s-.23-.54-.34-.8c-.24-.57-.48-1.15-.73-1.75-.25-.6-.49-1.19-.72-1.78-.48-1.24-.72-1.86-.74-1.87-.33-.78-.62-1.48-.9-2.11-.27-.63-.52-1.19-.75-1.69-.25-.56-.43-1.18-.52-1.86.26-.56.66-.85,1.19-.85.31,0,.67.15,1.07.44.01.01.05.08.1.21s.12.29.2.5c.07.19.16.41.27.66.1.25.23.55.37.89.15.38.32.77.49,1.2.18.42.36.85.54,1.28.16.38.31.8.47,1.25.15.45.31.89.49,1.32.46,1.16.88,2.23,1.24,3.22.36.99.73,1.88,1.11,2.67.2-.39.43-.8.72-1.24.28-.43.57-.87.87-1.31.3-.44.59-.88.88-1.31.29-.43.55-.84.77-1.21.3-.51.55-.97.73-1.37s.37-.77.55-1.12c.29-.56.64-1.29,1.05-2.2.21-.46.4-.87.56-1.23s.3-.68.41-.96c.07-.17.17-.31.29-.4.12-.09.28-.14.48-.14.46,0,.81.25,1.03.75.09.19.14.38.15.58.01.2.02.38.02.54Z"/>
        <path d="M29.87,8.45c.04.09.06.17.07.23,0,.06.01.12.01.18,0,.16-.07.4-.2.71-.13.32-.32.68-.55,1.08-.23.4-.51.83-.83,1.29-.32.46-.67.9-1.06,1.33-.18.21-.38.43-.6.67-.22.24-.45.48-.69.72-.24.24-.49.48-.74.72-.25.23-.51.45-.76.66-.22.18-.46.35-.72.5-.26.15-.52.28-.79.4s-.53.2-.79.27c-.26.06-.5.1-.72.1-.64,0-1.16-.13-1.59-.4s-.76-.63-1.01-1.11c-.25-.48-.42-1.04-.53-1.7-.1-.66-.15-1.38-.15-2.16,0-.09,0-.2,0-.35,0-.14.01-.3.02-.47.01-.17.02-.35.04-.54.01-.19.03-.38.05-.57.04-.36.08-.68.12-.96.04-.28.09-.52.15-.72.11-.37.36-.71.76-1.02.37-.3.79-.44,1.26-.44s.69.28.69.85c0,.24-.02.49-.06.76s-.08.54-.11.81c-.12.51-.2,1.01-.24,1.5-.04.49-.05.89-.05,1.21,0,.19,0,.45.02.77.01.32.04.64.09.95.05.31.13.59.24.81.11.23.26.34.46.34.1,0,.22-.02.36-.05.14-.03.29-.08.44-.14.16-.06.32-.12.48-.2.16-.08.31-.16.46-.25.38-.24.74-.51,1.11-.82.36-.31.71-.63,1.05-.96.34-.33.66-.67.96-1s.58-.64.82-.93c.21-.23.41-.47.6-.73.19-.25.38-.49.56-.73.07-.09.13-.17.19-.24.06-.07.12-.14.17-.21.06-.1.14-.2.25-.3.11-.1.25-.15.42-.15.06,0,.13.03.2.08.06.05.11.12.14.2ZM24.88,1.14c0,.08-.01.16-.04.23-.03.07-.1.16-.21.27-.11.1-.28.23-.5.39-.22.16-.53.36-.93.6-.07.04-.19.12-.35.22-.16.1-.35.21-.56.34-.21.13-.43.26-.67.41s-.45.28-.66.41c-.2.13-.38.24-.54.33-.16.09-.26.16-.32.19.01,0-.01.02-.09.05-.07.04-.15.08-.24.12-.09.04-.18.08-.26.12-.08.04-.14.06-.16.06-.3,0-.51-.08-.66-.24-.14-.16-.21-.36-.21-.58,0-.39.5-.94,1.5-1.64.29-.2.58-.4.87-.6.29-.19.57-.38.83-.56.27-.18.52-.35.75-.51.23-.16.43-.31.6-.44.12-.09.25-.17.4-.22.15-.05.3-.08.46-.08.06,0,.14.03.25.1.11.06.22.15.33.26.11.11.21.23.29.36.08.13.12.27.12.42Z"/>
        <path d="M38.31,8.29c0,.06-.01.15-.04.26-.03.11-.07.22-.13.33-.06.11-.13.2-.22.28-.09.08-.2.12-.33.13-.03,0-.09,0-.18,0-.09,0-.2,0-.3-.02-.11,0-.21-.01-.3-.02-.09,0-.16,0-.21,0-1.21.06-2.25.5-3.13,1.3-.2.18-.41.39-.62.64-.21.25-.42.51-.63.81-.21.29-.4.6-.59.94-.19.33-.36.68-.51,1.04-.12.3-.24.6-.36.92-.12.31-.22.64-.3.99-.05.19-.09.35-.11.49-.03.14-.07.31-.12.49-.04.12-.1.21-.18.3-.09.08-.19.15-.3.21-.12.05-.24.1-.36.12-.13.03-.25.05-.37.05-.46,0-.78-.21-.95-.63-.17-.42-.26-1.04-.26-1.87,0-.19,0-.36,0-.53,0-.17.01-.33.02-.5.01-.17.02-.35.04-.53.01-.18.03-.39.05-.62.03-.34.07-.74.12-1.21.05-.47.1-.94.16-1.42.06-.48.12-.94.19-1.39.07-.45.14-.83.21-1.14.09-.38.23-.68.44-.9.21-.22.51-.32.9-.32.12,0,.23.03.35.09.12.06.23.14.32.22.09.09.17.18.24.28.07.1.1.19.11.27v.19c.01.2,0,.44-.04.72-.04.27-.08.57-.15.87-.06.31-.13.62-.2.93-.07.31-.14.61-.21.9-.07.29-.13.55-.18.79-.05.24-.1.44-.12.6.25-.53.52-1.05.81-1.54.29-.49.6-.95.93-1.38.33-.42.69-.8,1.07-1.13.38-.33.79-.6,1.24-.8.35-.16.66-.28.95-.36.29-.08.55-.12.78-.12.27,0,.56.03.85.09.29.06.56.14.8.25.24.11.44.25.6.41.16.16.24.34.24.54Z"/>
        <path d="M47.22,8.69c-.06.48-.1,1.01-.14,1.59s-.08,1.22-.14,1.92c-.02.26-.05.56-.08.9-.03.34-.07.69-.11,1.05-.04.36-.08.71-.12,1.05-.04.34-.09.65-.13.92-.06.42-.15.86-.25,1.33-.1.47-.23.93-.4,1.39-.16.46-.36.9-.59,1.31s-.5.78-.82,1.11c-.32.32-.7.58-1.12.76-.43.19-.91.28-1.46.28-.34,0-.68-.04-1.03-.12-.35-.08-.69-.19-1.02-.33-.33-.14-.65-.3-.95-.48s-.58-.38-.83-.59c-.62-.51-1.07-1-1.33-1.47-.09-.15-.15-.29-.2-.4-.05-.12-.07-.24-.07-.38,0-.16.05-.29.15-.4s.22-.16.36-.16c.07,0,.15.03.24.08.1.05.19.12.29.18.09.07.18.13.25.19.07.06.12.1.13.12.62.58,1.27,1.02,1.94,1.3.68.28,1.36.42,2.05.42.42,0,.77-.14,1.05-.41.28-.27.51-.61.69-1.01.18-.4.32-.85.43-1.32.1-.48.19-.92.25-1.33.07-.43.12-.9.17-1.42.05-.52.09-1.03.14-1.52-.33.34-.7.67-1.09.99-.4.32-.81.6-1.25.84-.43.24-.88.44-1.33.58-.45.15-.9.22-1.34.22-.23,0-.45-.05-.66-.15-.21-.1-.38-.24-.54-.43-.15-.18-.27-.41-.36-.67-.09-.26-.13-.55-.13-.88,0-.4.07-.84.22-1.32.14-.47.33-.95.55-1.42.22-.48.47-.94.75-1.38.27-.44.54-.84.8-1.19.26-.35.58-.71.96-1.09.38-.38.79-.73,1.23-1.04.44-.31.9-.57,1.37-.77.47-.2.92-.3,1.37-.3.26,0,.52.04.79.11.27.07.51.18.73.33.22.15.39.33.53.55.14.22.21.48.21.77,0,.12,0,.24-.02.38-.01.14-.03.29-.04.44-.02.15-.04.3-.05.44-.02.14-.03.28-.05.4h0ZM44.84,10.55c.04-.22.07-.49.1-.79.03-.3.07-.69.1-1.15.01-.25.03-.43.05-.55.02-.12.03-.22.03-.3,0-.16-.01-.27-.03-.35-.02-.09-.08-.15-.16-.18-.09-.03-.22-.05-.41-.06-.33.22-.65.48-.97.78-.32.3-.63.63-.92.99-.29.35-.57.72-.82,1.11-.26.38-.48.75-.68,1.12-.21.39-.38.77-.5,1.15-.12.38-.18.71-.18.98,0,.12.04.19.12.23.08.04.17.06.27.06.22,0,.46-.05.73-.16.27-.11.54-.24.81-.4s.53-.32.78-.49c.25-.17.46-.32.64-.46.07-.04.15-.12.27-.23.11-.11.22-.23.34-.37.11-.14.21-.29.3-.46s.14-.32.15-.47Z"/>
        <path d="M69.04,8.26c0,.4-.14.85-.43,1.34-.29.49-.66.98-1.12,1.47-.46.49-.97.97-1.54,1.43-.57.46-1.13.87-1.7,1.23-.57.36-1.1.65-1.61.86-.51.22-.92.33-1.26.33-.46,0-.85-.1-1.18-.3s-.59-.46-.8-.79c-.21-.33-.38-.7-.5-1.13-.12-.42-.21-.86-.27-1.31-.11.26-.25.54-.43.85-.18.3-.38.6-.59.9-.21.3-.42.58-.63.84-.21.26-.41.49-.59.68-.25.27-.53.53-.83.77-.3.25-.63.47-.98.66-.35.19-.71.34-1.1.45-.39.11-.79.17-1.21.17-.35,0-.67-.07-.94-.22s-.5-.34-.68-.58c-.18-.24-.32-.51-.41-.82-.09-.31-.14-.62-.14-.93,0-.27.02-.56.07-.85.05-.29.1-.59.16-.89.06-.3.11-.6.17-.89.05-.29.09-.58.11-.85.01-.21.03-.43.04-.67.01-.24.03-.48.04-.72.01-.24.03-.48.06-.73.03-.24.06-.47.09-.68.03-.15.07-.3.12-.43s.13-.26.23-.36c.1-.1.23-.19.38-.25.16-.06.34-.09.57-.09.46,0,.77.14.96.41.18.27.28.68.28,1.23,0,.17-.01.36-.03.57-.02.22-.05.44-.09.68-.04.23-.08.47-.12.71-.05.24-.1.47-.16.68-.12.48-.24.96-.35,1.41-.11.46-.16.87-.16,1.23,0,.23.04.42.12.57.08.15.19.23.31.23.31,0,.63-.1.97-.29.34-.19.66-.43.98-.71.32-.29.62-.6.9-.93.29-.34.53-.64.73-.93.19-.26.38-.58.57-.96.19-.38.38-.79.56-1.21.18-.42.36-.84.54-1.26.17-.42.33-.78.47-1.1.19-.43.4-.75.65-.99.25-.23.48-.35.72-.35.27,0,.48.05.61.16s.2.31.2.6c0,.12-.01.29-.04.53-.03.24-.06.49-.1.75-.04.26-.07.52-.1.76-.03.24-.04.42-.04.55,0,.12,0,.26,0,.42,0,.17,0,.34.02.51,0,.18.02.35.04.51.02.17.04.31.06.42.03.12.08.28.14.48.07.2.15.38.24.57s.2.34.32.48c.12.13.24.2.37.2.38,0,.77-.1,1.2-.29.42-.19.85-.45,1.29-.76.44-.31.88-.67,1.33-1.07s.88-.79,1.29-1.19c.17-.17.34-.33.51-.5.17-.17.33-.32.49-.46.16-.13.31-.24.44-.33.14-.09.26-.13.36-.13.12,0,.21.04.28.11.07.07.1.14.1.19Z"/>
        <path d="M77.79,10.34c0,.17-.04.37-.12.62-.08.25-.22.54-.42.87-.19.33-.46.7-.78,1.11-.33.41-.73.86-1.21,1.35-.27.27-.57.53-.9.8-.34.27-.69.5-1.07.71s-.76.37-1.16.5c-.4.13-.8.19-1.2.19-.53,0-1.03-.09-1.5-.28-.47-.19-.87-.47-1.22-.86-.35-.39-.62-.87-.82-1.46-.2-.58-.3-1.27-.3-2.06,0-.51.03-1.05.08-1.6.05-.55.11-1.11.19-1.67.08-.56.16-1.12.26-1.67.1-.55.19-1.08.29-1.59.06-.35.12-.65.16-.92.04-.27.08-.53.12-.8.04-.27.08-.55.14-.86s.11-.67.18-1.09c.04-.2.1-.4.18-.58.09-.18.2-.35.33-.49.13-.14.29-.25.47-.34.18-.08.38-.12.6-.12.53,0,.92.25,1.17.75l-.12.62c-.07.35-.15.75-.25,1.22-.1.47-.22.97-.34,1.52-.12.55-.24,1.12-.36,1.73-.12.6-.23,1.22-.33,1.84s-.18,1.24-.24,1.85c-.06.61-.09,1.21-.09,1.78,0,.43.03.83.09,1.18.06.35.16.66.3.9.14.25.31.44.53.58.22.14.48.21.78.21s.62-.06.94-.19.65-.29.98-.49c.33-.2.65-.43.96-.69.31-.26.61-.52.88-.79.27-.26.52-.52.74-.77.22-.25.39-.46.53-.65.06-.09.14-.18.21-.28.08-.1.16-.19.26-.28.1-.09.2-.16.31-.22.11-.06.23-.09.36-.09.1,0,.19.04.26.12.07.08.11.2.11.36Z"/>
        <path d="M92.86,9.68c0,.09-.02.19-.05.31-.03.12-.07.24-.12.36-.05.12-.11.23-.17.35-.06.11-.12.21-.18.29-.04.05-.09.12-.17.21-.08.09-.17.19-.27.3-.1.11-.21.23-.34.36-.13.13-.25.26-.38.39-.42.39-.84.77-1.27,1.15-.43.38-.88.71-1.35,1.01-.47.29-.96.53-1.47.71-.51.18-1.06.27-1.64.27-.25,0-.49-.05-.75-.16-.25-.11-.49-.26-.7-.44-.22-.19-.41-.41-.57-.68-.16-.26-.28-.55-.34-.85-.13.22-.3.45-.51.7-.21.25-.44.5-.69.74-.25.25-.51.48-.77.7-.27.22-.52.41-.75.57-.16.11-.35.22-.58.34-.23.12-.47.22-.72.32-.25.1-.51.18-.76.24-.26.06-.49.09-.71.09-.35,0-.65-.1-.91-.3-.26-.2-.47-.44-.64-.73-.17-.29-.3-.6-.38-.92-.08-.33-.12-.62-.12-.88,0-.48.07-.96.21-1.46s.32-.98.54-1.45c.22-.47.47-.92.74-1.34s.54-.81.8-1.14c.27-.35.6-.69.99-1.04.38-.34.78-.65,1.2-.92.42-.27.83-.49,1.24-.66.41-.17.77-.25,1.09-.25.17,0,.35,0,.54.02.18.01.37.03.55.05.18.02.35.05.52.1.17.04.31.1.44.16.09.06.18.16.29.31.1.15.2.31.29.48.09.17.17.34.23.5.07.17.1.3.1.39,0,.2-.03.44-.09.72-.06.28-.13.57-.21.87s-.15.61-.21.93c-.06.32-.1.62-.1.91,0,.2.03.41.09.62.06.21.14.4.25.57s.24.31.39.42c.15.11.32.16.51.16.43,0,.85-.08,1.27-.24.42-.16.84-.38,1.26-.66.42-.28.84-.61,1.26-.99s.84-.79,1.27-1.23c.01,0,.07-.05.17-.16.1-.11.22-.23.36-.36s.29-.25.44-.36c.16-.11.29-.16.41-.16.21,0,.35.06.41.18.07.12.1.31.1.56ZM83.01,8.56c0-.07-.01-.14-.04-.23-.03-.09-.06-.17-.1-.24-.04-.08-.09-.14-.14-.19-.05-.05-.1-.08-.14-.08-.48,0-.91.13-1.31.38-.39.26-.8.6-1.23,1.05-.24.24-.49.56-.76.96-.27.4-.52.83-.75,1.29-.23.46-.42.91-.57,1.37-.15.46-.23.86-.23,1.2,0,.09,0,.17.02.25s.03.16.06.22c.03.06.08.12.14.16.06.04.13.06.23.06.27,0,.59-.09.93-.27.35-.18.7-.41,1.05-.69.35-.29.69-.61,1.02-.99.33-.37.6-.75.83-1.14.27-.48.51-.98.7-1.5.19-.52.29-1.06.29-1.62Z"/>
      </g>
    </g>
  </g>
</svg>