<?xml version="1.0" encoding="UTF-8"?><svg id="Camada_2" xmlns="http://www.w3.org/2000/svg" xmlns:xlink="http://www.w3.org/1999/xlink" viewBox="0 0 41 41"><defs><style>.cls-1{fill:url(#Gradiente_sem_nome_62-2);}.cls-1,.cls-2,.cls-3{stroke-width:0px;}.cls-2{fill:url(#Gradiente_sem_nome_62);}.cls-3{fill:#fff;}</style><linearGradient id="Gradiente_sem_nome_62" x1="0" y1="20.5" x2="41" y2="20.5" gradientUnits="userSpaceOnUse"><stop offset="0" stop-color="#1a4480"/><stop offset=".36" stop-color="#1c4581"/><stop offset=".52" stop-color="#234c86"/><stop offset=".65" stop-color="#30578e"/><stop offset=".76" stop-color="#42679a"/><stop offset=".85" stop-color="#5a7caa"/><stop offset=".94" stop-color="#7795bc"/><stop offset="1" stop-color="#92acce"/></linearGradient><linearGradient id="Gradiente_sem_nome_62-2" x1="10.46" y1="19.54" x2="30.21" y2="19.54" xlink:href="#Gradiente_sem_nome_62"/></defs><g id="Camada_1-2"><g id="Grupo_266"><g id="Grupo_89-5"><g id="Elipse_1-6"><circle class="cls-3" cx="20.5" cy="20.5" r="20.5"/><path class="cls-2" d="M20.5,1c10.75,0,19.5,8.75,19.5,19.5s-8.75,19.5-19.5,19.5S1,31.25,1,20.5,9.75,1,20.5,1M20.5,0C9.18,0,0,9.18,0,20.5s9.18,20.5,20.5,20.5,20.5-9.18,20.5-20.5S31.82,0,20.5,0h0Z"/></g></g><path class="cls-1" d="M26.71,6.45v1.77c0,.41.33.75.75.75h1.77l-2.51-2.51ZM11.21,33.61h18.26c.41,0,.75-.33.75-.75V11.11c0-.41-.33-.75-.75-.75h-2.71c-.8,0-1.45-.65-1.45-1.45v-2.71c0-.41-.33-.75-.75-.75h-13.36c-.41,0-.75.33-.75.75v26.66c0,.41.33.75.75.75ZM26.18,25.73c.44,0,.79.35.79.79s-.35.76-.79.76h-12.38c-.44,0-.76-.32-.76-.76s.32-.79.76-.79h12.38ZM19.99,16.13c-.44,0-.76-.32-.76-.76s.32-.79.76-.79h6.16c.44,0,.76.35.76.79s-.32.76-.76.76h-6.16ZM13.8,19.86c-.44,0-.76-.35-.76-.79s.32-.76.76-.76h12.38c.44,0,.79.32.79.76s-.35.79-.79.79h-12.38ZM13.8,23.55c-.44,0-.76-.32-.76-.76s.32-.79.76-.79h12.38c.44,0,.79.35.79.79s-.35.76-.79.76h-12.38ZM13.99,13.84h.1c.28,0,.53.11.75.32.22.21.33.48.33.79s-.11.57-.33.77c-.22.2-.5.3-.82.3-.36,0-.65-.14-.89-.43-.24-.29-.35-.69-.35-1.22,0-.48.1-.93.31-1.36.21-.42.46-.76.76-1,.3-.25.57-.37.8-.37.16,0,.28.05.37.14.09.09.13.21.13.36,0,.21-.09.37-.29.48-.26.14-.46.31-.61.5-.15.19-.24.43-.26.72ZM17.22,13.84h.09c.27,0,.52.11.74.32.22.21.33.48.33.79s-.11.57-.33.78c-.22.21-.5.31-.82.31-.36,0-.66-.15-.89-.44-.23-.29-.35-.7-.35-1.22,0-.38.06-.73.18-1.06.12-.33.28-.62.47-.87s.4-.44.62-.58c.22-.14.42-.22.6-.22.16,0,.28.05.37.14.09.09.13.21.13.36,0,.22-.1.38-.29.48-.27.15-.47.32-.61.5s-.22.42-.25.71Z"/></g></g></svg>