<?xml version="1.0" encoding="UTF-8"?>
<svg id="Camada_1" data-name="Camada 1" xmlns="http://www.w3.org/2000/svg" xmlns:xlink="http://www.w3.org/1999/xlink" viewBox="0 0 33 33">
  <defs>
    <style>
      .cls-1 {
        fill: #207893;
      }

      .cls-1, .cls-2, .cls-3, .cls-4 {
        stroke-width: 0px;
      }

      .cls-5 {
        mask: url(#mask);
      }

      .cls-2 {
        fill: url(#Gradiente_sem_nome_8);
      }

      .cls-3 {
        fill: #d9d9d9;
      }

      .cls-4 {
        fill: #fff;
      }
    </style>
    <mask id="mask" x="-6.88" y="-1.66" width="40.2" height="39.74" maskUnits="userSpaceOnUse">
      <g id="mask0_88_68" data-name="mask0 88 68">
        <rect class="cls-3" x="-16.82" y="12.73" width="31.38" height="1.31" transform="translate(-13.4 7.93) rotate(-70.91)"/>
        <rect class="cls-3" x="-14.21" y="13.6" width="31.38" height="1.31" transform="translate(-12.48 10.99) rotate(-70.91)"/>
        <rect class="cls-3" x="-11.6" y="14.48" width="31.38" height="1.31" transform="translate(-11.55 14.05) rotate(-70.91)"/>
        <rect class="cls-3" x="-8.99" y="15.36" width="31.38" height="1.31" transform="translate(-10.63 17.11) rotate(-70.91)"/>
        <rect class="cls-3" x="-6.38" y="16.24" width="31.38" height="1.31" transform="translate(-9.7 20.16) rotate(-70.91)"/>
        <rect class="cls-3" x="-3.77" y="17.12" width="31.38" height="1.31" transform="translate(-8.78 23.22) rotate(-70.91)"/>
        <rect class="cls-3" x="-1.16" y="18" width="31.38" height="1.31" transform="translate(-7.85 26.28) rotate(-70.91)"/>
        <rect class="cls-3" x="1.45" y="18.88" width="31.38" height="1.31" transform="translate(-6.92 29.33) rotate(-70.91)"/>
        <rect class="cls-3" x="4.06" y="19.75" width="31.38" height="1.31" transform="translate(-6 32.39) rotate(-70.91)"/>
        <rect class="cls-3" x="6.67" y="20.63" width="31.38" height="1.31" transform="translate(-5.07 35.45) rotate(-70.91)"/>
        <rect class="cls-3" x="9.28" y="21.51" width="31.38" height="1.31" transform="translate(-4.15 38.51) rotate(-70.91)"/>
        <rect class="cls-3" x="11.88" y="22.39" width="31.38" height="1.31" transform="translate(-3.22 41.56) rotate(-70.91)"/>
      </g>
    </mask>
    <linearGradient id="Gradiente_sem_nome_8" data-name="Gradiente sem nome 8" x1="0" y1="579.85" x2="28.31" y2="579.85" gradientTransform="translate(0 598.7) scale(1 -1)" gradientUnits="userSpaceOnUse">
      <stop offset=".33" stop-color="#92acce"/>
      <stop offset="1" stop-color="#207893"/>
    </linearGradient>
  </defs>
  <g class="cls-5">
    <circle class="cls-2" cx="14.15" cy="18.85" r="14.15"/>
  </g>
  <g>
    <circle class="cls-1" cx="18.85" cy="14.15" r="14.15"/>
    <g>
      <path class="cls-4" d="M16.92,18.08l-2.01-1.08c0-.29.09-.61.27-.96.18-.35.43-.7.75-1.05.32-.35.69-.68,1.12-.98l1.59-1.14c.22-.15.43-.32.62-.51.2-.19.36-.4.48-.62s.19-.44.19-.65c0-.26-.06-.5-.19-.71s-.31-.38-.55-.5c-.24-.12-.54-.18-.88-.18-.3,0-.57.06-.8.18-.23.12-.43.28-.58.48-.15.2-.25.42-.32.65l-2.11-.36c.1-.5.31-.96.64-1.4s.76-.78,1.3-1.04c.53-.27,1.14-.4,1.82-.4.78,0,1.45.14,2.01.42.56.28.99.66,1.3,1.15.3.48.46,1.05.46,1.69s-.18,1.23-.53,1.73c-.36.5-.84.98-1.46,1.42l-1.42,1.04c-.29.19-.56.42-.83.68-.26.26-.47.57-.63.91-.16.35-.24.75-.24,1.22ZM14.91,18.51v-1.52l1.53-.28h5.73v1.8h-7.26Z"/>
      <path class="cls-4" d="M24.69,18.74c-.33,0-.61-.12-.85-.36-.24-.24-.35-.53-.35-.86s.12-.6.35-.84c.23-.24.52-.36.85-.36s.61.12.85.36c.24.24.35.52.35.84s-.12.62-.35.86c-.23.24-.52.36-.85.36Z"/>
    </g>
  </g>
</svg>