<?xml version="1.0" encoding="UTF-8"?>
<svg id="Camada_1" data-name="Camada 1" xmlns="http://www.w3.org/2000/svg" xmlns:xlink="http://www.w3.org/1999/xlink" viewBox="0 0 23 20">
  <defs>
    <style>
      .cls-1 {
        stroke: url(#Gradiente_sem_nome_7);
      }

      .cls-1, .cls-2, .cls-3, .cls-4, .cls-5, .cls-6, .cls-7, .cls-8 {
        fill: none;
      }

      .cls-1, .cls-3, .cls-4, .cls-5, .cls-6, .cls-7, .cls-8 {
        stroke-miterlimit: 10;
        stroke-width: 9px;
      }

      .cls-9 {
        clip-path: url(#clippath);
      }

      .cls-2, .cls-10 {
        stroke-width: 0px;
      }

      .cls-10 {
        fill: #92acce;
      }

      .cls-3 {
        stroke: url(#Gradiente_sem_nome_7-6);
      }

      .cls-4 {
        stroke: url(#Gradiente_sem_nome_7-7);
      }

      .cls-5 {
        stroke: url(#Gradiente_sem_nome_7-3);
      }

      .cls-6 {
        stroke: url(#Gradiente_sem_nome_7-2);
      }

      .cls-7 {
        stroke: url(#Gradiente_sem_nome_7-5);
      }

      .cls-8 {
        stroke: url(#Gradiente_sem_nome_7-4);
      }

      .cls-11 {
        filter: url(#drop-shadow-53);
      }
    </style>
    <clipPath id="clippath">
      <circle class="cls-2" cx="66.59" cy="365.29" r="99.04"/>
    </clipPath>
    <linearGradient id="Gradiente_sem_nome_7" data-name="Gradiente sem nome 7" x1="-29.57" y1="67.67" x2="198.48" y2="67.67" gradientUnits="userSpaceOnUse">
      <stop offset="0" stop-color="#92acce"/>
      <stop offset="1" stop-color="#207893"/>
    </linearGradient>
    <linearGradient id="Gradiente_sem_nome_7-2" data-name="Gradiente sem nome 7" x1="-27.82" y1="42.72" x2="200.23" y2="42.72" xlink:href="#Gradiente_sem_nome_7"/>
    <linearGradient id="Gradiente_sem_nome_7-3" data-name="Gradiente sem nome 7" x1="-26.14" y1="18.77" x2="201.91" y2="18.77" xlink:href="#Gradiente_sem_nome_7"/>
    <linearGradient id="Gradiente_sem_nome_7-4" data-name="Gradiente sem nome 7" x1="-24.46" y1="-5.18" x2="203.59" y2="-5.18" xlink:href="#Gradiente_sem_nome_7"/>
    <linearGradient id="Gradiente_sem_nome_7-5" data-name="Gradiente sem nome 7" x1="-22.71" y1="-30.13" x2="205.34" y2="-30.13" xlink:href="#Gradiente_sem_nome_7"/>
    <linearGradient id="Gradiente_sem_nome_7-6" data-name="Gradiente sem nome 7" x1="-33" y1="116.57" x2="195.05" y2="116.57" xlink:href="#Gradiente_sem_nome_7"/>
    <linearGradient id="Gradiente_sem_nome_7-7" data-name="Gradiente sem nome 7" x1="-31.25" y1="91.62" x2="196.8" y2="91.62" xlink:href="#Gradiente_sem_nome_7"/>
    <filter id="drop-shadow-53" filterUnits="userSpaceOnUse">
      <feOffset dx=".5" dy=".5"/>
      <feGaussianBlur result="blur" stdDeviation="0"/>
      <feFlood flood-color="#002e3b" flood-opacity="1"/>
      <feComposite in2="blur" operator="in"/>
      <feComposite in="SourceGraphic"/>
    </filter>
  </defs>
  <g class="cls-9">
    <g id="Grupo_de_máscara_8" data-name="Grupo de máscara 8">
      <g id="Grupo_260" data-name="Grupo 260">
        <line id="Linha_154" data-name="Linha 154" class="cls-1" x1="-26.62" y1="164.18" x2="195.53" y2="-28.84"/>
        <line id="Linha_159" data-name="Linha 159" class="cls-6" x1="-24.87" y1="139.23" x2="197.28" y2="-53.79"/>
        <line id="Linha_164" data-name="Linha 164" class="cls-5" x1="-23.19" y1="115.28" x2="198.96" y2="-77.74"/>
        <line id="Linha_169" data-name="Linha 169" class="cls-8" x1="-21.51" y1="91.33" x2="200.64" y2="-101.69"/>
        <line id="Linha_174" data-name="Linha 174" class="cls-7" x1="-19.76" y1="66.38" x2="202.39" y2="-126.64"/>
        <line id="Linha_180" data-name="Linha 180" class="cls-3" x1="-30.05" y1="213.09" x2="192.1" y2="20.06"/>
        <line id="Linha_181" data-name="Linha 181" class="cls-4" x1="-28.3" y1="188.14" x2="193.85" y2="-4.89"/>
      </g>
    </g>
  </g>
  <g class="cls-11">
    <path class="cls-10" d="M6.45,16.3l3.69-5.15,2.57-3.85h2.81l-3.58,5.02-2.65,3.98h-2.84ZM12.91,16.3l-2.61-3.98-3.62-5.02h2.81l2.57,3.85,3.67,5.15h-2.83Z"/>
    <path class="cls-10" d="M18.94,18.1h-2.34c.56-.78,1.07-1.6,1.52-2.47s.81-1.78,1.07-2.73c.26-.95.4-1.91.4-2.9s-.13-1.96-.4-2.91c-.26-.94-.62-1.85-1.07-2.73s-.96-1.7-1.52-2.47h2.34c.56.73,1.07,1.53,1.52,2.39.45.86.81,1.76,1.07,2.72.26.95.4,1.95.4,3s-.13,2.03-.4,2.99c-.26.96-.62,1.87-1.07,2.73s-.96,1.65-1.52,2.38Z"/>
  </g>
</svg>