<?xml version="1.0" encoding="UTF-8"?>
<svg id="Camada_1" data-name="Camada 1" xmlns="http://www.w3.org/2000/svg" xmlns:xlink="http://www.w3.org/1999/xlink" viewBox="0 0 23 20">
  <defs>
    <style>
      .cls-1 {
        stroke: url(#Gradiente_sem_nome_7);
      }

      .cls-1, .cls-2, .cls-3 {
        fill: none;
      }

      .cls-1, .cls-3 {
        stroke-miterlimit: 10;
        stroke-width: 9px;
      }

      .cls-4 {
        clip-path: url(#clippath);
      }

      .cls-2, .cls-5 {
        stroke-width: 0px;
      }

      .cls-5 {
        fill: #92acce;
      }

      .cls-3 {
        stroke: url(#Gradiente_sem_nome_7-2);
      }

      .cls-6 {
        filter: url(#drop-shadow-49);
      }
    </style>
    <clipPath id="clippath">
      <circle class="cls-2" cx="66.59" cy="466.59" r="99.04"/>
    </clipPath>
    <linearGradient id="Gradiente_sem_nome_7" data-name="Gradiente sem nome 7" x1="-24.46" y1="96.13" x2="203.59" y2="96.13" gradientUnits="userSpaceOnUse">
      <stop offset="0" stop-color="#92acce"/>
      <stop offset="1" stop-color="#207893"/>
    </linearGradient>
    <linearGradient id="Gradiente_sem_nome_7-2" data-name="Gradiente sem nome 7" x1="-22.71" y1="71.18" x2="205.34" y2="71.18" xlink:href="#Gradiente_sem_nome_7"/>
    <filter id="drop-shadow-49" filterUnits="userSpaceOnUse">
      <feOffset dx=".5" dy=".5"/>
      <feGaussianBlur result="blur" stdDeviation="0"/>
      <feFlood flood-color="#002e3b" flood-opacity="1"/>
      <feComposite in2="blur" operator="in"/>
      <feComposite in="SourceGraphic"/>
    </filter>
  </defs>
  <g class="cls-4">
    <g id="Grupo_de_máscara_8" data-name="Grupo de máscara 8">
      <g id="Grupo_260" data-name="Grupo 260">
        <line id="Linha_169" data-name="Linha 169" class="cls-1" x1="-21.51" y1="192.64" x2="200.64" y2="-.39"/>
        <line id="Linha_174" data-name="Linha 174" class="cls-3" x1="-19.76" y1="167.69" x2="202.39" y2="-25.34"/>
      </g>
    </g>
  </g>
  <g class="cls-6">
    <path class="cls-5" d="M11.92,16.52c-.58,0-1.12-.09-1.62-.26-.5-.17-.95-.43-1.33-.76-.38-.33-.68-.74-.9-1.21l2.03-.94c.18.29.43.54.74.75.31.21.67.32,1.08.32s.7-.06.92-.17c.22-.11.32-.28.32-.5s-.09-.38-.26-.48c-.17-.1-.41-.19-.71-.26l-.83-.22c-.86-.23-1.54-.59-2.04-1.09s-.75-1.07-.75-1.72c0-.92.3-1.64.89-2.14.59-.5,1.44-.76,2.53-.76.56,0,1.09.08,1.58.25s.9.4,1.25.7c.35.3.59.65.72,1.04l-1.96.9c-.08-.24-.29-.43-.61-.58-.32-.15-.65-.22-.97-.22s-.57.07-.75.21-.26.33-.26.57c0,.16.08.29.25.39s.41.19.72.26l1.17.29c.59.14,1.06.38,1.41.69.35.32.61.67.77,1.06.16.39.24.77.24,1.14,0,.54-.16,1.02-.48,1.43s-.75.74-1.3.96-1.17.34-1.86.34Z"/>
    <path class="cls-5" d="M18.94,18.1h-2.34c.56-.78,1.07-1.6,1.52-2.47s.81-1.78,1.07-2.73c.26-.95.4-1.91.4-2.9s-.13-1.96-.4-2.91c-.26-.94-.62-1.85-1.07-2.73s-.96-1.7-1.52-2.47h2.34c.56.73,1.07,1.53,1.52,2.39.45.86.81,1.76,1.07,2.72.26.95.4,1.95.4,3s-.13,2.03-.4,2.99c-.26.96-.62,1.87-1.07,2.73s-.96,1.65-1.52,2.38Z"/>
  </g>
</svg>