<?xml version="1.0" encoding="UTF-8"?>
<svg id="Camada_1" data-name="Camada 1" xmlns="http://www.w3.org/2000/svg" xmlns:xlink="http://www.w3.org/1999/xlink" viewBox="0 0 33 33">
  <defs>
    <style>
      .cls-1 {
        fill: #207893;
      }

      .cls-1, .cls-2, .cls-3, .cls-4 {
        stroke-width: 0px;
      }

      .cls-5 {
        mask: url(#mask);
      }

      .cls-2 {
        fill: url(#Gradiente_sem_nome_8);
      }

      .cls-3 {
        fill: #d9d9d9;
      }

      .cls-4 {
        fill: #fff;
      }
    </style>
    <mask id="mask" x="-6.88" y="-1.66" width="40.2" height="39.74" maskUnits="userSpaceOnUse">
      <g id="mask0_88_68" data-name="mask0 88 68">
        <rect class="cls-3" x="-16.82" y="12.73" width="31.38" height="1.31" transform="translate(-13.4 7.93) rotate(-70.91)"/>
        <rect class="cls-3" x="-14.21" y="13.6" width="31.38" height="1.31" transform="translate(-12.48 10.99) rotate(-70.91)"/>
        <rect class="cls-3" x="-11.6" y="14.48" width="31.38" height="1.31" transform="translate(-11.55 14.05) rotate(-70.91)"/>
        <rect class="cls-3" x="-8.99" y="15.36" width="31.38" height="1.31" transform="translate(-10.63 17.11) rotate(-70.91)"/>
        <rect class="cls-3" x="-6.38" y="16.24" width="31.38" height="1.31" transform="translate(-9.7 20.16) rotate(-70.91)"/>
        <rect class="cls-3" x="-3.77" y="17.12" width="31.38" height="1.31" transform="translate(-8.78 23.22) rotate(-70.91)"/>
        <rect class="cls-3" x="-1.16" y="18" width="31.38" height="1.31" transform="translate(-7.85 26.28) rotate(-70.91)"/>
        <rect class="cls-3" x="1.45" y="18.88" width="31.38" height="1.31" transform="translate(-6.92 29.33) rotate(-70.91)"/>
        <rect class="cls-3" x="4.06" y="19.75" width="31.38" height="1.31" transform="translate(-6 32.39) rotate(-70.91)"/>
        <rect class="cls-3" x="6.67" y="20.63" width="31.38" height="1.31" transform="translate(-5.07 35.45) rotate(-70.91)"/>
        <rect class="cls-3" x="9.28" y="21.51" width="31.38" height="1.31" transform="translate(-4.15 38.51) rotate(-70.91)"/>
        <rect class="cls-3" x="11.88" y="22.39" width="31.38" height="1.31" transform="translate(-3.22 41.56) rotate(-70.91)"/>
      </g>
    </mask>
    <linearGradient id="Gradiente_sem_nome_8" data-name="Gradiente sem nome 8" x1="0" y1="507.33" x2="28.31" y2="507.33" gradientTransform="translate(0 526.18) scale(1 -1)" gradientUnits="userSpaceOnUse">
      <stop offset=".33" stop-color="#92acce"/>
      <stop offset="1" stop-color="#207893"/>
    </linearGradient>
  </defs>
  <g class="cls-5">
    <circle class="cls-2" cx="14.15" cy="18.85" r="14.15"/>
  </g>
  <g>
    <circle class="cls-1" cx="18.85" cy="14.15" r="14.15"/>
    <g>
      <path class="cls-4" d="M18.53,18.69c-.62,0-1.18-.09-1.68-.28-.5-.18-.92-.45-1.25-.79-.33-.34-.57-.75-.7-1.22l1.89-.55c.07.12.17.27.29.44.12.18.29.32.5.44.21.12.49.18.83.18.5,0,.9-.14,1.19-.41.29-.27.44-.63.44-1.07,0-.3-.08-.56-.22-.79-.15-.23-.39-.41-.73-.53s-.77-.19-1.31-.19h-.63v-1.4h.55c.6,0,1.17.07,1.7.22.53.15,1,.36,1.4.63s.72.6.95.99c.23.39.34.82.34,1.31,0,.63-.16,1.17-.49,1.63-.33.46-.77.8-1.31,1.04-.54.24-1.12.36-1.75.36ZM17.14,13.53v-1.31h.63c.7,0,1.22-.12,1.56-.36.34-.24.51-.57.51-.99,0-.24-.06-.46-.18-.65s-.29-.34-.51-.45c-.22-.11-.48-.17-.76-.17-.19,0-.39.03-.58.1-.2.06-.38.17-.55.31s-.3.35-.4.62l-1.86-.56c.14-.49.38-.9.73-1.24s.76-.59,1.24-.77c.48-.17.98-.26,1.49-.26.65,0,1.24.12,1.75.37s.93.58,1.23,1.01c.3.43.45.92.45,1.48,0,.48-.11.9-.34,1.25s-.54.65-.94.88c-.39.24-.84.42-1.34.53-.5.11-1.02.17-1.56.17h-.55Z"/>
      <path class="cls-4" d="M24.52,18.74c-.33,0-.61-.12-.85-.36-.24-.24-.35-.53-.35-.86s.12-.6.35-.84c.23-.24.52-.36.85-.36s.61.12.85.36c.24.24.35.52.35.84s-.12.62-.35.86c-.23.24-.52.36-.85.36Z"/>
    </g>
  </g>
</svg>