<?xml version="1.0" encoding="UTF-8"?>
<svg id="Camada_1" data-name="Camada 1" xmlns="http://www.w3.org/2000/svg" xmlns:xlink="http://www.w3.org/1999/xlink" viewBox="0 0 23 20">
  <defs>
    <style>
      .cls-1 {
        stroke: url(#Gradiente_sem_nome_7);
      }

      .cls-1, .cls-2, .cls-3, .cls-4, .cls-5, .cls-6, .cls-7, .cls-8, .cls-9 {
        fill: none;
      }

      .cls-1, .cls-3, .cls-4, .cls-5, .cls-6, .cls-7, .cls-8, .cls-9 {
        stroke-miterlimit: 10;
        stroke-width: 9px;
      }

      .cls-10 {
        clip-path: url(#clippath);
      }

      .cls-2, .cls-11 {
        stroke-width: 0px;
      }

      .cls-11 {
        fill: #92acce;
      }

      .cls-3 {
        stroke: url(#Gradiente_sem_nome_7-8);
      }

      .cls-4 {
        stroke: url(#Gradiente_sem_nome_7-6);
      }

      .cls-5 {
        stroke: url(#Gradiente_sem_nome_7-7);
      }

      .cls-6 {
        stroke: url(#Gradiente_sem_nome_7-3);
      }

      .cls-7 {
        stroke: url(#Gradiente_sem_nome_7-2);
      }

      .cls-8 {
        stroke: url(#Gradiente_sem_nome_7-5);
      }

      .cls-9 {
        stroke: url(#Gradiente_sem_nome_7-4);
      }

      .cls-12 {
        filter: url(#drop-shadow-54);
      }
    </style>
    <clipPath id="clippath">
      <circle class="cls-2" cx="66.59" cy="340.81" r="99.04"/>
    </clipPath>
    <linearGradient id="Gradiente_sem_nome_7" data-name="Gradiente sem nome 7" x1="-29.57" y1="43.19" x2="198.48" y2="43.19" gradientUnits="userSpaceOnUse">
      <stop offset="0" stop-color="#92acce"/>
      <stop offset="1" stop-color="#207893"/>
    </linearGradient>
    <linearGradient id="Gradiente_sem_nome_7-2" data-name="Gradiente sem nome 7" x1="-27.82" y1="18.24" x2="200.23" y2="18.24" xlink:href="#Gradiente_sem_nome_7"/>
    <linearGradient id="Gradiente_sem_nome_7-3" data-name="Gradiente sem nome 7" x1="-26.14" y1="-5.71" x2="201.91" y2="-5.71" xlink:href="#Gradiente_sem_nome_7"/>
    <linearGradient id="Gradiente_sem_nome_7-4" data-name="Gradiente sem nome 7" x1="-24.46" y1="-29.66" x2="203.59" y2="-29.66" xlink:href="#Gradiente_sem_nome_7"/>
    <linearGradient id="Gradiente_sem_nome_7-5" data-name="Gradiente sem nome 7" x1="-22.71" y1="-54.61" x2="205.34" y2="-54.61" xlink:href="#Gradiente_sem_nome_7"/>
    <linearGradient id="Gradiente_sem_nome_7-6" data-name="Gradiente sem nome 7" x1="-34.76" y1="116.55" x2="193.38" y2="116.55" xlink:href="#Gradiente_sem_nome_7"/>
    <linearGradient id="Gradiente_sem_nome_7-7" data-name="Gradiente sem nome 7" x1="-33" y1="92.09" x2="195.05" y2="92.09" xlink:href="#Gradiente_sem_nome_7"/>
    <linearGradient id="Gradiente_sem_nome_7-8" data-name="Gradiente sem nome 7" x1="-31.25" y1="67.14" x2="196.8" y2="67.14" xlink:href="#Gradiente_sem_nome_7"/>
    <filter id="drop-shadow-54" filterUnits="userSpaceOnUse">
      <feOffset dx=".5" dy=".5"/>
      <feGaussianBlur result="blur" stdDeviation="0"/>
      <feFlood flood-color="#002e3b" flood-opacity="1"/>
      <feComposite in2="blur" operator="in"/>
      <feComposite in="SourceGraphic"/>
    </filter>
  </defs>
  <g class="cls-10">
    <g id="Grupo_de_máscara_8" data-name="Grupo de máscara 8">
      <g id="Grupo_260" data-name="Grupo 260">
        <line id="Linha_154" data-name="Linha 154" class="cls-1" x1="-26.62" y1="139.7" x2="195.53" y2="-53.32"/>
        <line id="Linha_159" data-name="Linha 159" class="cls-7" x1="-24.87" y1="114.75" x2="197.28" y2="-78.27"/>
        <line id="Linha_164" data-name="Linha 164" class="cls-6" x1="-23.19" y1="90.8" x2="198.96" y2="-102.22"/>
        <line id="Linha_169" data-name="Linha 169" class="cls-9" x1="-21.51" y1="66.85" x2="200.64" y2="-126.17"/>
        <line id="Linha_174" data-name="Linha 174" class="cls-8" x1="-19.76" y1="41.9" x2="202.39" y2="-151.12"/>
        <line id="Linha_176" data-name="Linha 176" class="cls-4" x1="-31.8" y1="213.56" x2="190.42" y2="19.53"/>
        <line id="Linha_180" data-name="Linha 180" class="cls-5" x1="-30.05" y1="188.61" x2="192.1" y2="-4.42"/>
        <line id="Linha_181" data-name="Linha 181" class="cls-3" x1="-28.3" y1="163.66" x2="193.85" y2="-29.37"/>
      </g>
    </g>
  </g>
  <g class="cls-12">
    <path class="cls-11" d="M4.13,16.3L1.07,7.3h2.41l2.86,9h-2.21ZM4.36,16.3l2.88-9h2.07l-2.84,9h-2.11ZM10.34,16.3l-2.81-9h2.05l2.86,9h-2.11ZM10.34,16.3l2.99-9h2.41l-3.06,9h-2.34Z"/>
    <path class="cls-11" d="M18.94,18.1h-2.34c.56-.78,1.07-1.6,1.52-2.47s.81-1.78,1.07-2.73c.26-.95.4-1.91.4-2.9s-.13-1.96-.4-2.91c-.26-.94-.62-1.85-1.07-2.73s-.96-1.7-1.52-2.47h2.34c.56.73,1.07,1.53,1.52,2.39.45.86.81,1.76,1.07,2.72.26.95.4,1.95.4,3s-.13,2.03-.4,2.99c-.26.96-.62,1.87-1.07,2.73s-.96,1.65-1.52,2.38Z"/>
  </g>
</svg>