<?xml version="1.0" encoding="UTF-8"?>
<svg id="Camada_1" data-name="Camada 1" xmlns="http://www.w3.org/2000/svg" xmlns:xlink="http://www.w3.org/1999/xlink" viewBox="0 0 33 33">
  <defs>
    <style>
      .cls-1 {
        fill: #207893;
      }

      .cls-1, .cls-2, .cls-3, .cls-4, .cls-5 {
        stroke-width: 0px;
      }

      .cls-6 {
        stroke: url(#Gradiente_sem_nome_7);
      }

      .cls-6, .cls-2, .cls-7, .cls-8, .cls-9, .cls-10 {
        fill: none;
      }

      .cls-6, .cls-7, .cls-8, .cls-9, .cls-10 {
        stroke-miterlimit: 10;
        stroke-width: 9px;
      }

      .cls-11 {
        clip-path: url(#clippath);
      }

      .cls-12 {
        mask: url(#mask);
      }

      .cls-3 {
        fill: url(#Gradiente_sem_nome_8);
      }

      .cls-4 {
        fill: #d9d9d9;
      }

      .cls-7 {
        stroke: url(#Gradiente_sem_nome_7-3);
      }

      .cls-8 {
        stroke: url(#Gradiente_sem_nome_7-2);
      }

      .cls-9 {
        stroke: url(#Gradiente_sem_nome_7-5);
      }

      .cls-10 {
        stroke: url(#Gradiente_sem_nome_7-4);
      }

      .cls-5 {
        fill: #fff;
      }
    </style>
    <clipPath id="clippath">
      <circle class="cls-2" cx="13.77" cy="414.73" r="99.04"/>
    </clipPath>
    <linearGradient id="Gradiente_sem_nome_7" data-name="Gradiente sem nome 7" x1="-82.39" y1="117.12" x2="145.66" y2="117.12" gradientUnits="userSpaceOnUse">
      <stop offset="0" stop-color="#92acce"/>
      <stop offset="1" stop-color="#207893"/>
    </linearGradient>
    <linearGradient id="Gradiente_sem_nome_7-2" data-name="Gradiente sem nome 7" x1="-80.64" y1="92.17" x2="147.41" y2="92.17" xlink:href="#Gradiente_sem_nome_7"/>
    <linearGradient id="Gradiente_sem_nome_7-3" data-name="Gradiente sem nome 7" x1="-78.96" y1="68.21" x2="149.09" y2="68.21" xlink:href="#Gradiente_sem_nome_7"/>
    <linearGradient id="Gradiente_sem_nome_7-4" data-name="Gradiente sem nome 7" x1="-77.28" y1="44.26" x2="150.77" y2="44.26" xlink:href="#Gradiente_sem_nome_7"/>
    <linearGradient id="Gradiente_sem_nome_7-5" data-name="Gradiente sem nome 7" x1="-75.53" y1="19.31" x2="152.52" y2="19.31" xlink:href="#Gradiente_sem_nome_7"/>
    <mask id="mask" x="-6.88" y="-1.66" width="40.2" height="39.74" maskUnits="userSpaceOnUse">
      <g id="mask0_88_68" data-name="mask0 88 68">
        <rect class="cls-4" x="-16.82" y="12.73" width="31.38" height="1.31" transform="translate(-13.4 7.93) rotate(-70.91)"/>
        <rect class="cls-4" x="-14.21" y="13.6" width="31.38" height="1.31" transform="translate(-12.48 10.99) rotate(-70.91)"/>
        <rect class="cls-4" x="-11.6" y="14.48" width="31.38" height="1.31" transform="translate(-11.55 14.05) rotate(-70.91)"/>
        <rect class="cls-4" x="-8.99" y="15.36" width="31.38" height="1.31" transform="translate(-10.63 17.11) rotate(-70.91)"/>
        <rect class="cls-4" x="-6.38" y="16.24" width="31.38" height="1.31" transform="translate(-9.7 20.16) rotate(-70.91)"/>
        <rect class="cls-4" x="-3.77" y="17.12" width="31.38" height="1.31" transform="translate(-8.78 23.22) rotate(-70.91)"/>
        <rect class="cls-4" x="-1.16" y="18" width="31.38" height="1.31" transform="translate(-7.85 26.28) rotate(-70.91)"/>
        <rect class="cls-4" x="1.45" y="18.88" width="31.38" height="1.31" transform="translate(-6.92 29.33) rotate(-70.91)"/>
        <rect class="cls-4" x="4.06" y="19.75" width="31.38" height="1.31" transform="translate(-6 32.39) rotate(-70.91)"/>
        <rect class="cls-4" x="6.67" y="20.63" width="31.38" height="1.31" transform="translate(-5.07 35.45) rotate(-70.91)"/>
        <rect class="cls-4" x="9.28" y="21.51" width="31.38" height="1.31" transform="translate(-4.15 38.51) rotate(-70.91)"/>
        <rect class="cls-4" x="11.88" y="22.39" width="31.38" height="1.31" transform="translate(-3.22 41.56) rotate(-70.91)"/>
      </g>
    </mask>
    <linearGradient id="Gradiente_sem_nome_8" data-name="Gradiente sem nome 8" x1="0" y1="193.16" x2="28.31" y2="193.16" gradientTransform="translate(0 212) scale(1 -1)" gradientUnits="userSpaceOnUse">
      <stop offset=".33" stop-color="#92acce"/>
      <stop offset="1" stop-color="#207893"/>
    </linearGradient>
  </defs>
  <g class="cls-11">
    <g id="Grupo_de_máscara_8" data-name="Grupo de máscara 8">
      <g id="Grupo_260" data-name="Grupo 260">
        <line id="Linha_154" data-name="Linha 154" class="cls-6" x1="-79.44" y1="213.63" x2="142.71" y2="20.6"/>
        <line id="Linha_159" data-name="Linha 159" class="cls-8" x1="-77.69" y1="188.68" x2="144.46" y2="-4.35"/>
        <line id="Linha_164" data-name="Linha 164" class="cls-7" x1="-76.01" y1="164.73" x2="146.14" y2="-28.3"/>
        <line id="Linha_169" data-name="Linha 169" class="cls-10" x1="-74.33" y1="140.77" x2="147.82" y2="-52.25"/>
        <line id="Linha_174" data-name="Linha 174" class="cls-9" x1="-72.58" y1="115.82" x2="149.57" y2="-77.2"/>
      </g>
    </g>
  </g>
  <g>
    <g class="cls-12">
      <circle class="cls-3" cx="14.15" cy="18.85" r="14.15"/>
    </g>
    <g>
      <circle class="cls-1" cx="18.85" cy="14.15" r="14.15"/>
      <g>
        <path class="cls-5" d="M14.81,9.89v-1.88h7.39v1.51l-2.08.36h-5.31ZM15.71,18.51l4.32-8.8,2.17-.18-4.21,8.99h-2.28Z"/>
        <path class="cls-5" d="M24.52,18.74c-.33,0-.61-.12-.85-.36-.24-.24-.35-.53-.35-.86s.12-.6.35-.84c.23-.24.52-.36.85-.36s.61.12.85.36c.24.24.35.52.35.84s-.12.62-.35.86c-.23.24-.52.36-.85.36Z"/>
      </g>
    </g>
  </g>
</svg>