<?xml version="1.0" encoding="UTF-8"?>
<svg id="Camada_1" data-name="Camada 1" xmlns="http://www.w3.org/2000/svg" xmlns:xlink="http://www.w3.org/1999/xlink" viewBox="0 0 10 10.14">
  <defs>
    <style>
      .cls-1 {
        mask: url(#mask);
      }

      .cls-2 {
        fill: url(#Gradiente_sem_nome_8);
      }

      .cls-2, .cls-3, .cls-4 {
        stroke-width: 0px;
      }

      .cls-3 {
        fill: #92acce;
      }

      .cls-4 {
        fill: #d9d9d9;
      }
    </style>
    <mask id="mask" x="-2.09" y="-.42" width="12.24" height="12.1" maskUnits="userSpaceOnUse">
      <g id="mask0_88_68" data-name="mask0 88 68">
        <rect class="cls-4" x="-5.12" y="3.96" width="9.55" height=".4" transform="translate(-4.17 2.48) rotate(-70.91)"/>
        <rect class="cls-4" x="-4.33" y="4.23" width="9.55" height=".4" transform="translate(-3.88 3.41) rotate(-70.91)"/>
        <rect class="cls-4" x="-3.53" y="4.5" width="9.55" height=".4" transform="translate(-3.6 4.34) rotate(-70.91)"/>
        <rect class="cls-4" x="-2.74" y="4.77" width="9.55" height=".4" transform="translate(-3.32 5.27) rotate(-70.91)"/>
        <rect class="cls-4" x="-1.94" y="5.03" width="9.55" height=".4" transform="translate(-3.04 6.2) rotate(-70.91)"/>
        <rect class="cls-4" x="-1.15" y="5.3" width="9.55" height=".4" transform="translate(-2.76 7.13) rotate(-70.91)"/>
        <rect class="cls-4" x="-.35" y="5.57" width="9.55" height=".4" transform="translate(-2.47 8.06) rotate(-70.91)"/>
        <rect class="cls-4" x=".44" y="5.84" width="9.55" height=".4" transform="translate(-2.19 8.99) rotate(-70.91)"/>
        <rect class="cls-4" x="1.24" y="6.1" width="9.55" height=".4" transform="translate(-1.91 9.92) rotate(-70.91)"/>
        <rect class="cls-4" x="2.03" y="6.37" width="9.55" height=".4" transform="translate(-1.63 10.85) rotate(-70.91)"/>
        <rect class="cls-4" x="2.82" y="6.64" width="9.55" height=".4" transform="translate(-1.35 11.79) rotate(-70.91)"/>
        <rect class="cls-4" x="3.62" y="6.91" width="9.55" height=".4" transform="translate(-1.06 12.72) rotate(-70.91)"/>
      </g>
    </mask>
    <linearGradient id="Gradiente_sem_nome_8" data-name="Gradiente sem nome 8" x1="0" y1="519.27" x2="8.62" y2="519.27" gradientTransform="translate(0 525.1) scale(1 -1)" gradientUnits="userSpaceOnUse">
      <stop offset=".33" stop-color="#92acce"/>
      <stop offset="1" stop-color="#207893"/>
    </linearGradient>
  </defs>
  <g class="cls-1">
    <circle class="cls-2" cx="4.31" cy="5.83" r="4.31"/>
  </g>
  <circle class="cls-3" cx="5.69" cy="4.31" r="4.31"/>
</svg>