<?xml version="1.0" encoding="UTF-8"?>
<svg id="Camada_2" data-name="Camada 2" xmlns="http://www.w3.org/2000/svg" viewBox="0 0 69.98 40.15">
  <defs>
    <style>
      .cls-1 {
        isolation: isolate;
      }
    </style>
  </defs>
  <g id="Camada_1-2" data-name="Camada 1">
    <g id="H3_Subtítulo_TÉCNICO_EM_ÓPTICA_font_size_28_Bold" data-name="H3 Subtítulo TÉCNICO EM ÓPTICA font size 28 Bold" class="cls-1">
      <g class="cls-1">
        <path d="M15.64,6.49c0,.83-.33,1.66-.98,2.48-.59.75-1.37,1.45-2.34,2.1-.43.29-.9.57-1.4.84-.5.27-1,.52-1.49.75-.5.23-.98.43-1.42.6-.45.17-.86.31-1.25.43-.27.08-.56.19-.87.32s-.67.3-1.08.51c-.18.1-.37.18-.57.24s-.38.11-.55.15c-.17.04-.33.07-.46.08s-.23.02-.29.02c-.39,0-.73-.11-1.01-.33-.28-.22-.46-.51-.55-.88-.07-.27-.11-.5-.14-.69s-.04-.33-.04-.43c0-.04,0-.1.02-.17.01-.07.03-.15.04-.23.01-.08.03-.16.04-.23.01-.08.02-.14.02-.19,0-.07,0-.16.01-.25s.02-.2.04-.3c.02-.1.03-.21.05-.31.02-.1.03-.2.04-.28.17-.87.32-1.76.44-2.66s.29-1.82.49-2.77c.02-.09.04-.19.07-.3.03-.11.05-.22.08-.34.03-.11.05-.22.07-.32s.03-.18.03-.25c0-.11-.02-.18-.07-.22s-.12-.08-.2-.14c-.09-.07-.17-.14-.23-.19-.07-.06-.12-.11-.16-.17-.04-.06-.07-.12-.09-.18s-.03-.14-.03-.23c0-.14.04-.3.11-.46.07-.17.18-.32.3-.46s.27-.26.44-.35.34-.14.52-.14c.14,0,.32,0,.54.02.22.02.44.04.66.06.22.02.42.04.6.06.18.02.29.02.35.02.48,0,1.01-.02,1.61-.06s1.19-.06,1.78-.06c.85,0,1.65.08,2.39.25s1.42.42,2.03.78c.14.08.29.17.45.28.16.11.33.25.5.41.17.16.34.35.5.57s.32.49.46.8c.17.36.3.7.4,1.02.09.32.14.59.14.82ZM13.26,6.49c0-.43-.08-.8-.25-1.1s-.38-.56-.65-.77c-.27-.21-.58-.37-.92-.49-.35-.12-.7-.21-1.05-.26-.44-.07-.87-.13-1.31-.16-.44-.04-.88-.05-1.33-.05-.19,0-.39,0-.61.02-.22.02-.44.04-.68.06s-.47.05-.71.07c-.24.02-.47.04-.7.04-.11.56-.22,1.12-.33,1.67s-.21,1.07-.3,1.55c-.09.48-.17.9-.23,1.26-.07.36-.11.63-.13.8-.05.37-.1.76-.15,1.16s-.07.77-.07,1.1c0,.16,0,.31.02.43.01.12.04.24.07.35.6-.1,1.23-.27,1.89-.49s1.4-.47,2.22-.75c.43-.14.83-.29,1.22-.44s.73-.3,1.04-.44c.31-.15.58-.29.81-.43.23-.14.42-.27.55-.4.05-.04.12-.11.21-.22.09-.11.2-.24.32-.4.12-.16.24-.33.37-.51s.24-.37.35-.57c.1-.19.19-.38.26-.56s.1-.34.1-.48Z"/>
        <path d="M31.69,7.14c0,.12-.02.24-.07.37s-.12.26-.2.38c-.08.12-.18.23-.29.34s-.22.19-.33.26c-.23.16-.57.29-1.02.41-.45.12-.98.18-1.62.18-.18,0-.38-.01-.58-.04s-.41-.06-.62-.11c-.21-.05-.42-.1-.62-.17s-.4-.15-.59-.23c.04.06.07.14.1.24.03.1.04.21.05.32s.02.22.02.32c0,.1,0,.18,0,.24,0,.42-.07.83-.22,1.25s-.34.81-.58,1.19c-.24.38-.51.73-.82,1.05-.31.32-.62.6-.94.83-.25.19-.54.35-.84.49-.31.14-.63.25-.98.34s-.69.16-1.05.21-.73.07-1.1.07c-.31,0-.6-.07-.88-.22-.28-.15-.53-.34-.74-.58-.21-.24-.38-.51-.51-.81s-.19-.6-.19-.89c0-.52.07-1.02.21-1.5.14-.48.33-.95.56-1.4s.51-.89.82-1.32.64-.86.99-1.28c.2-.25.43-.49.69-.72.26-.23.54-.44.83-.63.29-.19.58-.33.88-.44.3-.11.58-.17.85-.17.23,0,.42.03.59.08s.32.13.46.22c.14.09.27.21.41.35.13.14.27.29.41.46l.21.22c.05.05.19.13.42.23.23.1.51.21.83.31.32.1.65.19,1.01.27s.67.12.96.12.57,0,.83,0c.26,0,.52-.03.79-.07s.54-.11.83-.2c.29-.09.61-.21.96-.37.03.06.06.13.07.22.02.09.02.16.02.21ZM24.11,9.34c0-.16,0-.33-.02-.51-.02-.18-.05-.34-.1-.49-.05-.15-.12-.29-.21-.4-.09-.11-.21-.19-.36-.23-.23-.06-.41-.12-.56-.19-.14-.07-.26-.13-.34-.19-.08-.06-.14-.11-.18-.15-.03-.04-.06-.06-.07-.06-.05,0-.13.04-.22.13-.09.09-.2.2-.31.34-.11.14-.23.28-.35.44-.12.16-.24.3-.35.44-.14.17-.27.33-.39.49-.12.16-.24.33-.35.5-.11.17-.23.35-.34.54-.11.19-.22.4-.34.62-.1.21-.18.46-.23.77-.05.3-.08.59-.08.85,0,.11.01.22.04.34.03.11.06.22.12.31.05.09.12.17.21.22.08.06.19.09.31.09.3,0,.55-.01.75-.04.2-.03.39-.08.57-.16s.35-.18.53-.3c.18-.13.4-.28.65-.47.12-.09.23-.2.35-.32s.23-.25.35-.39.23-.29.34-.44c.11-.15.21-.3.3-.44.05-.08.1-.18.13-.31.04-.13.06-.26.09-.39.02-.13.04-.25.05-.36s.01-.19.01-.23h0Z"/>
        <path d="M40.22,9.02c0,.15-.06.34-.17.57-.11.23-.27.49-.47.77-.2.28-.43.59-.71.91s-.57.65-.89.99c-.35.37-.72.74-1.12,1.09-.4.36-.83.7-1.29,1.04-.45.33-.89.58-1.33.76-.44.18-.85.27-1.24.27-.46,0-.85-.08-1.19-.23-.34-.15-.62-.36-.86-.62-.24-.26-.43-.57-.58-.91-.15-.34-.27-.7-.36-1.08s-.15-.77-.18-1.16c-.03-.39-.05-.76-.05-1.11,0-.14,0-.34.03-.62s.05-.56.08-.86c.04-.3.07-.6.12-.88.04-.28.09-.51.13-.67.1-.32.32-.62.67-.91.34-.27.72-.41,1.13-.41s.63.25.63.76c0,.24-.02.5-.06.77-.04.27-.09.54-.14.8-.08.48-.14.9-.18,1.28-.03.38-.05.72-.05,1.01,0,.33.02.65.06.97s.1.59.17.83c.07.24.17.44.28.59.11.15.25.22.41.22.2,0,.4-.02.61-.05.21-.04.46-.13.75-.29.56-.31,1.16-.72,1.79-1.24.22-.18.47-.4.76-.65s.56-.51.84-.77c.28-.26.54-.52.79-.78.25-.25.44-.47.59-.65.02-.03.05-.07.08-.12.04-.05.08-.1.12-.15.05-.05.1-.1.15-.13.06-.04.11-.05.16-.05.1,0,.18.01.23.04s.1.12.16.27c.07.16.11.3.11.41ZM34.15.99c0,.21-.03.42-.1.61-.07.19-.16.37-.28.54-.25.35-.63.52-1.14.52-.18,0-.37-.02-.56-.05-.19-.03-.36-.08-.51-.14-.15-.06-.27-.13-.37-.22s-.15-.2-.15-.31c0-.2.05-.42.16-.64.1-.22.24-.43.41-.62s.35-.35.55-.48c.2-.13.39-.19.57-.19.23,0,.43.01.61.04s.32.08.44.15c.12.07.21.17.28.3.06.13.1.29.1.49Z"/>
        <path d="M49.03,8.21c0,.18-.08.4-.23.66s-.35.54-.59.83c-.24.29-.5.59-.8.89s-.58.59-.85.85c-.16.16-.4.37-.72.65-.32.28-.68.58-1.07.91-.39.33-.81.68-1.24,1.03s-.83.69-1.22.99-.72.57-1.01.8-.5.38-.62.47c-.4.27-.78.47-1.13.62-.35.14-.66.21-.93.21-.23,0-.42-.02-.58-.06s-.28-.1-.38-.17-.17-.15-.21-.23c-.05-.09-.07-.18-.07-.27,0-.23.04-.43.13-.61.08-.18.22-.35.4-.5.18-.16.41-.31.68-.45.28-.15.6-.3.98-.45.25-.1.47-.19.67-.28.2-.09.37-.19.52-.3s.26-.23.34-.37.12-.3.12-.5c0-.05-.03-.13-.09-.25-.06-.12-.14-.27-.24-.43s-.21-.34-.33-.53c-.12-.19-.24-.38-.36-.57s-.23-.36-.33-.52c-.1-.16-.19-.3-.24-.41-.27-.49-.4-1-.4-1.51,0-.22.02-.45.06-.68s.1-.47.2-.71c.08-.3.22-.59.42-.88.19-.29.41-.54.64-.77s.47-.41.71-.54c.24-.14.44-.21.62-.21.23,0,.43.02.58.06.15.04.27.11.35.2.08.09.14.2.17.33.03.13.05.29.05.48,0,.16-.04.31-.12.46s-.17.29-.28.42c-.11.13-.23.25-.35.36-.12.11-.23.21-.32.29-.14.12-.27.24-.39.35-.12.11-.22.2-.29.28,0,.41.11.79.3,1.13.1.17.22.38.37.62s.3.5.45.76c.15.26.3.5.43.74s.24.42.32.56c.1-.05.24-.13.42-.26s.4-.28.65-.46c.25-.18.51-.38.8-.6s.57-.45.85-.68c.29-.23.56-.47.83-.7.27-.23.51-.45.72-.66.18-.18.33-.33.45-.45.12-.13.22-.23.31-.31s.16-.14.23-.19c.06-.04.14-.06.21-.06.08,0,.15.03.21.09.06.06.1.13.13.21.03.07.06.15.07.21.01.06.02.1.02.12Z"/>
        <path d="M64.62,9.68c0,.3-.08.53-.25.68-.17.15-.46.23-.88.23-.07,0-.15-.01-.27-.04-.11-.03-.23-.05-.36-.08-.12-.03-.24-.06-.35-.08s-.18-.04-.23-.04c-.04,0-.09,0-.17,0-.07,0-.15.01-.23.02-.08,0-.17.01-.26.02s-.16,0-.23,0c-.08,0-.22,0-.4-.02-.18-.01-.36-.03-.56-.04-.19-.01-.37-.03-.55-.04-.17-.01-.29-.02-.37-.02-.12,0-.3,0-.54.02-.24.01-.49.03-.76.04-.27.01-.52.03-.77.04s-.43.02-.55.02c-.21,0-.4-.01-.57-.03-.17-.02-.32-.06-.44-.12-.12-.06-.22-.14-.28-.25-.07-.11-.1-.25-.1-.42s.05-.31.15-.43c.1-.12.23-.21.39-.29s.33-.14.52-.19c.19-.05.37-.08.55-.1.18-.02.34-.04.49-.04s.25,0,.32,0c.08,0,.19.01.33.03.14.02.27.05.38.07.45,0,.84,0,1.18,0,.34,0,.63-.01.88-.02s.48-.02.66-.04c.19-.02.36-.03.51-.05.27-.04.56-.06.87-.06.09,0,.21.02.35.06.14.04.29.09.44.14.15.06.29.11.43.18s.24.12.31.16c.05.03.09.07.13.12.04.06.08.12.11.19s.05.14.07.21c.02.07.02.14.02.2Z"/>
        <path d="M15.95,27.97s-.01.11-.04.2c-.03.09-.08.2-.15.32-.07.13-.18.27-.32.43-.14.16-.32.33-.55.52-.21.18-.49.37-.83.59s-.72.44-1.14.67-.86.47-1.33.71-.93.48-1.4.71c-.46.23-.91.45-1.35.65-.44.21-.83.39-1.18.56-.23.1-.45.23-.68.38s-.44.29-.65.42c-.21.13-.42.25-.62.34-.2.09-.39.14-.56.14-.19,0-.37-.02-.54-.07-.17-.05-.33-.12-.46-.21-.13-.09-.24-.22-.32-.37s-.12-.33-.12-.55c0-.18.06-.33.19-.45.12-.13.27-.24.45-.33.18-.09.37-.18.57-.24.2-.07.37-.13.51-.18.2-.07.38-.13.55-.18.17-.05.31-.1.42-.16.18-.1.34-.22.5-.38s.3-.32.44-.51c.14-.19.27-.38.4-.59.12-.21.24-.4.35-.59.07-.12.13-.25.19-.4.05-.15.1-.3.14-.45s.07-.29.09-.42.03-.25.03-.35c0-.35-.06-.62-.18-.83s-.26-.31-.44-.31c-.14,0-.31.05-.51.16s-.39.24-.6.39c-.2.15-.39.31-.58.48-.18.17-.33.31-.44.43-.26.28-.54.59-.83.94-.29.35-.57.71-.83,1.08s-.5.76-.72,1.14c-.22.39-.39.77-.51,1.14-.08.22-.14.48-.18.76s-.07.59-.09.9c-.02.31-.04.63-.05.95-.01.32-.03.63-.05.93-.03.49-.05.98-.05,1.46,0,.48-.04.93-.12,1.33-.03.13-.07.25-.14.37-.07.12-.15.22-.25.31-.1.09-.22.16-.36.22s-.29.08-.46.08c-.1,0-.22-.02-.36-.07-.13-.05-.26-.12-.38-.21s-.22-.19-.3-.3c-.08-.11-.12-.24-.12-.37s0-.3.02-.49c.01-.19.03-.4.05-.62.02-.22.05-.44.07-.66.03-.22.05-.44.08-.63.03-.2.05-.38.07-.53s.04-.27.05-.35c.08-.62.16-1.32.23-2.09.07-.78.13-1.58.17-2.4.01-.21.02-.47.03-.78s.02-.63.03-.94.02-.61.03-.87.02-.45.02-.57c.06-.68.19-1.19.4-1.53.21-.34.51-.51.91-.51.16,0,.31.03.45.1.14.07.27.16.38.27s.19.24.26.38c.06.14.1.27.1.41,0,.12-.01.28-.04.48-.03.2-.06.4-.09.62-.04.21-.07.43-.12.63-.04.21-.08.38-.11.53.14-.23.28-.47.44-.72.16-.25.32-.5.48-.75.16-.24.33-.47.49-.68.16-.21.32-.39.47-.53.27-.27.55-.52.83-.75.28-.23.57-.43.86-.6s.6-.3.92-.4c.32-.1.65-.15,1.01-.15.27,0,.55.07.82.2.27.13.51.33.73.58s.39.55.53.91.21.76.21,1.21c0,.22-.03.46-.1.72s-.16.51-.28.77-.26.5-.42.73c-.16.23-.34.44-.54.62.41-.21.84-.44,1.3-.68.46-.25.91-.5,1.37-.77s.91-.54,1.36-.81c.45-.27.86-.53,1.24-.77.19-.12.35-.23.49-.31.14-.08.28-.12.43-.12.11,0,.2.03.26.09.06.06.09.15.09.26,0,.05,0,.1,0,.16,0,.05,0,.1,0,.14Z"/>
        <path d="M27.76,27.14c0,.12-.02.24-.07.37s-.12.26-.2.38c-.08.12-.18.23-.29.34s-.22.19-.33.26c-.23.16-.57.29-1.02.41-.45.12-.98.18-1.62.18-.18,0-.38-.01-.58-.04s-.41-.06-.62-.11c-.21-.05-.42-.1-.62-.17s-.4-.15-.59-.23c.04.06.07.14.1.24.03.1.04.21.05.32s.02.22.02.32c0,.1,0,.18,0,.24,0,.42-.07.83-.22,1.25s-.34.81-.58,1.19c-.24.38-.51.73-.82,1.05-.31.32-.62.6-.94.83-.25.19-.54.35-.84.49-.31.14-.63.25-.98.34s-.69.16-1.05.21-.73.07-1.1.07c-.31,0-.6-.07-.88-.22-.28-.15-.53-.34-.74-.58-.21-.24-.38-.51-.51-.81s-.19-.6-.19-.89c0-.52.07-1.02.21-1.5.14-.48.33-.95.56-1.4s.51-.89.82-1.32.64-.86.99-1.28c.2-.25.43-.49.69-.72.26-.23.54-.44.83-.63.29-.19.58-.33.88-.44.3-.11.58-.17.85-.17.23,0,.42.03.59.08s.32.13.46.22c.14.09.27.21.41.35.13.14.27.29.41.46l.21.22c.05.05.19.13.42.23.23.1.51.21.83.31.32.1.65.19,1.01.27s.67.12.96.12.57,0,.83,0c.26,0,.52-.03.79-.07s.54-.11.83-.2c.29-.09.61-.21.96-.37.03.06.06.13.07.22.02.09.02.16.02.21ZM20.19,29.34c0-.16,0-.33-.02-.51-.02-.18-.05-.34-.1-.49-.05-.15-.12-.29-.21-.4-.09-.11-.21-.19-.36-.23-.23-.06-.41-.12-.56-.19-.14-.07-.26-.13-.34-.19-.08-.06-.14-.11-.18-.15-.03-.04-.06-.06-.07-.06-.05,0-.13.04-.22.13-.09.09-.2.2-.31.34-.11.14-.23.28-.35.44-.12.16-.24.3-.35.44-.14.17-.27.33-.39.49-.12.16-.24.33-.35.5-.11.17-.23.35-.34.54-.11.19-.22.4-.34.62-.1.21-.18.46-.23.77-.05.3-.08.59-.08.85,0,.11.01.22.04.34.03.11.06.22.12.31.05.09.12.17.21.22.08.06.19.09.31.09.3,0,.55-.01.75-.04.2-.03.39-.08.57-.16s.35-.18.53-.3c.18-.13.4-.28.65-.47.12-.09.23-.2.35-.32s.23-.25.35-.39.23-.29.34-.44c.11-.15.21-.3.3-.44.05-.08.1-.18.13-.31.04-.13.06-.26.09-.39.02-.13.04-.25.05-.36s.01-.19.01-.23h0Z"/>
        <path d="M42.49,28.29c0,.12-.02.26-.07.41-.05.15-.1.29-.17.43s-.14.28-.22.41c-.08.13-.16.23-.23.32-.21.26-.44.54-.7.83-.26.29-.53.58-.81.87-.28.29-.57.56-.86.83s-.59.49-.88.69c-.23.16-.45.3-.66.43-.21.13-.43.25-.65.36s-.46.19-.71.24c-.25.06-.53.09-.83.09-.49,0-.89-.1-1.22-.29s-.58-.46-.79-.78c-.2-.33-.36-.7-.46-1.12s-.19-.86-.25-1.31c-.08-.62-.18-1.11-.28-1.47-.1-.36-.23-.54-.38-.54-.13,0-.26.03-.38.09-.12.06-.28.19-.46.4s-.42.5-.7.88-.65.9-1.11,1.55c-.16.22-.35.47-.57.74s-.46.54-.71.79c-.25.25-.49.47-.74.66s-.47.32-.68.4c-.82-.18-1.23-.97-1.23-2.35,0-.35.04-.87.12-1.55.04-.31.08-.63.13-.97s.11-.68.19-1.02c.07-.34.16-.68.27-1.01.1-.33.22-.63.36-.91.08-.16.17-.28.26-.37s.2-.16.3-.21c.1-.05.21-.07.32-.09.11-.01.22-.02.33-.02.1,0,.19.02.28.07.09.05.17.12.24.21.07.09.13.2.17.33.04.13.06.28.06.45,0,.15-.01.29-.04.43-.03.14-.06.28-.11.42-.05.15-.09.3-.14.46s-.1.35-.15.56c-.03.14-.08.31-.14.53-.06.21-.12.44-.19.67-.06.23-.12.46-.17.68-.05.22-.08.41-.1.56.12-.14.25-.31.41-.51.15-.21.31-.43.48-.66.17-.24.34-.48.52-.73s.35-.48.53-.7c.23-.29.45-.56.67-.81.22-.25.45-.47.7-.66s.51-.33.8-.44c.29-.11.61-.16.97-.16.42,0,.77.09,1.04.26.27.17.48.41.64.72.16.31.28.67.36,1.09s.14.88.19,1.37c.03.25.06.51.1.78.04.27.11.51.19.73.08.22.2.4.33.54s.31.21.51.21c.3,0,.63-.08.98-.24.35-.16.73-.38,1.12-.66s.79-.61,1.2-.98.82-.77,1.23-1.19c.13-.14.26-.27.38-.41.12-.13.24-.25.35-.36.11-.11.22-.19.32-.26.1-.06.21-.1.31-.1.04,0,.08,0,.14.01.05,0,.1.03.15.06.05.03.08.07.11.12s.04.12.04.21Z"/>
        <path d="M51.05,26.75c0,.12-.03.24-.08.34-.05.1-.12.19-.2.27s-.16.15-.26.22c-.09.06-.18.12-.27.18-.29.13-.61.24-.94.34-.34.1-.67.18-1,.25s-.66.13-.97.17c-.32.05-.61.08-.87.12-.18.02-.37.04-.57.06-.2.02-.39.04-.58.06-.19.02-.36.04-.53.06-.16.02-.3.04-.42.06-.14.55-.28,1.08-.41,1.59s-.24.99-.33,1.44c-.01.08-.03.19-.06.32-.03.14-.05.29-.08.45s-.06.33-.08.51c-.03.18-.05.35-.07.51-.02.16-.04.3-.05.43-.01.13-.02.22-.02.29,0,.23.04.39.11.48.07.09.14.17.21.23.13.1.24.21.33.3s.13.23.13.4c0,.13-.05.25-.14.37-.09.11-.21.21-.34.3s-.28.15-.44.21-.3.08-.44.08c-.23,0-.45-.06-.63-.17-.19-.11-.35-.27-.49-.45s-.24-.4-.31-.64c-.07-.24-.11-.49-.11-.74,0-.43.03-.9.1-1.42.06-.51.16-1.03.28-1.55.05-.23.11-.48.17-.75.06-.27.12-.53.17-.78.05-.25.1-.47.14-.66s.06-.32.08-.39c-.14,0-.33.03-.59.06-.26.03-.56.05-.91.05-.29,0-.54-.02-.74-.05-.2-.04-.37-.1-.5-.2-.13-.1-.22-.23-.28-.4s-.09-.39-.09-.66c0-.16.06-.28.17-.38s.25-.17.41-.21c.16-.05.33-.08.51-.1s.33-.02.47-.02c.06,0,.18,0,.34-.02.16-.02.34-.03.53-.05.19-.02.38-.03.56-.05.18-.02.32-.02.42-.02.03,0,.07-.06.12-.19s.1-.28.15-.48c.05-.2.11-.41.16-.65.06-.24.11-.47.16-.7.05-.23.1-.44.14-.64.04-.2.08-.35.1-.46.07-.27.13-.58.18-.92s.12-.66.22-.96.24-.56.42-.76c.18-.21.43-.31.77-.31.35,0,.61.08.78.23.17.15.25.41.25.76,0,.16-.01.35-.04.58s-.08.44-.15.66c-.16.5-.29.97-.4,1.41-.11.44-.2.82-.27,1.14s-.13.67-.19,1.03c.27,0,.52,0,.77,0s.49,0,.75-.02.52-.02.8-.04c.28-.02.58-.05.9-.09.38-.05.7-.09.96-.14.26-.05.49-.09.69-.13.2-.04.38-.07.54-.1.16-.03.33-.04.51-.04.09,0,.18.02.26.07.08.05.12.16.12.35Z"/>
        <path d="M61.95,27.14c0,.12-.02.24-.07.37s-.12.26-.2.38c-.08.12-.18.23-.29.34s-.22.19-.33.26c-.23.16-.57.29-1.02.41-.45.12-.98.18-1.62.18-.18,0-.38-.01-.58-.04s-.41-.06-.62-.11c-.21-.05-.42-.1-.62-.17s-.4-.15-.59-.23c.04.06.07.14.1.24.03.1.04.21.05.32s.02.22.02.32c0,.1,0,.18,0,.24,0,.42-.07.83-.22,1.25s-.34.81-.58,1.19c-.24.38-.51.73-.82,1.05-.31.32-.62.6-.94.83-.25.19-.54.35-.84.49-.31.14-.63.25-.98.34s-.69.16-1.05.21-.73.07-1.1.07c-.31,0-.6-.07-.88-.22-.28-.15-.53-.34-.74-.58-.21-.24-.38-.51-.51-.81s-.19-.6-.19-.89c0-.52.07-1.02.21-1.5.14-.48.33-.95.56-1.4s.51-.89.82-1.32.64-.86.99-1.28c.2-.25.43-.49.69-.72.26-.23.54-.44.83-.63.29-.19.58-.33.88-.44.3-.11.58-.17.85-.17.23,0,.42.03.59.08s.32.13.46.22c.14.09.27.21.41.35.13.14.27.29.41.46l.21.22c.05.05.19.13.42.23.23.1.51.21.83.31.32.1.65.19,1.01.27s.67.12.96.12.57,0,.83,0c.26,0,.52-.03.79-.07s.54-.11.83-.2c.29-.09.61-.21.96-.37.03.06.06.13.07.22.02.09.02.16.02.21ZM54.38,29.34c0-.16,0-.33-.02-.51-.02-.18-.05-.34-.1-.49-.05-.15-.12-.29-.21-.4-.09-.11-.21-.19-.36-.23-.23-.06-.41-.12-.56-.19-.14-.07-.26-.13-.34-.19-.08-.06-.14-.11-.18-.15-.03-.04-.06-.06-.07-.06-.05,0-.13.04-.22.13-.09.09-.2.2-.31.34-.11.14-.23.28-.35.44-.12.16-.24.3-.35.44-.14.17-.27.33-.39.49-.12.16-.24.33-.35.5-.11.17-.23.35-.34.54-.11.19-.22.4-.34.62-.1.21-.18.46-.23.77-.05.3-.08.59-.08.85,0,.11.01.22.04.34.03.11.06.22.12.31.05.09.12.17.21.22.08.06.19.09.31.09.3,0,.55-.01.75-.04.2-.03.39-.08.57-.16s.35-.18.53-.3c.18-.13.4-.28.65-.47.12-.09.23-.2.35-.32s.23-.25.35-.39.23-.29.34-.44c.11-.15.21-.3.3-.44.05-.08.1-.18.13-.31.04-.13.06-.26.09-.39.02-.13.04-.25.05-.36s.01-.19.01-.23h0Z"/>
        <path d="M69.98,28.21c0,.18-.08.4-.23.66s-.35.54-.59.83c-.24.29-.5.59-.8.89s-.58.59-.85.85c-.16.16-.4.37-.72.65-.32.28-.68.58-1.07.91-.39.33-.81.68-1.24,1.03s-.83.69-1.22.99-.72.57-1.01.8-.5.38-.62.47c-.4.27-.78.47-1.13.62-.35.14-.66.21-.93.21-.23,0-.42-.02-.58-.06s-.28-.1-.38-.17-.17-.15-.21-.23c-.05-.09-.07-.18-.07-.27,0-.23.04-.43.13-.61.08-.18.22-.35.4-.5.18-.16.41-.31.68-.45.28-.15.6-.3.98-.45.25-.1.47-.19.67-.28.2-.09.37-.19.52-.3s.26-.23.34-.37.12-.3.12-.5c0-.05-.03-.13-.09-.25-.06-.12-.14-.27-.24-.43s-.21-.34-.33-.53c-.12-.19-.24-.38-.36-.57s-.23-.36-.33-.52c-.1-.16-.19-.3-.24-.41-.27-.49-.4-1-.4-1.51,0-.22.02-.45.06-.68s.1-.47.2-.71c.08-.3.22-.59.42-.88.19-.29.41-.54.64-.77s.47-.41.71-.54c.24-.14.44-.21.62-.21.23,0,.43.02.58.06.15.04.27.11.35.2.08.09.14.2.17.33.03.13.05.29.05.48,0,.16-.04.31-.12.46s-.17.29-.28.42c-.11.13-.23.25-.35.36-.12.11-.23.21-.32.29-.14.12-.27.24-.39.35-.12.11-.22.2-.29.28,0,.41.11.79.3,1.13.1.17.22.38.37.62s.3.5.45.76c.15.26.3.5.43.74s.24.42.32.56c.1-.05.24-.13.42-.26s.4-.28.65-.46c.25-.18.51-.38.8-.6s.57-.45.85-.68c.29-.23.56-.47.83-.7.27-.23.51-.45.72-.66.18-.18.33-.33.45-.45.12-.13.22-.23.31-.31s.16-.14.23-.19c.06-.04.14-.06.21-.06.08,0,.15.03.21.09.06.06.1.13.13.21.03.07.06.15.07.21.01.06.02.1.02.12Z"/>
      </g>
    </g>
  </g>
</svg>