<?xml version="1.0" encoding="UTF-8"?>
<svg id="Camada_2" data-name="Camada 2" xmlns="http://www.w3.org/2000/svg" viewBox="0 0 61.63 18.31">
  <defs>
    <style>
      .cls-1 {
        isolation: isolate;
      }
    </style>
  </defs>
  <g id="Camada_1-2" data-name="Camada 1">
    <g id="H3_Subtítulo_TÉCNICO_EM_ÓPTICA_font_size_28_Bold" data-name="H3 Subtítulo TÉCNICO EM ÓPTICA font size 28 Bold" class="cls-1">
      <g class="cls-1">
        <path d="M11.6,2.37c-.09.07-.2.12-.33.14-.13.02-.28.03-.44.03-.32,0-.62,0-.9.02s-.49.02-.63.02c-.18,0-.42.01-.73.04-.3.03-.63.06-.99.11-.35.04-.72.1-1.08.16s-.71.12-1.03.19c-.32.06-.59.13-.82.2s-.38.13-.45.19c-.04.07-.11.28-.21.62-.09.34-.19.76-.28,1.25s-.18,1.02-.25,1.59c-.07.57-.11,1.12-.11,1.66.4-.08.81-.17,1.22-.27.42-.1.87-.19,1.37-.28.27-.04.55-.11.86-.2.31-.09.62-.17.93-.26.31-.09.61-.16.9-.23.29-.07.56-.1.8-.1.26,0,.48,0,.66.03.18.02.32.06.43.11.11.06.19.15.24.27.05.12.07.28.07.49,0,.19-.05.37-.14.55-.09.18-.21.34-.35.49-.1.11-.29.21-.57.3-.28.09-.58.18-.9.25-.32.08-.63.14-.92.19-.29.05-.5.09-.63.11-.51.09-1.01.18-1.5.29-.49.1-.94.21-1.34.31-.4.1-.72.2-.98.29-.26.09-.4.16-.43.22-.05.12-.09.27-.12.47-.03.19-.06.41-.08.66-.02.24-.04.5-.04.76,0,.27-.01.53-.01.79,0,.43,0,.78,0,1.07,0,.29,0,.58,0,.88,0,.18-.01.35-.03.52-.02.17-.07.31-.15.44-.08.13-.19.23-.34.3-.15.08-.35.11-.61.11h-.11s-.08,0-.11-.01c-.04,0-.14-.04-.3-.1-.16-.06-.33-.15-.5-.28-.17-.13-.33-.28-.46-.47-.13-.19-.2-.42-.2-.68,0-.84.05-1.66.14-2.45.09-.8.18-1.53.25-2.18,0-.05.03-.19.06-.42.03-.23.07-.52.12-.87.05-.35.11-.74.17-1.18.06-.44.13-.88.19-1.33.07-.45.13-.9.19-1.33.06-.44.12-.83.17-1.19.05-.35.09-.65.12-.88.03-.23.04-.38.04-.43,0-.09-.01-.19-.04-.29-.03-.1-.06-.2-.1-.3-.04-.1-.07-.2-.1-.31-.03-.1-.04-.21-.04-.32,0-.14.05-.28.14-.43.09-.15.2-.29.34-.42s.28-.23.43-.31c.16-.08.3-.12.43-.12.3,0,.55.03.76.08.21.05.41.08.6.08.27,0,.6-.03.99-.1.39-.06.83-.15,1.32-.25.43-.09.85-.17,1.28-.24.43-.08.84-.14,1.25-.21.41-.06.8-.11,1.18-.15.38-.04.73-.05,1.05-.05.12,0,.27.03.44.09.17.06.34.14.5.24.16.1.3.21.41.33.11.12.17.24.17.36,0,.22-.06.44-.18.67-.12.23-.35.46-.69.69h.01Z"/>
        <path d="M23.64,7.58c0,.06-.01.15-.04.26-.03.11-.07.22-.13.33-.06.11-.13.2-.22.28-.09.08-.2.12-.33.13-.03,0-.09,0-.18,0-.09,0-.2,0-.3-.02-.11,0-.21-.01-.3-.02-.09,0-.16,0-.21,0-1.21.06-2.25.5-3.13,1.3-.2.18-.41.39-.62.64-.21.25-.42.51-.63.81-.21.29-.4.6-.59.94-.19.33-.36.68-.51,1.04-.12.3-.24.6-.36.92-.12.31-.22.64-.3.99-.05.19-.09.35-.11.49-.03.14-.07.31-.12.49-.04.12-.1.21-.18.3-.09.08-.19.15-.3.21-.12.05-.24.1-.36.12-.13.03-.25.05-.37.05-.46,0-.78-.21-.95-.63-.17-.42-.26-1.04-.26-1.87,0-.19,0-.36,0-.53,0-.17.01-.33.02-.5.01-.17.02-.35.04-.53.01-.18.03-.39.05-.62.03-.34.07-.74.12-1.21.05-.47.1-.94.16-1.42.06-.48.12-.94.19-1.39.07-.45.14-.83.21-1.14.09-.38.23-.68.44-.9.21-.22.51-.32.9-.32.12,0,.23.03.35.09.12.06.23.14.32.22.09.09.17.18.24.28.07.1.1.19.11.27v.19c.01.2,0,.44-.04.72-.04.27-.08.57-.15.87-.06.31-.13.62-.2.93-.07.31-.14.61-.21.9-.07.29-.13.55-.18.79-.05.24-.1.44-.12.6.25-.53.52-1.05.81-1.54.29-.49.6-.95.93-1.38.33-.42.69-.8,1.07-1.13.38-.33.79-.6,1.24-.8.35-.16.66-.28.95-.36.29-.08.55-.12.78-.12.27,0,.56.03.85.09.29.06.56.14.8.25.24.11.44.25.6.41.16.16.24.34.24.54Z"/>
        <path d="M40.56,8.97c0,.09-.02.19-.05.31-.03.12-.07.24-.12.36-.05.12-.11.23-.17.35-.06.11-.12.21-.18.29-.04.05-.09.12-.17.21-.08.09-.17.19-.27.3-.1.11-.21.23-.34.36-.13.13-.25.26-.38.39-.42.39-.84.77-1.27,1.15-.43.38-.88.71-1.35,1.01-.47.29-.96.53-1.47.71-.51.18-1.06.27-1.64.27-.25,0-.49-.05-.75-.16-.25-.11-.49-.26-.7-.44-.22-.19-.41-.41-.57-.68-.16-.26-.28-.55-.34-.85-.13.22-.3.45-.51.7-.21.25-.44.5-.69.74-.25.25-.51.48-.77.7-.27.22-.52.41-.75.57-.16.11-.35.22-.58.34-.23.12-.47.22-.72.32-.25.1-.51.18-.76.24-.26.06-.49.09-.71.09-.35,0-.65-.1-.91-.3-.26-.2-.47-.44-.64-.73-.17-.29-.3-.6-.38-.92-.08-.33-.12-.62-.12-.88,0-.48.07-.96.21-1.46s.32-.98.54-1.45c.22-.47.47-.92.74-1.34s.54-.81.8-1.14c.27-.35.6-.69.99-1.04.38-.34.78-.65,1.2-.92.42-.27.83-.49,1.24-.66.41-.17.77-.25,1.09-.25.17,0,.35,0,.54.02.18.01.37.03.55.05.18.02.35.05.52.1.17.04.31.1.44.16.09.06.18.16.29.31.1.15.2.31.29.48.09.17.17.34.23.5.07.17.1.3.1.39,0,.2-.03.44-.09.72-.06.28-.13.57-.21.87s-.15.61-.21.93c-.06.32-.1.62-.1.91,0,.2.03.41.09.62.06.21.14.4.25.57s.24.31.39.42c.15.11.32.16.51.16.43,0,.85-.08,1.27-.24.42-.16.84-.38,1.26-.66.42-.28.84-.61,1.26-.99s.84-.79,1.27-1.23c.01,0,.07-.05.17-.16.1-.11.22-.23.36-.36s.29-.25.44-.36c.16-.11.29-.16.41-.16.21,0,.35.06.41.18.07.12.1.31.1.56ZM30.71,7.86c0-.07-.01-.14-.04-.23-.03-.09-.06-.17-.1-.24-.04-.08-.09-.14-.14-.19-.05-.05-.1-.08-.14-.08-.48,0-.91.13-1.31.38-.39.26-.8.6-1.23,1.05-.24.24-.49.56-.76.96-.27.4-.52.83-.75,1.29-.23.46-.42.91-.57,1.37-.15.46-.23.86-.23,1.2,0,.09,0,.17.02.25s.03.16.06.22c.03.06.08.12.14.16.06.04.13.06.23.06.27,0,.59-.09.93-.27.35-.18.7-.41,1.05-.69.35-.29.69-.61,1.02-.99.33-.37.6-.75.83-1.14.27-.48.51-.98.7-1.5.19-.52.29-1.06.29-1.62Z"/>
        <path d="M50.18,8.41c0,.2-.09.44-.26.73s-.39.6-.66.93c-.26.33-.56.66-.88.99-.33.34-.64.65-.94.95-.18.17-.45.41-.8.72-.35.31-.75.65-1.19,1.01-.44.37-.89.75-1.37,1.14-.48.39-.93.76-1.35,1.1-.42.34-.8.64-1.12.89s-.56.43-.69.52c-.45.3-.87.52-1.25.68-.39.16-.73.24-1.03.24-.25,0-.47-.02-.64-.07s-.31-.11-.42-.18-.19-.16-.24-.26c-.05-.1-.08-.2-.08-.3,0-.25.05-.48.14-.68.09-.2.24-.38.44-.56.2-.17.45-.34.76-.5.31-.16.67-.33,1.09-.5.27-.11.52-.21.74-.31.22-.1.41-.21.57-.33.16-.12.29-.25.37-.41.09-.15.13-.34.13-.55,0-.05-.03-.14-.1-.28-.07-.14-.16-.3-.27-.48-.11-.18-.23-.38-.36-.59-.13-.21-.27-.42-.4-.63-.13-.21-.25-.4-.37-.58-.12-.18-.21-.33-.27-.46-.3-.55-.44-1.11-.44-1.68,0-.25.02-.5.07-.76.04-.26.12-.52.22-.79.09-.33.25-.66.46-.98.21-.32.45-.6.71-.85.26-.25.52-.45.79-.6.26-.15.49-.23.69-.23.26,0,.47.02.64.07.17.05.29.12.38.22.09.1.15.22.19.37s.05.33.05.54c0,.17-.04.34-.13.51s-.19.32-.31.47c-.12.14-.25.28-.39.4-.14.12-.26.23-.36.33-.15.14-.3.27-.43.38-.14.12-.25.22-.33.31,0,.46.12.87.34,1.26.11.19.24.42.41.69.16.27.33.55.5.84.17.29.33.56.48.82.15.26.27.47.36.62.11-.05.27-.15.47-.29.21-.14.45-.31.72-.51.27-.2.57-.42.88-.67s.63-.5.95-.76c.32-.26.62-.52.92-.77.3-.26.56-.5.8-.73.2-.2.37-.36.5-.5.13-.14.25-.26.35-.35s.18-.16.25-.21c.07-.05.15-.07.24-.07.09,0,.17.03.23.1.06.07.11.14.15.23.04.08.06.16.08.23.01.07.02.12.02.13Z"/>
        <path d="M61.63,8.75c0,.13-.1.37-.29.72-.38.54-.79,1.08-1.25,1.61-.46.53-.95,1.03-1.47,1.51-.52.48-1.06.92-1.63,1.33-.56.41-1.13.76-1.71,1.06-.58.3-1.15.53-1.73.7-.57.17-1.14.25-1.68.25-1.24,0-2.2-.35-2.89-1.05-.69-.7-1.03-1.75-1.03-3.16,0-.56.04-1.12.12-1.66.08-.55.21-1.08.4-1.61.18-.53.42-1.05.72-1.57.3-.51.66-1.01,1.09-1.5.16-.18.34-.35.56-.52.21-.17.44-.31.68-.44.24-.13.49-.23.76-.31.26-.08.53-.12.79-.12.38,0,.71.07.99.22.28.14.51.34.69.58.18.24.31.52.4.83.09.31.13.65.13.99,0,.64-.24,1.31-.72,2-.48.69-1.14,1.4-1.98,2.12-.27.23-.59.48-.95.75-.36.27-.77.58-1.21.92.01.18.07.35.16.51.09.16.21.3.37.42.16.12.34.21.56.28.22.07.46.1.74.1.35,0,.73-.04,1.13-.14.4-.09.79-.21,1.18-.36.39-.15.77-.33,1.14-.53.37-.2.7-.41,1.01-.62.53-.38,1.05-.8,1.54-1.24.49-.44.97-.9,1.44-1.36l.57-.57c.4-.35.74-.53,1.02-.53.14,0,.24.05.3.15s.08.18.08.25ZM53.18,6.76c0-.16-.02-.31-.05-.46-.03-.14-.08-.23-.16-.27-.25,0-.51.1-.79.31-.28.21-.54.51-.8.89-.25.39-.48.85-.68,1.4-.2.55-.35,1.15-.44,1.81.34-.25.68-.52,1.02-.8.34-.28.65-.57.93-.87.28-.3.51-.62.68-.96.18-.34.27-.69.27-1.07Z"/>
      </g>
    </g>
  </g>
</svg>