<?xml version="1.0" encoding="UTF-8"?>
<svg id="Camada_2" data-name="Camada 2" xmlns="http://www.w3.org/2000/svg" viewBox="0 0 85.84 22.48">
  <defs>
    <style>
      .cls-1 {
        isolation: isolate;
      }
    </style>
  </defs>
  <g id="Camada_1-2" data-name="Camada 1">
    <g id="H3_Subtítulo_TÉCNICO_EM_ÓPTICA_font_size_28_Bold" data-name="H3 Subtítulo TÉCNICO EM ÓPTICA font size 28 Bold" class="cls-1">
      <g class="cls-1">
        <path d="M16.12,6.37c0,.46-.07.96-.22,1.53s-.36,1.15-.63,1.74c-.27.6-.6,1.19-.98,1.78-.38.59-.81,1.14-1.29,1.64-.74.79-1.44,1.44-2.1,1.96-.66.52-1.31.93-1.96,1.24-.65.31-1.32.52-2.01.64s-1.44.18-2.26.18c-.43,0-.85-.08-1.25-.24-.4-.16-.77-.37-1.12-.64-.34-.27-.66-.58-.94-.94-.29-.36-.53-.74-.73-1.14-.2-.4-.35-.81-.47-1.22-.11-.42-.17-.82-.17-1.21,0-.69.11-1.44.32-2.26.21-.82.52-1.65.92-2.48.4-.83.88-1.63,1.44-2.41.56-.78,1.18-1.47,1.87-2.07.69-.6,1.44-1.08,2.24-1.45s1.65-.54,2.53-.54c.46,0,.9.03,1.34.08.44.05.85.13,1.24.24.39.1.75.23,1.09.38.34.15.63.32.88.52.52.39.93.76,1.23,1.11.3.35.53.71.68,1.07.15.36.25.75.29,1.15.04.4.06.85.06,1.34ZM9.32,2.62c-.46,0-.89.09-1.3.28s-.8.44-1.18.74c-.37.31-.73.65-1.06,1.04-.34.39-.66.78-.96,1.18-.27.35-.53.75-.78,1.2-.25.44-.47.92-.67,1.41s-.34,1.01-.46,1.54c-.12.53-.17,1.05-.17,1.57,0,.46.07.88.22,1.27s.34.71.59.98c.25.27.52.48.83.63.31.15.63.23.96.23.54,0,1.07-.08,1.58-.23.51-.15,1.01-.36,1.48-.62.47-.26.92-.57,1.35-.93.43-.35.82-.73,1.18-1.14s.68-.83.96-1.28c.29-.44.53-.88.73-1.32.19-.43.36-.92.5-1.48s.21-1.13.21-1.71c0-.24-.01-.47-.04-.69-.03-.22-.08-.44-.16-.65-.06-.19-.2-.41-.39-.64-.2-.23-.45-.45-.77-.66s-.7-.37-1.15-.51c-.44-.14-.95-.21-1.52-.21Z"/>
        <path d="M29.18,7.67c0,.06-.01.15-.04.26-.03.11-.07.22-.13.33-.06.11-.13.2-.22.28-.09.08-.2.12-.33.13-.03,0-.09,0-.18,0-.09,0-.2,0-.3-.02-.11,0-.21-.01-.3-.02-.09,0-.16,0-.21,0-1.21.06-2.25.5-3.13,1.3-.2.18-.41.39-.62.64-.21.25-.42.51-.63.81-.21.29-.4.6-.59.94-.19.33-.36.68-.51,1.04-.12.3-.24.6-.36.92-.12.31-.22.64-.3.99-.05.19-.09.35-.11.49-.03.14-.07.31-.12.49-.04.12-.1.21-.18.3-.09.08-.19.15-.3.21-.12.05-.24.1-.36.12-.13.03-.25.05-.37.05-.46,0-.78-.21-.95-.63-.17-.42-.26-1.04-.26-1.87,0-.19,0-.36,0-.53,0-.17.01-.33.02-.5.01-.17.02-.35.04-.53.01-.18.03-.39.05-.62.03-.34.07-.74.12-1.21.05-.47.1-.94.16-1.42.06-.48.12-.94.19-1.39.07-.45.14-.83.21-1.14.09-.38.23-.68.44-.9.21-.22.51-.32.9-.32.12,0,.23.03.35.09.12.06.23.14.32.22.09.09.17.18.24.28.07.1.1.19.11.27v.19c.01.2,0,.44-.04.72-.04.27-.08.57-.15.87-.06.31-.13.62-.2.93-.07.31-.14.61-.21.9-.07.29-.13.55-.18.79-.05.24-.1.44-.12.6.25-.53.52-1.05.81-1.54.29-.49.6-.95.93-1.38.33-.42.69-.8,1.07-1.13.38-.33.79-.6,1.24-.8.35-.16.66-.28.95-.36.29-.08.55-.12.78-.12.27,0,.56.03.85.09.29.06.56.14.8.25.24.11.44.25.6.41.16.16.24.34.24.54Z"/>
        <path d="M46.09,9.06c0,.09-.02.19-.05.31-.03.12-.07.24-.12.36-.05.12-.11.23-.17.35-.06.11-.12.21-.18.29-.04.05-.09.12-.17.21-.08.09-.17.19-.27.3-.1.11-.21.23-.34.36-.13.13-.25.26-.38.39-.42.39-.84.77-1.27,1.15-.43.38-.88.71-1.35,1.01-.47.29-.96.53-1.47.71-.51.18-1.06.27-1.64.27-.25,0-.49-.05-.75-.16-.25-.11-.49-.26-.7-.44-.22-.19-.41-.41-.57-.68-.16-.26-.28-.55-.34-.85-.13.22-.3.45-.51.7-.21.25-.44.5-.69.74-.25.25-.51.48-.77.7-.27.22-.52.41-.75.57-.16.11-.35.22-.58.34-.23.12-.47.22-.72.32-.25.1-.51.18-.76.24-.26.06-.49.09-.71.09-.35,0-.65-.1-.91-.3-.26-.2-.47-.44-.64-.73-.17-.29-.3-.6-.38-.92-.08-.33-.12-.62-.12-.88,0-.48.07-.96.21-1.46s.32-.98.54-1.45c.22-.47.47-.92.74-1.34s.54-.81.8-1.14c.27-.35.6-.69.99-1.04.38-.34.78-.65,1.2-.92.42-.27.83-.49,1.24-.66.41-.17.77-.25,1.09-.25.17,0,.35,0,.54.02.18.01.37.03.55.05.18.02.35.05.52.1.17.04.31.1.44.16.09.06.18.16.29.31.1.15.2.31.29.48.09.17.17.34.23.5.07.17.1.3.1.39,0,.2-.03.44-.09.72-.06.28-.13.57-.21.87s-.15.61-.21.93c-.06.32-.1.62-.1.91,0,.2.03.41.09.62.06.21.14.4.25.57s.24.31.39.42c.15.11.32.16.51.16.43,0,.85-.08,1.27-.24.42-.16.84-.38,1.26-.66.42-.28.84-.61,1.26-.99s.84-.79,1.27-1.23c.01,0,.07-.05.17-.16.1-.11.22-.23.36-.36s.29-.25.44-.36c.16-.11.29-.16.41-.16.21,0,.35.06.41.18.07.12.1.31.1.56ZM36.24,7.94c0-.07-.01-.14-.04-.23-.03-.09-.06-.17-.1-.24-.04-.08-.09-.14-.14-.19-.05-.05-.1-.08-.14-.08-.48,0-.91.13-1.31.38-.39.26-.8.6-1.23,1.05-.24.24-.49.56-.76.96-.27.4-.52.83-.75,1.29-.23.46-.42.91-.57,1.37-.15.46-.23.86-.23,1.2,0,.09,0,.17.02.25s.03.16.06.22c.03.06.08.12.14.16.06.04.13.06.23.06.27,0,.59-.09.93-.27.35-.18.7-.41,1.05-.69.35-.29.69-.61,1.02-.99.33-.37.6-.75.83-1.14.27-.48.51-.98.7-1.5.19-.52.29-1.06.29-1.62Z"/>
        <path d="M58.13,8.86c0,.14-.02.27-.06.37-.04.1-.1.21-.18.31-.08.1-.19.22-.32.34-.13.12-.29.28-.48.47l-.95.95c-.2.2-.38.37-.53.51-.15.14-.3.27-.44.38-.14.12-.29.24-.44.37-.15.13-.34.28-.55.46-.47.4-.93.77-1.39,1.12s-.9.66-1.33.93c-.55.35-1.13.63-1.75.85-.62.22-1.27.35-1.94.41-.04.05-.07.1-.11.15-.04.05-.07.1-.1.15-.02.04-.05.1-.09.18-.04.08-.08.16-.12.25-.04.09-.07.18-.1.27-.03.09-.04.16-.04.21,0,.04.02.06.07.08.05.02.1.03.17.04.07.01.14.02.21.02.07,0,.13.01.18.03.14.04.27.08.38.12.11.04.21.1.29.17.14.12.26.24.34.38.08.14.15.29.2.47.05.18.08.38.1.61.01.23.02.5.02.8,0,.55-.33,1.04-1,1.47-.19.13-.38.24-.56.34-.18.09-.37.17-.56.23-.19.06-.39.1-.6.13-.21.02-.44.04-.7.04-.03,0-.08,0-.15-.03-.07-.02-.14-.04-.23-.06-.08-.03-.17-.05-.25-.07-.08-.02-.15-.04-.21-.05-.21-.06-.38-.13-.52-.18s-.21-.09-.23-.1c-.53-.22-.8-.54-.8-.96,0-.23.07-.42.22-.56.15-.15.38-.22.7-.22.12,0,.24.02.36.07.12.05.25.11.38.19.16.09.3.14.42.17.12.03.26.04.41.04.18,0,.35-.02.51-.07.16-.05.32-.11.46-.19.05-.03.11-.07.17-.12.06-.05.12-.11.18-.18.05-.06.1-.14.14-.22.04-.08.06-.16.06-.24s-.02-.16-.07-.23c-.05-.07-.1-.14-.17-.19-.07-.05-.14-.1-.22-.13-.08-.03-.15-.05-.21-.05-.01,0-.12.03-.3.09-.25.12-.47.17-.65.17-.64,0-.96-.29-.96-.86.22-.57.4-1.05.55-1.45.15-.39.27-.7.35-.9-.34-.13-.64-.31-.9-.55-.26-.23-.48-.5-.66-.81s-.31-.64-.4-1c-.09-.36-.14-.74-.14-1.13,0-.95.2-1.9.6-2.86.4-.96.94-1.9,1.64-2.82.17-.23.38-.47.61-.73.23-.25.48-.48.74-.69s.53-.38.8-.51c.27-.13.54-.2.8-.2.17,0,.34.05.5.15.16.1.32.23.48.4.16.17.3.36.44.58.14.22.26.46.38.71.23.51.35.87.35,1.1,0,.12-.01.27-.04.45-.03.18-.07.35-.14.5-.07.16-.16.29-.28.41-.12.11-.26.17-.44.17-.27,0-.49-.08-.66-.25-.17-.17-.32-.37-.43-.59-.12-.22-.21-.44-.28-.66-.07-.22-.13-.37-.19-.47-.17.06-.36.19-.55.38-.19.19-.38.42-.57.69-.19.27-.36.58-.53.93-.17.34-.31.71-.44,1.09-.13.39-.23.78-.3,1.19-.08.4-.11.81-.11,1.2,0,.37.13.69.4.96.3.3.59.46.85.46.82,0,1.62-.15,2.38-.46.76-.3,1.5-.71,2.21-1.21.48-.34.98-.72,1.5-1.14.52-.42,1.09-.93,1.71-1.52.22-.22.45-.42.68-.62.23-.2.45-.37.67-.53.22-.15.43-.27.63-.37.2-.09.38-.14.56-.14.38,0,.56.2.56.6Z"/>
        <path d="M72.29,9.06c0,.09-.02.19-.05.31-.03.12-.07.24-.12.36-.05.12-.11.23-.17.35-.06.11-.12.21-.18.29-.04.05-.09.12-.17.21-.08.09-.17.19-.27.3-.1.11-.21.23-.34.36-.13.13-.25.26-.38.39-.42.39-.84.77-1.27,1.15-.43.38-.88.71-1.35,1.01-.47.29-.96.53-1.47.71-.51.18-1.06.27-1.64.27-.25,0-.49-.05-.75-.16-.25-.11-.49-.26-.7-.44-.22-.19-.41-.41-.57-.68-.16-.26-.28-.55-.34-.85-.13.22-.3.45-.51.7-.21.25-.44.5-.69.74-.25.25-.51.48-.77.7-.27.22-.52.41-.75.57-.16.11-.35.22-.58.34-.23.12-.47.22-.72.32-.25.1-.51.18-.76.24-.26.06-.49.09-.71.09-.35,0-.65-.1-.91-.3-.26-.2-.47-.44-.64-.73-.17-.29-.3-.6-.38-.92-.08-.33-.12-.62-.12-.88,0-.48.07-.96.21-1.46s.32-.98.54-1.45c.22-.47.47-.92.74-1.34s.54-.81.8-1.14c.27-.35.6-.69.99-1.04.38-.34.78-.65,1.2-.92.42-.27.83-.49,1.24-.66.41-.17.77-.25,1.09-.25.17,0,.35,0,.54.02.18.01.37.03.55.05.18.02.35.05.52.1.17.04.31.1.44.16.09.06.18.16.29.31.1.15.2.31.29.48.09.17.17.34.23.5.07.17.1.3.1.39,0,.2-.03.44-.09.72-.06.28-.13.57-.21.87s-.15.61-.21.93c-.06.32-.1.62-.1.91,0,.2.03.41.09.62.06.21.14.4.25.57s.24.31.39.42c.15.11.32.16.51.16.43,0,.85-.08,1.27-.24.42-.16.84-.38,1.26-.66.42-.28.84-.61,1.26-.99s.84-.79,1.27-1.23c.01,0,.07-.05.17-.16.1-.11.22-.23.36-.36s.29-.25.44-.36c.16-.11.29-.16.41-.16.21,0,.35.06.41.18.07.12.1.31.1.56ZM62.44,7.94c0-.07-.01-.14-.04-.23-.03-.09-.06-.17-.1-.24-.04-.08-.09-.14-.14-.19-.05-.05-.1-.08-.14-.08-.48,0-.91.13-1.31.38-.39.26-.8.6-1.23,1.05-.24.24-.49.56-.76.96-.27.4-.52.83-.75,1.29-.23.46-.42.91-.57,1.37-.15.46-.23.86-.23,1.2,0,.09,0,.17.02.25s.03.16.06.22c.03.06.08.12.14.16.06.04.13.06.23.06.27,0,.59-.09.93-.27.35-.18.7-.41,1.05-.69.35-.29.69-.61,1.02-.99.33-.37.6-.75.83-1.14.27-.48.51-.98.7-1.5.19-.52.29-1.06.29-1.62ZM66.73,1.15c0,.11-.03.24-.09.4-.06.16-.14.32-.23.48-.08.14-.18.29-.29.45-.11.16-.24.33-.38.5-.12.14-.23.26-.36.36-.12.1-.25.2-.37.28-.22.13-.49.19-.79.19s-.57-.02-.81-.07-.45-.13-.63-.24c-.08-.06-.17-.13-.27-.22s-.22-.2-.36-.32c-.07-.06-.14-.13-.23-.23-.09-.09-.15-.16-.19-.2-.05-.06-.12-.12-.2-.2-.08-.08-.16-.15-.24-.21-.08-.06-.17-.12-.25-.16-.08-.04-.15-.06-.21-.06-.14,0-.31.07-.5.21-.19.14-.4.36-.63.66-.13.17-.25.33-.37.48-.12.14-.23.27-.35.37-.12.1-.24.19-.37.24-.13.06-.27.09-.42.09-.27,0-.48-.08-.6-.24-.13-.16-.19-.35-.19-.58,0-.35.2-.78.59-1.3.17-.22.36-.44.55-.65.2-.21.42-.41.66-.6.49-.38.95-.57,1.37-.57.26,0,.49.01.68.04.19.03.35.07.48.13.14.06.28.14.42.24s.27.22.42.37c.12.12.24.25.34.37.1.12.2.21.3.27.06.04.14.09.22.16.08.07.16.14.24.2.08.06.16.12.23.17.08.05.14.08.19.08.14,0,.26-.06.37-.17.11-.12.23-.26.35-.43.09-.12.16-.24.22-.36.06-.12.14-.24.24-.36.23-.27.47-.41.7-.41.3,0,.51.08.61.24.1.16.16.37.16.63Z"/>
        <path d="M85.84,7.3c0,.13-.03.27-.08.41s-.13.28-.22.42c-.09.13-.2.26-.32.37-.12.12-.24.21-.36.29-.26.17-.64.32-1.13.46-.49.13-1.09.19-1.79.19-.2,0-.42-.01-.64-.04-.23-.03-.46-.07-.69-.12-.23-.05-.47-.11-.69-.19-.23-.08-.45-.16-.66-.25.04.06.08.15.11.27.03.11.05.23.06.35.01.12.02.24.02.35,0,.11,0,.2,0,.27,0,.46-.08.92-.24,1.38-.16.46-.38.9-.64,1.32-.27.42-.57.81-.91,1.16-.34.36-.69.67-1.04.93-.28.21-.59.39-.94.54-.34.15-.7.28-1.08.38-.38.1-.77.18-1.17.23-.4.05-.81.08-1.22.08-.34,0-.66-.08-.98-.25-.31-.17-.58-.38-.82-.64-.23-.26-.42-.56-.56-.89-.14-.33-.21-.66-.21-.99,0-.58.08-1.13.23-1.67.16-.53.36-1.05.62-1.55.26-.5.56-.99.91-1.47.35-.48.71-.96,1.09-1.42.22-.27.48-.54.77-.8.29-.26.59-.49.92-.7.32-.21.65-.37.98-.49.33-.12.64-.18.95-.18.25,0,.47.03.66.09s.35.14.51.24c.16.1.31.23.45.38.14.15.3.32.46.51l.23.25c.06.06.21.14.47.26.26.12.56.23.92.34.35.11.73.21,1.12.3.39.09.74.13,1.06.13s.63,0,.92-.01c.29,0,.58-.03.87-.08.29-.05.6-.12.92-.22s.68-.23,1.07-.41c.04.06.06.15.08.25.02.1.03.18.03.24ZM77.43,9.74c0-.18,0-.37-.03-.56-.02-.19-.06-.38-.11-.55-.06-.17-.14-.32-.24-.44-.1-.13-.23-.21-.4-.25-.25-.06-.46-.14-.62-.21-.16-.08-.29-.15-.38-.21-.09-.06-.16-.12-.2-.16-.04-.04-.06-.06-.08-.06-.06,0-.14.05-.24.15-.1.1-.22.22-.35.37-.13.15-.26.31-.39.49-.13.17-.26.34-.38.49-.15.19-.29.37-.43.55-.13.18-.26.36-.39.55-.13.19-.25.39-.37.6-.12.21-.25.44-.38.69-.12.23-.2.51-.26.85-.06.34-.09.65-.09.95,0,.12.01.25.04.37.03.13.07.24.13.34.06.1.13.18.23.25.09.06.21.1.35.1.33,0,.61-.02.83-.05.22-.03.43-.09.63-.17s.39-.2.59-.34c.2-.14.44-.32.72-.53.13-.1.26-.22.39-.35.13-.13.26-.28.39-.43s.26-.32.38-.49c.12-.17.23-.33.34-.49.06-.09.11-.2.15-.34.04-.14.07-.28.1-.43.03-.14.04-.28.05-.4.01-.12.02-.21.02-.26h0Z"/>
      </g>
    </g>
  </g>
</svg>