<?xml version="1.0" encoding="UTF-8"?>
<svg id="Camada_2" data-name="Camada 2" xmlns="http://www.w3.org/2000/svg" viewBox="0 0 80.16 39.4">
  <defs>
    <style>
      .cls-1 {
        isolation: isolate;
      }
    </style>
  </defs>
  <g id="Camada_1-2" data-name="Camada 1">
    <g id="H3_Subtítulo_TÉCNICO_EM_ÓPTICA_font_size_28_Bold" data-name="H3 Subtítulo TÉCNICO EM ÓPTICA font size 28 Bold" class="cls-1">
      <g class="cls-1">
        <path d="M13.52,2.69c0,.1-.03.25-.08.43-.05.19-.12.38-.2.6-.08.21-.17.42-.27.62s-.19.36-.28.49c-.22.31-.53.64-.91.99-.39.35-.84.7-1.37,1.05-.49.33-.99.65-1.51.96-.52.31-1.04.59-1.54.84-.61.31-1.25.61-1.9.88s-1.3.52-1.93.72v.47c0,.08,0,.22.01.41s.02.41.04.65c.02.25.03.51.05.79.02.28.03.55.05.82.02.27.03.51.04.74s.01.41.01.56c0,.33-.11.59-.32.78-.21.19-.49.28-.84.28-.94,0-1.41-1.59-1.41-4.76,0-.28,0-.56.02-.85.02-.29.04-.59.08-.92.04-.33.08-.68.13-1.06.05-.38.11-.8.19-1.27.06-.39.12-.77.18-1.12.06-.36.13-.71.21-1.05s.17-.68.28-1.01.24-.67.39-1.01c-.21.06-.42.13-.64.2-.22.07-.45.15-.69.23-.07.03-.14.06-.21.08-.07.02-.15.03-.23.03-.25,0-.45-.07-.61-.21-.16-.14-.24-.32-.24-.54,0-.27.06-.5.17-.7.11-.2.29-.38.53-.53s.56-.29.94-.42.84-.24,1.39-.35c.31-.06.65-.13,1.02-.19.36-.06.73-.12,1.1-.17s.73-.09,1.08-.12.67-.05.96-.05c.34,0,.68,0,1,0s.64.02.95.05.62.06.93.11c.31.05.62.11.94.19.72.18,1.29.44,1.72.78.52.4.78.92.78,1.55ZM7.94,1.92c-.51,0-1.08.03-1.68.09-.61.06-1.21.14-1.8.24.2.2.29.46.29.79,0,.04-.02.14-.07.31s-.1.35-.16.54-.12.38-.17.55c-.06.17-.09.27-.11.31-.03.08-.06.19-.09.32s-.06.27-.09.42-.06.3-.08.46c-.03.16-.05.31-.08.46-.04.2-.07.38-.09.53-.02.15-.04.29-.05.41-.01.12-.02.24-.03.35s-.02.22-.02.34c.21-.09.46-.19.73-.31s.55-.23.83-.35.56-.24.83-.36c.27-.12.51-.23.72-.33.11-.06.24-.12.38-.2.14-.07.28-.15.43-.22s.29-.16.44-.24c.15-.08.29-.16.41-.24.31-.19.64-.41.97-.67.34-.26.64-.53.92-.83.28-.29.51-.59.69-.89.18-.3.27-.59.27-.85,0-.14-.17-.25-.5-.33-.49-.13-.99-.21-1.5-.25-.51-.04-.97-.05-1.37-.05Z"/>
        <path d="M27.96,6.45c0,.12-.02.24-.07.37s-.12.26-.2.38c-.08.12-.18.23-.29.34s-.22.19-.33.26c-.23.16-.57.29-1.02.41-.45.12-.98.18-1.62.18-.18,0-.38-.01-.58-.04s-.41-.06-.62-.11c-.21-.05-.42-.1-.62-.17s-.4-.15-.59-.23c.04.06.07.14.1.24.03.1.04.21.05.32s.02.22.02.32c0,.1,0,.18,0,.24,0,.42-.07.83-.22,1.25s-.34.81-.58,1.19c-.24.38-.51.73-.82,1.05-.31.32-.62.6-.94.83-.25.19-.54.35-.84.49-.31.14-.63.25-.98.34s-.69.16-1.05.21-.73.07-1.1.07c-.31,0-.6-.07-.88-.22-.28-.15-.53-.34-.74-.58-.21-.24-.38-.51-.51-.81s-.19-.6-.19-.89c0-.52.07-1.02.21-1.5.14-.48.33-.95.56-1.4s.51-.89.82-1.32.64-.86.99-1.28c.2-.25.43-.49.69-.72.26-.23.54-.44.83-.63.29-.19.58-.33.88-.44.3-.11.58-.17.85-.17.23,0,.42.03.59.08s.32.13.46.22c.14.09.27.21.41.35.13.14.27.29.41.46l.21.22c.05.05.19.13.42.23.23.1.51.21.83.31.32.1.65.19,1.01.27s.67.12.96.12.57,0,.83,0c.26,0,.52-.03.79-.07s.54-.11.83-.2c.29-.09.61-.21.96-.37.03.06.06.13.07.22.02.09.02.16.02.21ZM20.38,8.64c0-.16,0-.33-.02-.51-.02-.18-.05-.34-.1-.49-.05-.15-.12-.29-.21-.4-.09-.11-.21-.19-.36-.23-.23-.06-.41-.12-.56-.19-.14-.07-.26-.13-.34-.19-.08-.06-.14-.11-.18-.15-.03-.04-.06-.06-.07-.06-.05,0-.13.04-.22.13-.09.09-.2.2-.31.34-.11.14-.23.28-.35.44-.12.16-.24.3-.35.44-.14.17-.27.33-.39.49-.12.16-.24.33-.35.5-.11.17-.23.35-.34.54-.11.19-.22.4-.34.62-.1.21-.18.46-.23.77-.05.3-.08.59-.08.85,0,.11.01.22.04.34.03.11.06.22.12.31.05.09.12.17.21.22.08.06.19.09.31.09.3,0,.55-.01.75-.04.2-.03.39-.08.57-.16s.35-.18.53-.3c.18-.13.4-.28.65-.47.12-.09.23-.2.35-.32s.23-.25.35-.39.23-.29.34-.44c.11-.15.21-.3.3-.44.05-.08.1-.18.13-.31.04-.13.06-.26.09-.39.02-.13.04-.25.05-.36s.01-.19.01-.23h0Z"/>
        <path d="M42.69,7.6c0,.12-.02.26-.07.41-.05.15-.1.29-.17.43s-.14.28-.22.41c-.08.13-.16.23-.23.32-.21.26-.44.54-.7.83-.26.29-.53.58-.81.87-.28.29-.57.56-.86.83s-.59.49-.88.69c-.23.16-.45.3-.66.43-.21.13-.43.25-.65.36s-.46.19-.71.24c-.25.06-.53.09-.83.09-.49,0-.89-.1-1.22-.29s-.58-.46-.79-.78c-.2-.33-.36-.7-.46-1.12s-.19-.86-.25-1.31c-.08-.62-.18-1.11-.28-1.47-.1-.36-.23-.54-.38-.54-.13,0-.26.03-.38.09-.12.06-.28.19-.46.4s-.42.5-.7.88-.65.9-1.11,1.55c-.16.22-.35.47-.57.74s-.46.54-.71.79c-.25.25-.49.47-.74.66s-.47.32-.68.4c-.82-.18-1.23-.97-1.23-2.35,0-.35.04-.87.12-1.55.04-.31.08-.63.13-.97s.11-.68.19-1.02c.07-.34.16-.68.27-1.01.1-.33.22-.63.36-.91.08-.16.17-.28.26-.37s.2-.16.3-.21c.1-.05.21-.07.32-.09.11-.01.22-.02.33-.02.1,0,.19.02.28.07.09.05.17.12.24.21.07.09.13.2.17.33.04.13.06.28.06.45,0,.15-.01.29-.04.43-.03.14-.06.28-.11.42-.05.15-.09.3-.14.46s-.1.35-.15.56c-.03.14-.08.31-.14.53-.06.21-.12.44-.19.67-.06.23-.12.46-.17.68-.05.22-.08.41-.1.56.12-.14.25-.31.41-.51.15-.21.31-.43.48-.66.17-.24.34-.48.52-.73s.35-.48.53-.7c.23-.29.45-.56.67-.81.22-.25.45-.47.7-.66s.51-.33.8-.44c.29-.11.61-.16.97-.16.42,0,.77.09,1.04.26.27.17.48.41.64.72.16.31.28.67.36,1.09s.14.88.19,1.37c.03.25.06.51.1.78.04.27.11.51.19.73.08.22.2.4.33.54s.31.21.51.21c.3,0,.63-.08.98-.24.35-.16.73-.38,1.12-.66s.79-.61,1.2-.98.82-.77,1.23-1.19c.13-.14.26-.27.38-.41.12-.13.24-.25.35-.36.11-.11.22-.19.32-.26.1-.06.21-.1.31-.1.04,0,.08,0,.14.01.05,0,.1.03.15.06.05.03.08.07.11.12s.04.12.04.21Z"/>
        <path d="M51.25,6.05c0,.12-.03.24-.08.34-.05.1-.12.19-.2.27s-.16.15-.26.22c-.09.06-.18.12-.27.18-.29.13-.61.24-.94.34-.34.1-.67.18-1,.25s-.66.13-.97.17c-.32.05-.61.08-.87.12-.18.02-.37.04-.57.06-.2.02-.39.04-.58.06-.19.02-.36.04-.53.06-.16.02-.3.04-.42.06-.14.55-.28,1.08-.41,1.59s-.24.99-.33,1.44c-.01.08-.03.19-.06.32-.03.14-.05.29-.08.45s-.06.33-.08.51c-.03.18-.05.35-.07.51-.02.16-.04.3-.05.43-.01.13-.02.22-.02.29,0,.23.04.39.11.48.07.09.14.17.21.23.13.1.24.21.33.3s.13.23.13.4c0,.13-.05.25-.14.37-.09.11-.21.21-.34.3s-.28.15-.44.21-.3.08-.44.08c-.23,0-.45-.06-.63-.17-.19-.11-.35-.27-.49-.45s-.24-.4-.31-.64c-.07-.24-.11-.49-.11-.74,0-.43.03-.9.1-1.42.06-.51.16-1.03.28-1.55.05-.23.11-.48.17-.75.06-.27.12-.53.17-.78.05-.25.1-.47.14-.66s.06-.32.08-.39c-.14,0-.33.03-.59.06-.26.03-.56.05-.91.05-.29,0-.54-.02-.74-.05-.2-.04-.37-.1-.5-.2-.13-.1-.22-.23-.28-.4s-.09-.39-.09-.66c0-.16.06-.28.17-.38s.25-.17.41-.21c.16-.05.33-.08.51-.1s.33-.02.47-.02c.06,0,.18,0,.34-.02.16-.02.34-.03.53-.05.19-.02.38-.03.56-.05.18-.02.32-.02.42-.02.03,0,.07-.06.12-.19s.1-.28.15-.48c.05-.2.11-.41.16-.65.06-.24.11-.47.16-.7.05-.23.1-.44.14-.64.04-.2.08-.35.1-.46.07-.27.13-.58.18-.92s.12-.66.22-.96.24-.56.42-.76c.18-.21.43-.31.77-.31.35,0,.61.08.78.23.17.15.25.41.25.76,0,.16-.01.35-.04.58s-.08.44-.15.66c-.16.5-.29.97-.4,1.41-.11.44-.2.82-.27,1.14s-.13.67-.19,1.03c.27,0,.52,0,.77,0s.49,0,.75-.02.52-.02.8-.04c.28-.02.58-.05.9-.09.38-.05.7-.09.96-.14.26-.05.49-.09.69-.13.2-.04.38-.07.54-.1.16-.03.33-.04.51-.04.09,0,.18.02.26.07.08.05.12.16.12.35Z"/>
        <path d="M62.15,6.45c0,.12-.02.24-.07.37s-.12.26-.2.38c-.08.12-.18.23-.29.34s-.22.19-.33.26c-.23.16-.57.29-1.02.41-.45.12-.98.18-1.62.18-.18,0-.38-.01-.58-.04s-.41-.06-.62-.11c-.21-.05-.42-.1-.62-.17s-.4-.15-.59-.23c.04.06.07.14.1.24.03.1.04.21.05.32s.02.22.02.32c0,.1,0,.18,0,.24,0,.42-.07.83-.22,1.25s-.34.81-.58,1.19c-.24.38-.51.73-.82,1.05-.31.32-.62.6-.94.83-.25.19-.54.35-.84.49-.31.14-.63.25-.98.34s-.69.16-1.05.21-.73.07-1.1.07c-.31,0-.6-.07-.88-.22-.28-.15-.53-.34-.74-.58-.21-.24-.38-.51-.51-.81s-.19-.6-.19-.89c0-.52.07-1.02.21-1.5.14-.48.33-.95.56-1.4s.51-.89.82-1.32.64-.86.99-1.28c.2-.25.43-.49.69-.72.26-.23.54-.44.83-.63.29-.19.58-.33.88-.44.3-.11.58-.17.85-.17.23,0,.42.03.59.08s.32.13.46.22c.14.09.27.21.41.35.13.14.27.29.41.46l.21.22c.05.05.19.13.42.23.23.1.51.21.83.31.32.1.65.19,1.01.27s.67.12.96.12.57,0,.83,0c.26,0,.52-.03.79-.07s.54-.11.83-.2c.29-.09.61-.21.96-.37.03.06.06.13.07.22.02.09.02.16.02.21ZM54.57,8.64c0-.16,0-.33-.02-.51-.02-.18-.05-.34-.1-.49-.05-.15-.12-.29-.21-.4-.09-.11-.21-.19-.36-.23-.23-.06-.41-.12-.56-.19-.14-.07-.26-.13-.34-.19-.08-.06-.14-.11-.18-.15-.03-.04-.06-.06-.07-.06-.05,0-.13.04-.22.13-.09.09-.2.2-.31.34-.11.14-.23.28-.35.44-.12.16-.24.3-.35.44-.14.17-.27.33-.39.49-.12.16-.24.33-.35.5-.11.17-.23.35-.34.54-.11.19-.22.4-.34.62-.1.21-.18.46-.23.77-.05.3-.08.59-.08.85,0,.11.01.22.04.34.03.11.06.22.12.31.05.09.12.17.21.22.08.06.19.09.31.09.3,0,.55-.01.75-.04.2-.03.39-.08.57-.16s.35-.18.53-.3c.18-.13.4-.28.65-.47.12-.09.23-.2.35-.32s.23-.25.35-.39.23-.29.34-.44c.11-.15.21-.3.3-.44.05-.08.1-.18.13-.31.04-.13.06-.26.09-.39.02-.13.04-.25.05-.36s.01-.19.01-.23h0Z"/>
        <path d="M80.16,7.83c0,.12-.09.33-.26.64-.34.49-.71.97-1.13,1.45-.41.48-.85.93-1.32,1.36s-.96.83-1.46,1.2-1.02.69-1.54.95c-.52.27-1.04.48-1.56.63s-1.02.23-1.52.23c-1.11,0-1.98-.31-2.6-.94-.62-.63-.93-1.58-.93-2.85,0-.51.04-1.01.11-1.5.07-.49.19-.98.36-1.46s.38-.95.65-1.41c.27-.46.6-.91.99-1.35.14-.16.31-.32.5-.47.19-.15.4-.28.62-.4.22-.12.45-.21.68-.28.24-.07.47-.11.71-.11.34,0,.64.06.89.2.25.13.46.3.62.52.16.22.28.47.36.75s.12.58.12.89c0,.58-.21,1.18-.64,1.8s-1.03,1.26-1.79,1.91c-.25.21-.53.43-.86.68-.33.24-.69.52-1.09.83.01.16.06.32.14.46.08.14.19.27.33.38.14.11.31.19.5.25s.42.09.66.09c.32,0,.66-.04,1.02-.12.36-.08.71-.19,1.06-.33s.69-.29,1.03-.47.63-.37.91-.56c.48-.35.95-.72,1.39-1.12.45-.4.88-.81,1.29-1.23l.52-.52c.36-.32.66-.48.92-.48.13,0,.22.04.27.13s.07.16.07.23ZM72.54,6.04c0-.14-.01-.28-.04-.41s-.08-.21-.14-.24c-.22,0-.46.09-.71.28-.25.19-.49.46-.72.81-.23.35-.43.77-.61,1.26-.18.49-.31,1.04-.4,1.64.31-.23.61-.47.92-.72.31-.25.59-.51.84-.79.25-.27.46-.56.62-.86.16-.3.24-.62.24-.96Z"/>
        <path d="M13.74,26.91c0,.27-.19.57-.58.9-.23.2-.49.39-.78.55s-.57.31-.87.43c-.3.12-.6.21-.89.28-.3.07-.57.1-.83.1-.29,0-.63-.04-1.01-.13-.38-.09-.72-.2-1.04-.33-.06.12-.13.27-.22.47s-.18.41-.28.63-.2.45-.29.66-.19.41-.26.58c-.16.34-.31.66-.45.96-.14.3-.28.59-.42.86s-.27.54-.4.8c-.13.26-.26.51-.39.76-.13.25-.26.45-.39.61-.13.16-.26.28-.38.37-.12.09-.23.15-.34.19s-.2.05-.29.05c-.21,0-.41-.06-.59-.17s-.38-.3-.58-.56c.02-.1.03-.19.04-.25,0-.06,0-.12,0-.18,0-.25-.08-.63-.25-1.13s-.42-1.1-.77-1.81c-.18-.38-.36-.77-.53-1.17-.17-.4-.32-.79-.45-1.17-.13-.38-.23-.74-.31-1.07s-.12-.63-.12-.87c0-.2.03-.4.08-.62.06-.22.14-.42.25-.6.11-.18.26-.33.43-.45.17-.12.38-.18.62-.18.38,0,.66.11.86.32s.29.49.29.84c0,.19-.02.39-.06.6s-.06.4-.06.57c0,.09,0,.23.02.42.01.19.04.39.07.62.04.23.09.48.16.74s.16.51.27.75c.05.11.11.24.18.4.06.16.13.32.21.5.07.18.14.36.21.54.06.18.12.35.18.51.05.16.09.3.13.42.03.12.05.21.05.27h0c.04-.07.1-.2.18-.4s.17-.42.26-.67.2-.53.32-.83c.11-.3.23-.59.34-.89.11-.3.21-.58.3-.84.09-.26.17-.49.23-.68.1-.32.21-.62.31-.89.1-.27.22-.51.36-.72s.3-.37.48-.48.42-.18.7-.18c.19,0,.35.04.49.12s.27.17.4.27c.06.05.15.11.26.18s.23.15.37.21.28.13.43.18c.15.05.31.07.46.07.27,0,.52-.02.76-.05.24-.03.46-.08.68-.13s.42-.12.62-.19.39-.14.59-.22c.19-.07.34-.13.47-.18.12-.05.26-.07.42-.07.13,0,.22.05.28.14.06.09.08.16.08.21Z"/>
        <path d="M22.31,26.92c.03.08.05.15.06.21,0,.06,0,.11,0,.16,0,.14-.06.36-.18.64-.12.29-.29.61-.5.98-.21.36-.46.75-.75,1.16-.29.41-.61.81-.95,1.2-.16.19-.34.39-.54.61s-.4.43-.62.65c-.22.22-.44.43-.67.64-.23.21-.46.41-.68.59-.2.16-.41.31-.64.45s-.47.26-.71.36c-.24.1-.47.18-.71.24s-.45.09-.64.09c-.57,0-1.05-.12-1.43-.36s-.68-.57-.91-1-.38-.94-.47-1.53c-.09-.59-.14-1.24-.14-1.94,0-.08,0-.18,0-.31,0-.13,0-.27.02-.42s.02-.32.03-.49c.01-.17.03-.34.05-.51.03-.33.07-.61.11-.86s.08-.47.14-.65c.1-.33.33-.64.68-.92.33-.27.71-.4,1.13-.4s.62.25.62.76c0,.21-.02.44-.05.69-.04.24-.07.49-.1.73-.11.46-.18.91-.21,1.35-.03.44-.05.8-.05,1.09,0,.18,0,.41.01.7s.04.58.08.86c.05.28.12.53.21.73s.23.31.41.31c.09,0,.2-.01.32-.04.12-.03.26-.07.4-.12.14-.05.29-.11.43-.18.14-.07.28-.15.41-.23.34-.21.67-.46,1-.74.33-.28.64-.57.94-.87s.59-.6.86-.9.52-.58.74-.83c.19-.21.37-.43.54-.65.17-.23.34-.45.51-.65.06-.08.12-.15.17-.21.06-.06.11-.13.15-.19.05-.09.13-.18.22-.27s.22-.13.38-.13c.06,0,.12.02.18.07s.1.1.13.18ZM17.81,20.33c0,.07-.01.14-.04.21-.03.06-.09.15-.19.24-.1.09-.25.21-.45.35-.2.14-.48.32-.84.54-.07.04-.17.1-.32.2s-.31.19-.5.31c-.19.11-.39.24-.6.37-.21.13-.41.25-.59.37-.18.11-.34.21-.48.3-.14.08-.24.14-.29.18.01,0-.01.02-.08.05-.07.03-.14.07-.22.11-.08.04-.16.08-.23.11-.07.04-.12.05-.14.05-.27,0-.46-.07-.59-.22s-.19-.32-.19-.52c0-.35.45-.84,1.35-1.47.26-.18.52-.36.78-.54.26-.18.51-.35.75-.51.24-.16.47-.32.67-.46.21-.15.39-.28.54-.4.1-.08.22-.15.36-.2.13-.05.27-.07.42-.07.05,0,.13.03.22.09s.2.14.3.23c.1.1.19.21.26.33.07.12.11.25.11.38Z"/>
        <path d="M29.92,26.78c0,.06-.01.14-.04.23-.03.1-.07.2-.12.29-.05.1-.12.18-.2.25-.08.07-.18.11-.3.12-.03,0-.08,0-.17,0-.08,0-.18,0-.27-.01s-.19-.01-.27-.01c-.08,0-.15,0-.19,0-1.09.06-2.03.45-2.82,1.17-.18.16-.37.35-.56.58-.19.22-.38.46-.57.73s-.36.55-.53.84c-.17.3-.32.61-.46.94-.11.27-.22.54-.32.83-.1.28-.2.58-.27.89-.05.17-.08.32-.1.44-.02.13-.06.27-.11.44-.03.1-.09.19-.17.27s-.17.14-.27.19c-.1.05-.21.09-.33.11-.11.03-.23.04-.34.05-.42,0-.7-.19-.86-.57s-.23-.94-.23-1.69c0-.17,0-.33,0-.48,0-.15,0-.3.02-.45s.02-.31.03-.48c.01-.17.03-.35.05-.56.03-.31.06-.67.11-1.09.05-.42.09-.85.15-1.28.05-.43.11-.85.17-1.25.06-.4.13-.75.19-1.03.08-.35.21-.62.4-.81s.46-.29.82-.29c.1,0,.21.03.32.08s.2.12.29.2c.08.08.16.16.21.25s.09.17.1.24v.18c0,.18,0,.4-.04.64-.03.25-.08.51-.13.79-.06.28-.11.56-.18.84-.06.28-.12.55-.19.81-.06.26-.12.49-.17.71s-.09.4-.11.54c.23-.48.47-.95.73-1.39.26-.45.54-.86.84-1.24.3-.38.62-.72.97-1.02.34-.3.72-.54,1.11-.72.31-.14.6-.25.86-.33.26-.07.49-.11.7-.11.25,0,.5.03.77.08s.5.13.72.23c.22.1.4.22.54.37.14.14.21.31.21.49Z"/>
        <path d="M37.95,27.14c-.05.43-.09.91-.12,1.43s-.07,1.1-.12,1.73c-.02.23-.04.51-.07.82s-.06.62-.1.95c-.04.32-.07.64-.11.95s-.08.58-.12.83c-.06.38-.13.78-.22,1.2-.09.42-.21.84-.36,1.25s-.32.81-.53,1.18-.45.71-.74,1c-.29.29-.63.52-1.01.69-.38.17-.82.25-1.32.25-.31,0-.62-.04-.93-.11s-.62-.17-.92-.29c-.3-.12-.59-.27-.86-.43s-.52-.34-.75-.53c-.56-.46-.96-.9-1.2-1.33-.08-.14-.14-.26-.18-.36-.04-.1-.06-.22-.06-.34,0-.14.04-.26.13-.36s.2-.15.33-.15c.06,0,.13.02.22.07s.17.1.26.17c.08.06.16.12.22.18.06.06.1.09.12.11.56.53,1.14.92,1.75,1.17.61.25,1.23.38,1.85.38.38,0,.69-.12.95-.37s.46-.55.62-.91c.16-.36.29-.76.39-1.19.09-.43.17-.83.23-1.2.06-.38.11-.81.15-1.28.04-.47.08-.93.12-1.37-.3.31-.63.6-.99.89-.36.29-.73.54-1.12.76s-.79.39-1.2.53c-.41.13-.81.2-1.21.2-.21,0-.41-.05-.59-.14s-.35-.22-.48-.39-.24-.37-.32-.6-.12-.5-.12-.79c0-.36.06-.76.2-1.19.13-.43.3-.85.5-1.28.2-.43.43-.84.67-1.25.25-.4.49-.76.72-1.07s.52-.64.86-.98.71-.65,1.11-.94c.4-.28.81-.52,1.23-.7.42-.18.83-.27,1.23-.27.23,0,.47.03.71.1.24.06.46.16.65.3s.35.3.48.5c.12.2.19.43.19.7,0,.1,0,.22-.01.35s-.02.26-.04.4c-.02.14-.03.27-.05.4-.02.13-.03.25-.04.36h0ZM35.8,28.82c.03-.2.06-.44.09-.71s.06-.62.09-1.04c.01-.22.03-.39.04-.5.02-.11.02-.2.02-.27,0-.14,0-.25-.03-.31-.02-.08-.07-.13-.15-.16s-.2-.05-.37-.05c-.29.2-.58.43-.87.7-.29.27-.57.57-.83.89s-.51.65-.74,1c-.23.35-.43.68-.61,1.01-.19.35-.34.7-.45,1.04-.11.34-.17.64-.17.88,0,.1.04.17.11.21.07.04.15.05.24.05.2,0,.41-.05.65-.15.24-.1.48-.22.73-.36s.48-.29.7-.44.42-.29.58-.41c.06-.04.14-.11.24-.21.1-.1.2-.21.3-.34.1-.13.19-.26.27-.41s.12-.29.14-.42Z"/>
        <path d="M57.62,26.75c0,.36-.13.77-.39,1.21-.26.44-.59.88-1.01,1.32-.41.44-.88.87-1.39,1.29-.51.42-1.02.79-1.53,1.11-.51.32-.99.58-1.45.78-.46.2-.83.29-1.13.29-.42,0-.77-.09-1.06-.27-.29-.18-.53-.42-.72-.71-.19-.3-.34-.63-.45-1.02-.11-.38-.19-.77-.24-1.18-.1.23-.23.49-.39.76-.16.27-.34.54-.53.81-.19.27-.38.52-.57.76-.19.24-.37.44-.53.61-.23.24-.48.47-.75.7s-.57.42-.88.59-.64.3-.99.41c-.35.1-.71.15-1.09.15-.32,0-.6-.07-.84-.2s-.45-.31-.61-.52c-.16-.21-.28-.46-.37-.74-.08-.28-.12-.56-.12-.83,0-.25.02-.5.06-.77.04-.26.09-.53.14-.8.05-.27.1-.54.15-.8s.08-.52.1-.77c.01-.19.03-.39.04-.61.01-.21.03-.43.04-.65.01-.22.03-.44.05-.65.02-.22.05-.42.08-.61.03-.14.06-.27.11-.39s.12-.23.21-.33c.09-.09.21-.17.35-.22.14-.06.31-.08.51-.08.41,0,.7.12.86.37s.25.61.25,1.11c0,.15,0,.32-.03.52s-.05.4-.08.61c-.03.21-.07.42-.11.64-.04.21-.09.42-.14.62-.11.44-.21.86-.31,1.27s-.15.78-.15,1.11c0,.21.04.38.11.52.07.14.17.21.28.21.28,0,.57-.09.87-.26s.6-.39.88-.64c.29-.26.56-.54.82-.84.26-.3.48-.58.66-.83.17-.23.34-.52.51-.87.17-.35.34-.71.51-1.09s.33-.76.48-1.13.3-.7.42-.99c.17-.38.36-.68.59-.89.22-.21.44-.31.64-.31.25,0,.43.05.55.15s.18.28.18.54c0,.1-.01.26-.04.48-.03.21-.06.44-.09.68-.03.24-.06.47-.09.68-.03.22-.04.38-.04.49,0,.1,0,.23,0,.38,0,.15,0,.3.01.46,0,.16.02.31.03.46.02.15.03.28.05.38.03.11.07.25.13.43s.13.35.22.51.18.31.29.43c.1.12.21.18.33.18.34,0,.7-.09,1.08-.26s.77-.41,1.17-.69c.4-.28.8-.6,1.2-.96s.79-.72,1.17-1.07c.16-.15.31-.3.46-.45.15-.15.3-.29.44-.41.14-.12.28-.22.4-.3.12-.08.23-.12.32-.12.1,0,.19.03.25.1.06.06.09.12.09.18Z"/>
        <path d="M65.5,28.62c0,.15-.04.34-.11.56-.07.22-.2.48-.38.78s-.41.63-.7,1-.66.78-1.09,1.22c-.24.24-.51.48-.82.72s-.62.45-.96.64c-.34.19-.69.34-1.05.45s-.72.18-1.08.18c-.48,0-.93-.08-1.35-.25s-.79-.43-1.1-.78-.56-.79-.74-1.31c-.18-.53-.27-1.15-.27-1.86,0-.46.02-.94.07-1.44.05-.5.1-1,.17-1.51s.15-1.01.23-1.51.17-.98.26-1.43c.06-.31.11-.59.15-.83s.08-.48.11-.72c.04-.24.08-.5.12-.78.05-.28.1-.6.17-.98.03-.18.09-.36.17-.52s.18-.31.3-.44c.12-.13.26-.23.42-.3.16-.07.34-.11.54-.11.48,0,.83.22,1.05.67l-.11.56c-.06.31-.14.68-.23,1.1-.09.42-.2.88-.3,1.37s-.21,1.01-.32,1.56-.21,1.1-.29,1.66-.16,1.12-.21,1.67c-.06.55-.08,1.09-.08,1.6,0,.39.03.75.08,1.06.06.32.14.59.27.82.12.22.28.4.48.52s.43.19.7.19.56-.06.85-.17.59-.26.88-.44c.3-.18.59-.39.87-.62s.55-.47.8-.71c.25-.24.47-.47.66-.69s.35-.42.48-.58c.06-.08.12-.16.19-.25s.15-.17.23-.25.18-.14.28-.2c.1-.05.21-.08.33-.08.09,0,.17.04.23.11.06.07.1.18.1.33Z"/>
        <path d="M79.08,28.03c0,.08-.01.17-.04.28s-.07.21-.11.32c-.05.11-.1.21-.15.31-.06.1-.11.19-.16.26-.03.05-.08.11-.16.19-.07.08-.15.17-.24.27-.09.1-.19.21-.31.33-.11.12-.23.23-.35.35-.38.35-.76.7-1.15,1.04-.39.34-.79.64-1.22.91-.42.26-.87.48-1.33.64-.46.16-.95.24-1.47.24-.22,0-.45-.05-.67-.15-.23-.1-.44-.23-.63-.4s-.37-.37-.51-.61-.25-.49-.31-.77c-.12.2-.27.41-.46.63-.19.22-.4.45-.62.67s-.46.43-.7.63c-.24.2-.47.37-.67.51-.14.1-.32.2-.52.3s-.42.2-.65.29c-.23.09-.46.16-.69.21-.23.06-.44.08-.64.08-.31,0-.59-.09-.82-.27s-.43-.4-.58-.66c-.15-.26-.27-.54-.34-.83-.07-.29-.11-.56-.11-.79,0-.43.06-.87.19-1.31s.29-.88.49-1.3c.2-.42.42-.83.66-1.21s.48-.73.72-1.03c.25-.31.54-.62.89-.93.34-.31.71-.59,1.08-.83.38-.24.75-.44,1.12-.59.37-.15.69-.22.98-.22.16,0,.32,0,.48.01s.33.02.49.04c.16.02.32.05.47.09.15.04.28.09.4.15.08.05.16.15.26.28.09.13.18.28.26.43.08.15.15.3.21.45s.09.27.09.35c0,.18-.03.4-.08.65-.06.25-.12.51-.19.79s-.13.55-.19.84-.09.56-.09.82c0,.18.03.37.08.56.05.19.13.36.22.51s.21.28.35.38.29.15.46.15c.38,0,.76-.07,1.14-.21.38-.14.76-.34,1.13-.59.38-.25.76-.55,1.13-.89.38-.34.76-.71,1.14-1.11.01,0,.06-.05.16-.15.09-.1.2-.21.33-.32s.26-.22.4-.32c.14-.1.26-.15.37-.15.19,0,.31.06.37.17s.09.28.09.51ZM70.21,27.02c0-.06-.01-.13-.03-.21-.02-.08-.05-.15-.09-.22-.04-.07-.08-.13-.12-.18-.05-.05-.09-.07-.13-.07-.43,0-.82.12-1.18.35-.35.23-.72.55-1.11.94-.21.21-.44.5-.69.87s-.47.75-.68,1.16c-.21.41-.38.82-.52,1.23s-.21.77-.21,1.08c0,.08,0,.15.01.23s.03.14.06.2.07.11.12.15c.05.04.12.06.21.06.25,0,.53-.08.84-.24s.63-.37.94-.62c.32-.26.62-.55.92-.89.3-.34.55-.68.75-1.03.25-.43.46-.88.63-1.35s.26-.96.26-1.46Z"/>
      </g>
    </g>
  </g>
</svg>