<?xml version="1.0" encoding="UTF-8"?>
<svg id="Camada_2" data-name="Camada 2" xmlns="http://www.w3.org/2000/svg" viewBox="0 0 93.91 18.4">
  <defs>
    <style>
      .cls-1 {
        isolation: isolate;
      }
    </style>
  </defs>
  <g id="Camada_1-2" data-name="Camada 1">
    <g id="H3_Subtítulo_TÉCNICO_EM_ÓPTICA_font_size_28_Bold" data-name="H3 Subtítulo TÉCNICO EM ÓPTICA font size 28 Bold" class="cls-1">
      <g class="cls-1">
        <path d="M15,3.88c0,.12-.03.28-.09.48-.06.21-.13.43-.22.66-.09.23-.19.46-.3.68s-.21.4-.31.55c-.25.35-.58.71-1.01,1.09-.43.38-.94.77-1.52,1.17-.54.37-1.1.72-1.68,1.07-.58.34-1.15.66-1.71.94-.68.35-1.38.67-2.11.98s-1.44.57-2.14.8v.52c0,.09,0,.25.02.46.01.21.03.45.04.73s.04.57.05.88c.02.31.04.61.05.91.02.3.03.57.04.82s.02.46.02.62c0,.37-.12.66-.35.86-.23.21-.55.31-.94.31-1.04,0-1.56-1.76-1.56-5.28,0-.31,0-.62.03-.94.02-.32.05-.66.09-1.02.04-.36.09-.76.15-1.18.06-.42.13-.89.21-1.41.06-.43.13-.85.2-1.25.07-.4.15-.79.23-1.17s.19-.75.31-1.12c.12-.37.26-.74.43-1.12-.23.06-.47.14-.71.22-.24.08-.5.17-.76.25-.08.04-.16.06-.24.09-.08.02-.17.03-.26.03-.27,0-.5-.08-.68-.23-.18-.15-.27-.35-.27-.6,0-.3.06-.55.18-.77.12-.22.32-.42.59-.59s.62-.33,1.04-.46c.42-.13.94-.26,1.54-.38.35-.07.72-.14,1.13-.21.4-.07.81-.13,1.22-.18s.81-.1,1.2-.14c.39-.04.74-.05,1.06-.05.38,0,.75,0,1.11.01s.71.03,1.06.05c.35.03.69.07,1.03.12.34.05.69.12,1.05.21.79.2,1.43.48,1.91.87.58.45.87,1.02.87,1.72ZM8.81,3.03c-.57,0-1.19.03-1.87.1-.68.07-1.34.16-2,.27.22.22.33.51.33.88,0,.04-.03.16-.08.34-.05.18-.11.38-.18.6-.07.22-.13.42-.19.61-.06.19-.1.3-.12.35-.04.09-.07.21-.1.35-.03.14-.07.29-.1.46-.03.17-.06.34-.09.51-.03.18-.06.35-.09.51-.04.22-.08.42-.1.59-.03.17-.05.32-.06.46-.01.13-.03.26-.04.38s-.02.25-.03.38c.24-.1.51-.21.81-.34.3-.13.61-.26.93-.39.31-.13.62-.27.92-.4.3-.13.57-.25.8-.36.12-.06.26-.14.42-.22.16-.08.31-.16.48-.25.16-.09.33-.17.49-.27.17-.09.32-.18.46-.27.35-.21.71-.46,1.08-.74.37-.29.71-.59,1.02-.92.31-.33.57-.66.76-.99.2-.34.3-.65.3-.95,0-.15-.18-.27-.55-.37-.54-.14-1.1-.24-1.66-.28-.57-.04-1.07-.06-1.52-.06Z"/>
        <path d="M30.62,9.59c0,.13-.1.37-.29.72-.38.54-.79,1.08-1.25,1.61-.46.53-.95,1.03-1.47,1.51-.52.48-1.06.92-1.63,1.33-.56.41-1.13.76-1.71,1.06-.58.3-1.15.53-1.73.7-.57.17-1.14.25-1.68.25-1.24,0-2.2-.35-2.89-1.05-.69-.7-1.03-1.75-1.03-3.16,0-.56.04-1.12.12-1.66.08-.55.21-1.08.4-1.61.18-.53.42-1.05.72-1.57.3-.51.66-1.01,1.09-1.5.16-.18.34-.35.56-.52.21-.17.44-.31.68-.44.24-.13.49-.23.76-.31.26-.08.53-.12.79-.12.38,0,.71.07.99.22.28.14.51.34.69.58.18.24.31.52.4.83.09.31.13.65.13.99,0,.64-.24,1.31-.72,2-.48.69-1.14,1.4-1.98,2.12-.27.23-.59.48-.95.75-.36.27-.77.58-1.21.92.01.18.07.35.16.51.09.16.21.3.37.42.16.12.34.21.56.28.22.07.46.1.74.1.35,0,.73-.04,1.13-.14.4-.09.79-.21,1.18-.36.39-.15.77-.33,1.14-.53.37-.2.7-.41,1.01-.62.53-.38,1.05-.8,1.54-1.24.49-.44.97-.9,1.44-1.36l.57-.57c.4-.35.74-.53,1.02-.53.14,0,.24.05.3.15s.08.18.08.25ZM22.17,7.6c0-.16-.02-.31-.05-.46-.03-.14-.08-.23-.16-.27-.25,0-.51.1-.79.31-.28.21-.54.51-.8.89-.25.39-.48.85-.68,1.4-.2.55-.35,1.15-.44,1.81.34-.25.68-.52,1.02-.8.34-.28.65-.57.93-.87.28-.3.51-.62.68-.96.18-.34.27-.69.27-1.07Z"/>
        <path d="M39.47,8.42c0,.06-.01.15-.04.26-.03.11-.07.22-.13.33-.06.11-.13.2-.22.28-.09.08-.2.12-.33.13-.03,0-.09,0-.18,0-.09,0-.2,0-.3-.02-.11,0-.21-.01-.3-.02-.09,0-.16,0-.21,0-1.21.06-2.25.5-3.13,1.3-.2.18-.41.39-.62.64-.21.25-.42.51-.63.81-.21.29-.4.6-.59.94-.19.33-.36.68-.51,1.04-.12.3-.24.6-.36.92-.12.31-.22.64-.3.99-.05.19-.09.35-.11.49-.03.14-.07.31-.12.49-.04.12-.1.21-.18.3-.09.08-.19.15-.3.21-.12.05-.24.1-.36.12-.13.03-.25.05-.37.05-.46,0-.78-.21-.95-.63-.17-.42-.26-1.04-.26-1.87,0-.19,0-.36,0-.53,0-.17.01-.33.02-.5.01-.17.02-.35.04-.53.01-.18.03-.39.05-.62.03-.34.07-.74.12-1.21.05-.47.1-.94.16-1.42.06-.48.12-.94.19-1.39.07-.45.14-.83.21-1.14.09-.38.23-.68.44-.9.21-.22.51-.32.9-.32.12,0,.23.03.35.09.12.06.23.14.32.22.09.09.17.18.24.28.07.1.1.19.11.27v.19c.01.2,0,.44-.04.72-.04.27-.08.57-.15.87-.06.31-.13.62-.2.93-.07.31-.14.61-.21.9-.07.29-.13.55-.18.79-.05.24-.1.44-.12.6.25-.53.52-1.05.81-1.54.29-.49.6-.95.93-1.38.33-.42.69-.8,1.07-1.13.38-.33.79-.6,1.24-.8.35-.16.66-.28.95-.36.29-.08.55-.12.78-.12.27,0,.56.03.85.09.29.06.56.14.8.25.24.11.44.25.6.41.16.16.24.34.24.54Z"/>
        <path d="M52.4,8.58c.04.09.06.17.07.23,0,.06.01.12.01.18,0,.16-.07.4-.2.71-.13.32-.32.68-.55,1.08-.23.4-.51.83-.83,1.29-.32.46-.67.9-1.06,1.33-.18.21-.38.43-.6.67-.22.24-.45.48-.69.72-.24.24-.49.48-.74.72-.25.23-.51.45-.76.66-.22.18-.46.35-.72.5-.26.15-.52.28-.79.4s-.53.2-.79.27c-.26.06-.5.1-.72.1-.64,0-1.16-.13-1.59-.4s-.76-.63-1.01-1.11c-.25-.48-.42-1.04-.53-1.7-.1-.66-.15-1.38-.15-2.16,0-.09,0-.2,0-.35,0-.14.01-.3.02-.47.01-.17.02-.35.04-.54.01-.19.03-.38.05-.57.04-.36.08-.68.12-.96.04-.28.09-.52.15-.72.11-.37.36-.71.76-1.02.37-.3.79-.44,1.26-.44s.69.28.69.85c0,.24-.02.49-.06.76s-.08.54-.11.81c-.12.51-.2,1.01-.24,1.5-.04.49-.05.89-.05,1.21,0,.19,0,.45.02.77.01.32.04.64.09.95.05.31.13.59.24.81.11.23.26.34.46.34.1,0,.22-.02.36-.05.14-.03.29-.08.44-.14.16-.06.32-.12.48-.2.16-.08.31-.16.46-.25.38-.24.74-.51,1.11-.82.36-.31.71-.63,1.05-.96.34-.33.66-.67.96-1s.58-.64.82-.93c.21-.23.41-.47.6-.73.19-.25.38-.49.56-.73.07-.09.13-.17.19-.24.06-.07.12-.14.17-.21.06-.1.14-.2.25-.3.11-.1.25-.15.42-.15.06,0,.13.03.2.08.06.05.11.12.14.2ZM47.4,1.27c0,.08-.01.16-.04.23-.03.07-.1.16-.21.27-.11.1-.28.23-.5.39-.22.16-.53.36-.93.6-.07.04-.19.12-.35.22-.16.1-.35.21-.56.34-.21.13-.43.26-.67.41s-.45.28-.66.41c-.2.13-.38.24-.54.33-.16.09-.26.16-.32.19.01,0-.01.02-.09.05-.07.04-.15.08-.24.12-.09.04-.18.08-.26.12-.08.04-.14.06-.16.06-.3,0-.51-.08-.66-.24-.14-.16-.21-.36-.21-.58,0-.39.5-.94,1.5-1.64.29-.2.58-.4.87-.6.29-.19.57-.38.83-.56.27-.18.52-.35.75-.51.23-.16.43-.31.6-.44.12-.09.25-.17.4-.22.15-.05.3-.08.46-.08.06,0,.14.03.25.1.11.06.22.15.33.26.11.11.21.23.29.36.08.13.12.27.12.42Z"/>
        <path d="M65.39,8.05c0,.13-.03.27-.08.41s-.13.28-.22.42c-.09.13-.2.26-.32.37-.12.12-.24.21-.36.29-.26.17-.64.32-1.13.46-.49.13-1.09.19-1.79.19-.2,0-.42-.01-.64-.04-.23-.03-.46-.07-.69-.12-.23-.05-.47-.11-.69-.19-.23-.08-.45-.16-.66-.25.04.06.08.15.11.27.03.11.05.23.06.35.01.12.02.24.02.35,0,.11,0,.2,0,.27,0,.46-.08.92-.24,1.38-.16.46-.38.9-.64,1.32-.27.42-.57.81-.91,1.16-.34.36-.69.67-1.04.93-.28.21-.59.39-.94.54-.34.15-.7.28-1.08.38-.38.1-.77.18-1.17.23-.4.05-.81.08-1.22.08-.34,0-.66-.08-.98-.25-.31-.17-.58-.38-.82-.64-.23-.26-.42-.56-.56-.89-.14-.33-.21-.66-.21-.99,0-.58.08-1.13.23-1.67.16-.53.36-1.05.62-1.55.26-.5.56-.99.91-1.47.35-.48.71-.96,1.09-1.42.22-.27.48-.54.77-.8.29-.26.59-.49.92-.7.32-.21.65-.37.98-.49.33-.12.64-.18.95-.18.25,0,.47.03.66.09s.35.14.51.24c.16.1.31.23.45.38.14.15.3.32.46.51l.23.25c.06.06.21.14.47.26.26.12.56.23.92.34.35.11.73.21,1.12.3.39.09.74.13,1.06.13s.63,0,.92-.01c.29,0,.58-.03.87-.08.29-.05.6-.12.92-.22s.68-.23,1.07-.41c.04.06.06.15.08.25.02.1.03.18.03.24ZM56.98,10.49c0-.18,0-.37-.03-.56-.02-.19-.06-.38-.11-.55-.06-.17-.14-.32-.24-.44-.1-.13-.23-.21-.4-.25-.25-.06-.46-.14-.62-.21-.16-.08-.29-.15-.38-.21-.09-.06-.16-.12-.2-.16-.04-.04-.06-.06-.08-.06-.06,0-.14.05-.24.15-.1.1-.22.22-.35.37-.13.15-.26.31-.39.49-.13.17-.26.34-.38.49-.15.19-.29.37-.43.55-.13.18-.26.36-.39.55-.13.19-.25.39-.37.6-.12.21-.25.44-.38.69-.12.23-.2.51-.26.85-.06.34-.09.65-.09.95,0,.12.01.25.04.37.03.13.07.24.13.34.06.1.13.18.23.25.09.06.21.1.35.1.33,0,.61-.02.83-.05.22-.03.43-.09.63-.17s.39-.2.59-.34c.2-.14.44-.32.72-.53.13-.1.26-.22.39-.35.13-.13.26-.28.39-.43s.26-.32.38-.49c.12-.17.23-.33.34-.49.06-.09.11-.2.15-.34.04-.14.07-.28.1-.43.03-.14.04-.28.05-.4.01-.12.02-.21.02-.26h0Z"/>
        <path d="M80.22,9.59c0,.13-.02.26-.05.38-.04.13-.1.27-.2.42s-.23.34-.39.55c-.16.21-.37.47-.63.77h0c-.27.3-.55.61-.85.92-.3.31-.62.62-.97.95-.33.32-.66.61-1,.88-.33.27-.65.5-.96.69-.31.2-.6.35-.88.46-.27.11-.52.17-.74.17-.5,0-.9-.12-1.19-.35-.3-.23-.53-.55-.71-.94-.18-.4-.31-.86-.41-1.4-.09-.54-.18-1.11-.26-1.72-.2.3-.4.61-.62.95-.22.34-.45.67-.69,1-.24.33-.49.65-.76.96-.26.31-.53.59-.81.85-.72.66-1.46,1.15-2.23,1.48-.76.33-1.55.49-2.36.49-.28,0-.53-.07-.74-.22-.21-.14-.38-.33-.52-.56s-.24-.48-.31-.75c-.07-.27-.1-.53-.1-.79,0-.34.01-.63.04-.87.03-.24.07-.45.13-.61.31-.89.66-1.73,1.03-2.53.38-.8.85-1.58,1.4-2.36.35-.49.69-.92,1.03-1.3.34-.38.7-.69,1.08-.95.38-.26.79-.45,1.23-.58.44-.13.94-.19,1.48-.19.46,0,.84.17,1.14.51.3.34.51.81.63,1.42.05-.27.1-.59.15-.93.05-.35.09-.71.14-1.09s.08-.78.12-1.19c.04-.41.07-.82.1-1.22.04-.56.08-1.04.14-1.43.06-.39.13-.66.22-.8.12-.19.26-.34.43-.47.17-.12.41-.18.7-.18.18,0,.35.03.51.08.16.05.31.12.43.21.13.08.23.18.3.28.07.1.11.21.11.31,0,.09-.02.23-.05.42-.04.19-.08.44-.15.74-.06.31-.14.68-.22,1.13-.09.44-.18.97-.29,1.58,0,.04,0,.12-.03.24-.02.12-.04.25-.07.4-.03.15-.05.3-.08.46-.03.16-.05.31-.08.45-.03.14-.05.26-.07.36-.02.1-.03.16-.04.18-.09.56-.16,1.09-.22,1.57-.06.48-.09.97-.09,1.45,0,.22,0,.45,0,.69,0,.25,0,.49.02.74,0,.25.02.5.03.74.01.25.04.48.06.7,0,.05.03.11.05.18.03.07.07.13.11.19.05.06.1.11.17.16s.14.06.22.06c.1,0,.21-.02.33-.06.12-.04.24-.09.36-.15.13-.06.25-.13.37-.2.12-.07.23-.14.32-.2.38-.25.76-.53,1.13-.82.37-.29.75-.61,1.12-.96.37-.34.74-.67,1.11-.99s.69-.63.98-.94c.11-.11.25-.16.41-.16.12,0,.21.05.29.16.08.11.11.3.11.56ZM69.02,11.32c.06-.06.12-.14.19-.24.07-.09.14-.2.21-.3.07-.11.14-.22.21-.33.07-.11.12-.21.17-.31-.15-.1-.26-.24-.33-.41-.07-.17-.1-.34-.1-.51,0-.07,0-.16.02-.25.01-.09.02-.19.04-.29.01-.1.03-.19.04-.28.01-.09.02-.15.02-.2,0-.09-.03-.19-.09-.3-.06-.1-.13-.2-.21-.29-.08-.09-.17-.16-.27-.22-.1-.06-.19-.09-.27-.09-.17,0-.38.1-.61.31-.23.21-.47.46-.73.77-.25.31-.5.65-.75,1.02-.25.37-.48.71-.69,1.03-.23.36-.43.7-.6,1.01-.17.31-.31.6-.43.85-.38.82-.57,1.47-.57,1.95,0,.43.08.65.24.65.14,0,.33-.05.56-.15.23-.1.5-.26.81-.47.33-.22.62-.44.88-.64.26-.21.49-.41.68-.6.4-.41.73-.76.99-1.05.25-.29.46-.51.61-.69Z"/>
        <path d="M93.91,8.05c0,.13-.03.27-.08.41s-.13.28-.22.42c-.09.13-.2.26-.32.37-.12.12-.24.21-.36.29-.26.17-.64.32-1.13.46-.49.13-1.09.19-1.79.19-.2,0-.42-.01-.64-.04-.23-.03-.46-.07-.69-.12-.23-.05-.47-.11-.69-.19-.23-.08-.45-.16-.66-.25.04.06.08.15.11.27.03.11.05.23.06.35.01.12.02.24.02.35,0,.11,0,.2,0,.27,0,.46-.08.92-.24,1.38-.16.46-.38.9-.64,1.32-.27.42-.57.81-.91,1.16-.34.36-.69.67-1.04.93-.28.21-.59.39-.94.54-.34.15-.7.28-1.08.38-.38.1-.77.18-1.17.23-.4.05-.81.08-1.22.08-.34,0-.66-.08-.98-.25-.31-.17-.58-.38-.82-.64-.23-.26-.42-.56-.56-.89-.14-.33-.21-.66-.21-.99,0-.58.08-1.13.23-1.67.16-.53.36-1.05.62-1.55.26-.5.56-.99.91-1.47.35-.48.71-.96,1.09-1.42.22-.27.48-.54.77-.8.29-.26.59-.49.92-.7.32-.21.65-.37.98-.49.33-.12.64-.18.95-.18.25,0,.47.03.66.09s.35.14.51.24c.16.1.31.23.45.38.14.15.3.32.46.51l.23.25c.06.06.21.14.47.26.26.12.56.23.92.34.35.11.73.21,1.12.3.39.09.74.13,1.06.13s.63,0,.92-.01c.29,0,.58-.03.87-.08.29-.05.6-.12.92-.22s.68-.23,1.07-.41c.04.06.06.15.08.25.02.1.03.18.03.24ZM85.5,10.49c0-.18,0-.37-.03-.56-.02-.19-.06-.38-.11-.55-.06-.17-.14-.32-.24-.44-.1-.13-.23-.21-.4-.25-.25-.06-.46-.14-.62-.21-.16-.08-.29-.15-.38-.21-.09-.06-.16-.12-.2-.16-.04-.04-.06-.06-.08-.06-.06,0-.14.05-.24.15-.1.1-.22.22-.35.37-.13.15-.26.31-.39.49-.13.17-.26.34-.38.49-.15.19-.29.37-.43.55-.13.18-.26.36-.39.55-.13.19-.25.39-.37.6-.12.21-.25.44-.38.69-.12.23-.2.51-.26.85-.06.34-.09.65-.09.95,0,.12.01.25.04.37.03.13.07.24.13.34.06.1.13.18.23.25.09.06.21.1.35.1.33,0,.61-.02.83-.05.22-.03.43-.09.63-.17s.39-.2.59-.34c.2-.14.44-.32.72-.53.13-.1.26-.22.39-.35.13-.13.26-.28.39-.43s.26-.32.38-.49c.12-.17.23-.33.34-.49.06-.09.11-.2.15-.34.04-.14.07-.28.1-.43.03-.14.04-.28.05-.4.01-.12.02-.21.02-.26h0Z"/>
      </g>
    </g>
  </g>
</svg>