<?xml version="1.0" encoding="UTF-8"?>
<svg id="Camada_2" data-name="Camada 2" xmlns="http://www.w3.org/2000/svg" xmlns:xlink="http://www.w3.org/1999/xlink" viewBox="0 0 119.95 162.79">
  <defs>
    <style>
      .cls-1 {
        fill-rule: evenodd;
      }

      .cls-1, .cls-2 {
        fill: #cebb32;
      }

      .cls-3 {
        fill: none;
        stroke: #cebb32;
        stroke-miterlimit: 10;
        stroke-width: 8px;
      }

      .cls-4 {
        fill: rgba(206, 187, 50, .35);
      }

      .cls-5 {
        clip-path: url(#clippath);
      }
    </style>
    <clipPath id="clippath">
      <polygon class="cls-2" points="77.06 4 98.42 25.42 115.95 43.7 77.06 43.7 77.06 4"/>
    </clipPath>
  </defs>
  <g id="Camada_1-2" data-name="Camada 1">
    <g>
      <g>
        <path class="cls-3" d="M14.01,4h63.66l19.22,19.85,19.06,19.28v105.64c0,5.53-4.48,10.01-10.01,10.01H14.01c-5.53,0-10.01-4.48-10.01-10.01V14.01c0-5.53,4.48-10.01,10.01-10.01Z"/>
        <g>
          <polygon class="cls-2" points="77.06 4 98.42 25.42 115.95 43.7 77.06 43.7 77.06 4"/>
          <g class="cls-5">
            <path class="cls-4" d="M77.67,4.43v38.68h38.28"/>
          </g>
        </g>
      </g>
      <path class="cls-1" d="M29.12,95.79l7.79,15.58c.77,1.55,2.98,1.55,3.75,0l16.44-32.8c.3-.59.3-1.29,0-1.88l-7.79-15.57c-.77-1.54-2.98-1.55-3.75,0l-16.44,32.8c-.3.59-.3,1.29,0,1.88ZM68.74,92.93h15.61c1.54,0,2.56-1.61,1.89-3l-16.49-34.4c-.35-.73-1.08-1.19-1.89-1.19h-15.61c-1.54,0-2.56,1.61-1.89,3l16.49,34.4c.35.73,1.08,1.19,1.89,1.19ZM43.64,110.83l7.71-13.35c.37-.65,1.07-1.05,1.82-1.05h32.64c1.61,0,2.62,1.75,1.82,3.15l-7.71,13.35c-.37.65-1.07,1.05-1.82,1.05h-32.64c-1.61,0-2.62-1.75-1.82-3.15Z"/>
    </g>
  </g>
</svg>