<?xml version="1.0" encoding="UTF-8"?>
<svg id="Camada_2" data-name="Camada 2" xmlns="http://www.w3.org/2000/svg" xmlns:xlink="http://www.w3.org/1999/xlink" viewBox="0 0 111.95 154.79">
  <defs>
    <style>
      .cls-1 {
        fill: rgba(33, 31, 31, .35);
      }

      .cls-2 {
        fill: #fff;
        fill-rule: evenodd;
      }

      .cls-3 {
        fill: none;
      }

      .cls-4 {
        clip-path: url(#clippath-1);
      }

      .cls-5 {
        fill: #cebb32;
      }

      .cls-6 {
        clip-path: url(#clippath);
      }
    </style>
    <clipPath id="clippath">
      <path class="cls-5" d="M10.01,0h63.66l19.22,19.85,19.06,19.28v105.64c0,5.53-4.48,10.01-10.01,10.01H10.01c-5.53,0-10.01-4.48-10.01-10.01V10.01C0,4.48,4.48,0,10.01,0Z"/>
    </clipPath>
    <clipPath id="clippath-1">
      <polygon class="cls-3" points="73.06 0 94.42 21.42 111.95 39.7 73.06 39.7 73.06 0"/>
    </clipPath>
  </defs>
  <g id="Camada_1-2" data-name="Camada 1">
    <g>
      <g>
        <path class="cls-1" d="M19.6,3.99v39.07h38.67"/>
        <g>
          <path class="cls-5" d="M10.01,0h63.66l19.22,19.85,19.06,19.28v105.64c0,5.53-4.48,10.01-10.01,10.01H10.01c-5.53,0-10.01-4.48-10.01-10.01V10.01C0,4.48,4.48,0,10.01,0Z"/>
          <g class="cls-6">
            <path class="cls-5" d="M73.67.43H10.53C5,.43.26,5.17.26,10.7v133.4c0,5.53,4.74,10.26,10.26,10.26h91.16c5.53,0,10.26-4.74,10.26-10.26V39.11L73.67.43Z"/>
          </g>
        </g>
        <g class="cls-4">
          <path class="cls-1" d="M73.67.43v38.68h38.28"/>
        </g>
      </g>
      <path class="cls-2" d="M25.12,91.79l7.79,15.58c.77,1.55,2.98,1.55,3.75,0l16.44-32.8c.3-.59.3-1.29,0-1.88l-7.79-15.57c-.77-1.54-2.98-1.55-3.75,0l-16.44,32.8c-.3.59-.3,1.29,0,1.88ZM64.74,88.93h15.61c1.54,0,2.56-1.61,1.89-3l-16.49-34.4c-.35-.73-1.08-1.19-1.89-1.19h-15.61c-1.54,0-2.56,1.61-1.89,3l16.49,34.4c.35.73,1.08,1.19,1.89,1.19ZM39.64,106.83l7.71-13.35c.37-.65,1.07-1.05,1.82-1.05h32.64c1.61,0,2.62,1.75,1.82,3.15l-7.71,13.35c-.37.65-1.07,1.05-1.82,1.05h-32.64c-1.61,0-2.62-1.75-1.82-3.15Z"/>
    </g>
  </g>
</svg>