<?xml version="1.0" encoding="UTF-8"?>
<svg id="Camada_2" data-name="Camada 2" xmlns="http://www.w3.org/2000/svg" xmlns:xlink="http://www.w3.org/1999/xlink" viewBox="0 0 183.77 152.16">
  <defs>
    <style>
      .cls-1, .cls-2 {
        fill: #fff;
      }

      .cls-3 {
        fill: url(#Gradiente_sem_nome_4);
      }

      .cls-2 {
        stroke: #fff;
        stroke-linejoin: round;
        stroke-width: 2px;
      }
    </style>
    <linearGradient id="Gradiente_sem_nome_4" data-name="Gradiente sem nome 4" x1="0" y1="76.08" x2="183.77" y2="76.08" gradientUnits="userSpaceOnUse">
      <stop offset="0" stop-color="#92acce"/>
      <stop offset="1" stop-color="#207893"/>
    </linearGradient>
  </defs>
  <g id="Camada_1-2" data-name="Camada 1">
    <g>
      <path class="cls-3" d="M164.92,152.16H18.85c-10.39,0-18.85-8.46-18.85-18.85V18.85C0,8.46,8.46,0,18.85,0h28.72c3.74,0,7.37,1.1,10.48,3.18s5.51,5.02,6.94,8.48l3.49,8.46h96.44c10.39,0,18.85,8.46,18.85,18.85v94.34c0,10.39-8.45,18.85-18.85,18.85Z"/>
      <path class="cls-1" d="M110.48,70.59c1.32-.63,2.85.33,2.85,1.79v18.77c0,.24-.09.46-.27.63-.17.18-.38.26-.63.26h-41.12c-.24,0-.46-.09-.63-.26-.18-.17-.26-.38-.27-.63v-18.77c0-1.47,1.53-2.43,2.85-1.79l17.55,8.43c.71.34,1.41.34,2.12,0l17.55-8.43Z"/>
      <path class="cls-1" d="M118.15,57.92c1.5.72,1.5,2.86,0,3.59l-3.44,1.65-21.98,10.56c-.54.26-1.18.26-1.72,0l-21.98-10.56-3.44-1.65c-1.5-.72-1.5-2.86,0-3.59l25.41-12.21c.54-.26,1.18-.26,1.72,0l25.41,12.21Z"/>
      <g>
        <path class="cls-2" d="M56.29,125.88h-6.86l-1.26,3.5h-2.17l5.69-15.63h2.37l5.66,15.63h-2.17l-1.26-3.5ZM55.7,124.21l-2.84-7.94-2.84,7.94h5.69Z"/>
        <path class="cls-2" d="M72.73,129.37l-3.74-6.43h-2.48v6.43h-2.05v-15.72h5.08c1.19,0,2.19.2,3.01.61.82.41,1.43.96,1.84,1.65.41.69.61,1.48.61,2.37,0,1.08-.31,2.04-.94,2.87-.62.83-1.56,1.38-2.81,1.65l3.95,6.59h-2.46ZM66.51,121.3h3.02c1.11,0,1.95-.27,2.5-.82.56-.55.83-1.28.83-2.2s-.27-1.65-.82-2.17c-.55-.51-1.39-.77-2.52-.77h-3.02v5.96Z"/>
        <path class="cls-2" d="M90.11,113.65v1.67h-4.29v14.06h-2.05v-14.06h-4.31v-1.67h10.65Z"/>
        <path class="cls-2" d="M96.94,113.65v15.72h-2.05v-15.72h2.05Z"/>
        <path class="cls-2" d="M114.61,118.21c-.44-.92-1.07-1.63-1.9-2.13-.83-.5-1.79-.76-2.89-.76s-2.09.25-2.97.76-1.57,1.23-2.08,2.17c-.5.94-.76,2.03-.76,3.26s.25,2.32.76,3.25c.5.93,1.2,1.65,2.08,2.15s1.87.76,2.97.76c1.53,0,2.8-.46,3.79-1.38.99-.92,1.57-2.16,1.74-3.72h-6.27v-1.67h8.46v1.58c-.12,1.29-.53,2.48-1.22,3.55-.69,1.08-1.6,1.93-2.73,2.55-1.13.62-2.38.94-3.77.94-1.46,0-2.79-.34-3.99-1.03-1.2-.68-2.15-1.64-2.85-2.85s-1.05-2.59-1.05-4.13.35-2.91,1.05-4.14c.7-1.23,1.65-2.18,2.85-2.86,1.2-.68,2.53-1.03,3.99-1.03,1.67,0,3.15.41,4.43,1.24,1.29.83,2.22,1.99,2.81,3.5h-2.46Z"/>
        <path class="cls-2" d="M125.64,128.51c-1.2-.68-2.15-1.64-2.85-2.87-.7-1.23-1.05-2.61-1.05-4.14s.35-2.91,1.05-4.14c.7-1.23,1.65-2.18,2.85-2.86,1.2-.68,2.53-1.03,3.99-1.03s2.81.34,4.02,1.03c1.2.68,2.15,1.64,2.84,2.85.69,1.22,1.04,2.6,1.04,4.15s-.35,2.93-1.04,4.15c-.69,1.22-1.64,2.17-2.84,2.85-1.2.68-2.54,1.03-4.02,1.03s-2.79-.34-3.99-1.03ZM132.6,126.98c.88-.51,1.57-1.24,2.08-2.19.5-.95.76-2.05.76-3.29s-.25-2.37-.76-3.31c-.5-.94-1.19-1.67-2.06-2.18-.87-.51-1.87-.77-2.98-.77s-2.11.26-2.98.77c-.87.51-1.56,1.24-2.06,2.18-.5.94-.76,2.04-.76,3.31s.25,2.35.76,3.29c.5.95,1.2,1.68,2.08,2.19.88.51,1.87.77,2.97.77s2.09-.26,2.97-.77Z"/>
      </g>
    </g>
  </g>
</svg>