<?xml version="1.0" encoding="UTF-8"?>
<svg id="Camada_2" data-name="Camada 2" xmlns="http://www.w3.org/2000/svg" xmlns:xlink="http://www.w3.org/1999/xlink" viewBox="0 0 110.73 153.11">
  <defs>
    <style>
      .cls-1 {
        fill: #fff;
      }

      .cls-2 {
        fill: #0b160f;
      }

      .cls-3 {
        fill: none;
      }

      .cls-4 {
        fill: url(#Gradiente_sem_nome_10-2);
      }

      .cls-5 {
        clip-path: url(#clippath-1);
      }

      .cls-6 {
        isolation: isolate;
      }

      .cls-7 {
        fill: url(#Gradiente_sem_nome_10);
        fill-opacity: .35;
      }

      .cls-8 {
        fill: rgba(11, 22, 15, .35);
      }

      .cls-9 {
        fill: url(#Gradiente_sem_nome_10-4);
      }

      .cls-10 {
        opacity: .26;
      }

      .cls-11 {
        clip-path: url(#clippath-2);
      }

      .cls-12 {
        fill: url(#Gradiente_sem_nome_10-3);
      }

      .cls-13 {
        clip-path: url(#clippath);
      }
    </style>
    <linearGradient id="Gradiente_sem_nome_10" data-name="Gradiente sem nome 10" x1="44.96" y1="52.57" x2="102.22" y2="141.25" gradientUnits="userSpaceOnUse">
      <stop offset="0" stop-color="#5625a9"/>
      <stop offset="1" stop-color="#7fcde9"/>
    </linearGradient>
    <linearGradient id="Gradiente_sem_nome_10-2" data-name="Gradiente sem nome 10" x1="34.15" y1="59.55" x2="91.4" y2="148.23" xlink:href="#Gradiente_sem_nome_10"/>
    <linearGradient id="Gradiente_sem_nome_10-3" data-name="Gradiente sem nome 10" x1="34.15" y1="59.55" x2="91.4" y2="148.23" xlink:href="#Gradiente_sem_nome_10"/>
    <clipPath id="clippath">
      <path class="cls-12" d="M9.9,0h62.97l19.01,19.63,18.86,19.07v104.5c0,5.47-4.43,9.9-9.9,9.9H9.9c-5.47,0-9.9-4.43-9.9-9.9V9.9C0,4.43,4.43,0,9.9,0Z"/>
    </clipPath>
    <linearGradient id="Gradiente_sem_nome_10-4" data-name="Gradiente sem nome 10" x1="34.41" y1="59.38" x2="91.67" y2="148.06" xlink:href="#Gradiente_sem_nome_10"/>
    <clipPath id="clippath-1">
      <polygon class="cls-2" points="72.27 0 93.39 21.19 110.73 39.27 72.27 39.27 72.27 0"/>
    </clipPath>
    <clipPath id="clippath-2">
      <rect class="cls-3" x="16.11" y="69.62" width="76.54" height="24.97"/>
    </clipPath>
  </defs>
  <g id="Camada_1-2" data-name="Camada 1">
    <g>
      <g class="cls-6">
        <g>
          <path class="cls-7" d="M19.39,3.94v38.65h38.25"/>
          <g>
            <path class="cls-4" d="M9.9,0h62.97l19.01,19.63,18.86,19.07v104.5c0,5.47-4.43,9.9-9.9,9.9H9.9c-5.47,0-9.9-4.43-9.9-9.9V9.9C0,4.43,4.43,0,9.9,0Z"/>
            <g class="cls-13">
              <path class="cls-9" d="M72.87.43H10.41C4.95.43.26,5.11.26,10.58v131.95c0,5.47,4.68,10.15,10.15,10.15h90.17c5.47,0,10.15-4.68,10.15-10.15V38.69L72.87.43Z"/>
            </g>
          </g>
          <g class="cls-10">
            <polygon class="cls-2" points="72.27 0 93.39 21.19 110.73 39.27 72.27 39.27 72.27 0"/>
            <g class="cls-5">
              <path class="cls-8" d="M72.87.43v38.26h37.87"/>
            </g>
          </g>
        </g>
      </g>
      <g class="cls-11">
        <path class="cls-1" d="M91.87,86.48c-.13,0-.25.08-.31.26-.78,2.23-1.84,3.56-2.71,3.56-.5,0-.7-.56-.7-1.43,0-2.18,1.31-6.82,1.97-8.93.07-.25.13-.48.13-.68,0-.61-.34-.92-1.16-.92-.9,0-1.86.35-2.8,1.99-.32-1.45-1.31-2.08-2.67-2.08-1.58,0-3.11,1.02-4.37,2.67s-2.74,2.19-3.86,1.93c.8-1.96,1.1-3.42,1.1-4.52,0-1.7-.84-2.73-2.21-2.73-2.07,0-3.27,1.98-3.27,4.06,0,1.6.73,3.26,2.33,4.06-1.34,3.04-3.3,5.78-4.05,5.78-.96,0-1.24-4.7-1.19-8.07.03-1.93.2-2.03.2-2.61,0-.34-.22-.56-1.09-.56-2.04,0-2.67,1.72-2.76,3.7-.03.75-.15,1.5-.35,2.22-.85,3.04-2.61,5.34-3.75,5.34-.52,0-.68-.53-.68-1.22,0-2.18,1.22-4.91,1.22-7.25,0-1.71-.75-2.79-2.16-2.79-1.66,0-3.87,1.99-5.96,5.7.69-2.85.97-5.6-1.06-5.6-.44,0-.87.12-1.26.33-.26.13-.43.4-.42.7.2,3.03-2.45,10.79-4.94,10.79-.45,0-.68-.49-.68-1.28,0-2.19,1.31-6.81,1.96-8.93.09-.27.13-.51.13-.71,0-.58-.36-.87-1.17-.87-.89,0-1.86.34-2.79,1.99-.33-1.45-1.31-2.08-2.67-2.08-2.25,0-4.75,2.38-5.86,5.47-1.48,4.13-4.45,8.12-8.46,8.12-3.63,0-5.55-3.02-5.55-7.8,0-6.93,5.07-12.57,8.83-12.57,1.8,0,2.66,1.14,2.66,2.89,0,2.12-1.19,3.12-1.19,3.92,0,.25.2.49.61.49,1.63,0,3.56-1.92,3.56-4.53s-2.12-4.53-5.88-4.53c-6.21,0-12.45,6.25-12.45,14.25,0,6.37,3.14,10.21,8.58,10.21,3.71,0,6.94-2.88,8.69-6.25.2,2.78,1.47,4.25,3.4,4.25,1.71,0,3.11-1.02,4.17-2.82.41,1.89,1.49,2.8,2.89,2.8,1.61,0,2.96-1.02,4.25-2.92-.02,1.49.32,2.89,1.61,2.89.61,0,1.34-.14,1.47-.68,1.36-5.63,4.73-10.23,5.76-10.23.3,0,.39.3.39.64,0,1.53-1.08,4.67-1.08,6.66,0,2.16.92,3.59,2.82,3.59,2.1,0,4.25-2.58,5.67-6.35.45,3.52,1.41,6.36,2.92,6.36,1.85,0,5.14-3.91,7.14-8.03.78.1,1.95.08,3.08-.72-.49,1.21-.76,2.55-.76,3.88,0,3.84,1.83,4.91,3.4,4.91,1.71,0,3.1-1.02,4.17-2.82.35,1.62,1.25,2.79,2.9,2.79,2.58,0,4.81-2.63,4.81-4.8,0-.55-.24-.9-.52-.9ZM38.34,90.1c-1.05,0-1.45-1.05-1.45-2.62,0-2.71,1.86-7.25,3.82-7.25.86,0,1.18,1.01,1.18,2.25,0,2.75-1.76,7.62-3.55,7.62ZM74.01,81.99c-.62-.74-.85-1.75-.85-2.64,0-1.11.41-2.04.89-2.04s.64.48.64,1.14c0,1.1-.4,2.72-.68,3.54ZM82.09,90.1c-1.05,0-1.45-1.21-1.45-2.62,0-2.62,1.86-7.25,3.84-7.25.86,0,1.16,1,1.16,2.25,0,2.75-1.73,7.62-3.55,7.62Z"/>
      </g>
    </g>
  </g>
</svg>