<?xml version="1.0" encoding="UTF-8"?>
<svg id="Camada_2" data-name="Camada 2" xmlns="http://www.w3.org/2000/svg" viewBox="0 0 125.24 122.01">
  <defs>
    <style>
      .cls-1 {
        fill: #fff;
      }

      .cls-2 {
        fill: #92acce;
      }
    </style>
  </defs>
  <g id="Camada_1-2" data-name="Camada 1">
    <g>
      <rect class="cls-2" width="125.24" height="122.01"/>
      <path class="cls-1" d="M83.44,25.18h0c-4.36-4.2-10.08-6.32-17.01-6.32-4.52,0-8.58.94-12.09,2.8-3.58,1.9-6.39,4.61-8.35,8.08-1.93,3.41-2.91,7.39-2.91,11.81v3.02h14.05v-3.02c0-2.97.79-5.2,2.42-6.81,1.63-1.62,3.91-2.4,6.97-2.4s5.23.82,6.89,2.52c1.68,1.71,2.49,4.06,2.49,7.18,0,6.36-2.77,7.91-3.68,8.43-3.01,1.69-7.37,2.55-12.97,2.55h-5.79l.52,21.49h13.24l.28-9.39c6.25-.43,11.42-2.28,15.39-5.52,4.76-3.88,7.17-9.78,7.17-17.55,0-6.95-2.22-12.62-6.61-16.85Z"/>
      <path class="cls-1" d="M66.73,82.1h0c-1.65-1.79-3.79-2.73-6.17-2.73s-4.6.93-6.29,2.7c-1.64,1.72-2.51,3.93-2.51,6.39s.87,4.66,2.51,6.39c1.68,1.76,3.85,2.7,6.29,2.7s4.52-.94,6.18-2.73c1.62-1.74,2.43-3.88,2.43-6.35s-.82-4.61-2.43-6.35Z"/>
    </g>
  </g>
</svg>