<?xml version="1.0" encoding="UTF-8"?>
<svg id="Camada_2" data-name="Camada 2" xmlns="http://www.w3.org/2000/svg" xmlns:xlink="http://www.w3.org/1999/xlink" viewBox="0 0 119.78 162.03">
  <defs>
    <style>
      .cls-1 {
        fill: none;
        stroke: #2b8e55;
        stroke-miterlimit: 10;
        stroke-width: 8px;
      }

      .cls-2 {
        fill: #2b8e55;
      }

      .cls-3 {
        fill: rgba(43, 142, 85, .35);
      }

      .cls-4 {
        clip-path: url(#clippath);
      }
    </style>
    <clipPath id="clippath">
      <polyline class="cls-2" points="116.85 43.63 76.61 43.63 76.61 4"/>
    </clipPath>
  </defs>
  <g id="Camada_1-2" data-name="Camada 1">
    <g>
      <g>
        <path class="cls-1" d="M77.47,4H14.27c-5.53,0-10.27,4.74-10.27,10.27v133.49c0,5.53,4.74,10.27,10.27,10.27h91.24c5.53,0,10.27-4.74,10.27-10.27V42.71L77.47,4Z"/>
        <g>
          <polyline class="cls-2" points="116.85 43.63 76.61 43.63 76.61 4"/>
          <g class="cls-4">
            <path class="cls-3" d="M77.47,4v38.71h38.32"/>
          </g>
        </g>
        <path class="cls-2" d="M94.46,88.52H27.7c-1.97,0-3.55-1.58-3.55-3.55s1.58-3.55,3.55-3.55h66.76c1.97,0,3.55,1.58,3.55,3.55s-1.58,3.55-3.55,3.55Z"/>
        <path class="cls-2" d="M64.04,129.99H27.7c-1.97,0-3.55-1.58-3.55-3.55s1.58-3.55,3.55-3.55h36.34c1.97,0,3.55,1.58,3.55,3.55,0,1.58-1.58,3.55-3.55,3.55Z"/>
        <path class="cls-2" d="M81.02,109.06H27.7c-1.97,0-3.55-1.58-3.55-3.55s1.58-3.55,3.55-3.55h53.32c1.98,0,3.56,1.58,3.56,3.55s-1.58,3.55-3.56,3.55Z"/>
      </g>
      <path class="cls-2" d="M65.51,68.14c-.21-5.19,0-26.75,0-26.97v-1.48s-16.52-16.32-16.52-16.32h-24.6s.1,48.39.1,48.39l41.17.03-.15-3.64ZM45.09,32.11l11.58,11.59v19.23h-23.54v-30.82h11.96Z"/>
      <polygon class="cls-2" points="53.64 23.56 64.85 23.56 65.47 24.19 65.47 34.99 64.43 35.64 63.17 35.21 53.06 24.54 53.64 23.56"/>
    </g>
  </g>
</svg>