<?xml version="1.0" encoding="UTF-8"?>
<svg id="Camada_2" data-name="Camada 2" xmlns="http://www.w3.org/2000/svg" xmlns:xlink="http://www.w3.org/1999/xlink" viewBox="0 0 120.29 162.73">
  <defs>
    <style>
      .cls-1 {
        fill: none;
        stroke: #b64c2d;
        stroke-miterlimit: 10;
        stroke-width: 8px;
      }

      .cls-2 {
        fill: #b64c2d;
      }

      .cls-3 {
        clip-path: url(#clippath);
      }

      .cls-4 {
        opacity: .35;
      }
    </style>
    <clipPath id="clippath">
      <polygon class="cls-2" points="76.94 4 101.76 28.21 117.36 43.81 76.94 43.81 76.94 4"/>
    </clipPath>
  </defs>
  <g id="Camada_1-2" data-name="Camada 1">
    <g>
      <g>
        <g>
          <polygon class="cls-2" points="76.94 4 101.76 28.21 117.36 43.81 76.94 43.81 76.94 4"/>
          <g class="cls-3">
            <g class="cls-4">
              <polyline class="cls-2" points="77.8 4 77.8 42.88 116.29 42.88"/>
            </g>
          </g>
        </g>
        <path class="cls-2" d="M94.86,88.9H27.81c-1.98,0-3.57-1.59-3.57-3.57s1.59-3.57,3.57-3.57h67.06c1.98,0,3.57,1.59,3.57,3.57s-1.59,3.57-3.57,3.57Z"/>
        <path class="cls-2" d="M64.31,130.56H27.81c-1.98,0-3.57-1.59-3.57-3.57s1.59-3.57,3.57-3.57h36.5c1.98,0,3.57,1.59,3.57,3.57,0,1.59-1.59,3.57-3.57,3.57Z"/>
        <path class="cls-2" d="M81.37,109.53H27.81c-1.98,0-3.57-1.59-3.57-3.57s1.59-3.57,3.57-3.57h53.56c1.99,0,3.58,1.59,3.58,3.57s-1.59,3.57-3.58,3.57Z"/>
        <path class="cls-2" d="M94.86,88.9H27.81c-1.98,0-3.57-1.59-3.57-3.57s1.59-3.57,3.57-3.57h67.06c1.98,0,3.57,1.59,3.57,3.57s-1.59,3.57-3.57,3.57Z"/>
        <path class="cls-1" d="M77.8,4H14.32c-5.55,0-10.32,4.76-10.32,10.32v134.1c0,5.55,4.76,10.31,10.32,10.31h91.65c5.55,0,10.32-4.76,10.32-10.31V42.88L77.8,4Z"/>
      </g>
      <path class="cls-2" d="M35.95,48.54c-.4.81-1.21,1.62-2.02,2.02-.8.4-2.02.81-3.23.81h-2.43v6.06h-4.04v-16.97h6.46c1.21,0,2.43.4,3.23.81.81.4,1.62,1.21,2.02,2.02s.81,1.62.81,2.83c0,.4-.4,1.61-.81,2.42ZM31.91,47.32c.4-.4.4-.8.4-1.61s0-1.21-.4-1.62c0-.4-.81-.4-1.62-.4h-2.02v4.04h2.02c.81,0,1.62,0,1.62-.4Z"/>
      <path class="cls-2" d="M50.9,48.54c-.4.81-1.21,1.62-2.02,2.02s-2.02.81-3.23.81h-2.83v6.06h-4.04v-16.97h6.46c1.21,0,2.43.4,3.23.81,1.21.4,2.02.81,2.43,1.62.4.81.8,1.62.8,2.83-.4.81-.4,2.02-.8,2.83ZM46.86,47.32c.4-.4.4-.8.4-1.61s0-1.21-.4-1.62-1.21-.4-1.62-.4h-2.43v4.04h2.02c.81,0,1.62,0,2.02-.4Z"/>
      <path class="cls-2" d="M65.45,40.46v3.23h-4.45v13.33h-4.04v-13.33h-4.45v-3.23h12.93Z"/>
    </g>
  </g>
</svg>