<?xml version="1.0" encoding="UTF-8"?>
<svg id="Camada_2" data-name="Camada 2" xmlns="http://www.w3.org/2000/svg" xmlns:xlink="http://www.w3.org/1999/xlink" viewBox="0 0 114.12 155.12">
  <defs>
    <style>
      .cls-1 {
        fill: none;
      }

      .cls-2 {
        clip-path: url(#clippath-1);
      }

      .cls-3 {
        stroke: #f0f1f1;
        stroke-linejoin: round;
      }

      .cls-3, .cls-4 {
        fill: #f0f1f1;
      }

      .cls-5 {
        fill: #b64c2d;
      }

      .cls-6 {
        fill: #211f1f;
      }

      .cls-7 {
        clip-path: url(#clippath);
      }

      .cls-8 {
        opacity: .35;
      }
    </style>
    <clipPath id="clippath">
      <rect class="cls-1" width="114.12" height="155.12"/>
    </clipPath>
    <clipPath id="clippath-1">
      <rect class="cls-1" x="73.7" width="40.42" height="39.81"/>
    </clipPath>
  </defs>
  <g id="Camada_1-2" data-name="Camada 1">
    <g>
      <g>
        <g class="cls-7">
          <path class="cls-5" d="M74.56,0H11.08C5.53,0,.76,4.76.76,10.32v134.1c0,5.55,4.76,10.31,10.32,10.31h91.65c5.55,0,10.32-4.76,10.32-10.31V38.88L74.56,0Z"/>
        </g>
        <g class="cls-2">
          <g class="cls-8">
            <polyline class="cls-6" points="74.56 0 74.56 38.88 113.05 38.88"/>
          </g>
        </g>
        <path class="cls-4" d="M91.63,84.9H24.57c-1.98,0-3.57-1.59-3.57-3.57s1.59-3.57,3.57-3.57h67.06c1.98,0,3.57,1.59,3.57,3.57s-1.59,3.57-3.57,3.57Z"/>
        <path class="cls-4" d="M61.07,126.56H24.57c-1.98,0-3.57-1.59-3.57-3.57s1.59-3.57,3.57-3.57h36.5c1.98,0,3.57,1.59,3.57,3.57,0,1.59-1.59,3.57-3.57,3.57Z"/>
        <path class="cls-4" d="M78.13,105.53H24.57c-1.98,0-3.57-1.59-3.57-3.57s1.59-3.57,3.57-3.57h53.56c1.99,0,3.58,1.59,3.58,3.57s-1.59,3.57-3.58,3.57Z"/>
        <path class="cls-4" d="M91.63,84.9H24.57c-1.98,0-3.57-1.59-3.57-3.57s1.59-3.57,3.57-3.57h67.06c1.98,0,3.57,1.59,3.57,3.57s-1.59,3.57-3.57,3.57Z"/>
      </g>
      <path class="cls-3" d="M32.71,44.54c-.4.81-1.21,1.62-2.02,2.02-.8.4-2.02.81-3.23.81h-2.43v6.06h-4.04v-16.97h6.46c1.21,0,2.43.4,3.23.81.81.4,1.62,1.21,2.02,2.02s.81,1.62.81,2.83c0,.4-.4,1.61-.81,2.42ZM28.67,43.32c.4-.4.4-.8.4-1.61s0-1.21-.4-1.62c0-.4-.81-.4-1.62-.4h-2.02v4.04h2.02c.81,0,1.62,0,1.62-.4Z"/>
      <path class="cls-3" d="M47.67,44.54c-.4.81-1.21,1.62-2.02,2.02s-2.02.81-3.23.81h-2.83v6.06h-4.04v-16.97h6.46c1.21,0,2.43.4,3.23.81,1.21.4,2.02.81,2.43,1.62.4.81.8,1.62.8,2.83-.4.81-.4,2.02-.8,2.83ZM43.62,43.32c.4-.4.4-.8.4-1.61s0-1.21-.4-1.62-1.21-.4-1.62-.4h-2.43v4.04h2.02c.81,0,1.62,0,2.02-.4Z"/>
      <path class="cls-3" d="M62.21,36.46v3.23h-4.45v13.33h-4.04v-13.33h-4.45v-3.23h12.93Z"/>
    </g>
  </g>
</svg>