<?xml version="1.0" encoding="UTF-8"?>
<svg id="Camada_2" data-name="Camada 2" xmlns="http://www.w3.org/2000/svg" viewBox="0 0 183.77 152.16">
  <defs>
    <style>
      .cls-1, .cls-2 {
        fill: #fff;
      }

      .cls-3 {
        fill: #92acce;
      }

      .cls-2 {
        stroke: #fff;
        stroke-linejoin: round;
        stroke-width: 2px;
      }
    </style>
  </defs>
  <g id="Camada_1-2" data-name="Camada 1">
    <g>
      <path class="cls-3" d="M164.92,152.16H18.85c-10.39,0-18.85-8.46-18.85-18.85V18.85C0,8.46,8.46,0,18.85,0h28.72c3.74,0,7.37,1.1,10.48,3.18s5.51,5.02,6.94,8.48l3.49,8.46h96.44c10.39,0,18.85,8.46,18.85,18.85v94.34c0,10.39-8.45,18.85-18.85,18.85Z"/>
      <path class="cls-1" d="M110.48,70.59c1.32-.63,2.85.33,2.85,1.79v18.77c0,.24-.09.46-.27.63-.17.18-.38.26-.63.26h-41.12c-.24,0-.46-.09-.63-.26-.18-.17-.26-.38-.27-.63v-18.77c0-1.47,1.53-2.43,2.85-1.79l17.55,8.43c.71.34,1.41.34,2.12,0l17.55-8.43Z"/>
      <path class="cls-1" d="M118.15,57.92c1.5.72,1.5,2.86,0,3.59l-3.44,1.65-21.98,10.56c-.54.26-1.18.26-1.72,0l-21.98-10.56-3.44-1.65c-1.5-.72-1.5-2.86,0-3.59l25.41-12.21c.54-.26,1.18-.26,1.72,0l25.41,12.21Z"/>
      <g>
        <path class="cls-2" d="M77.52,113.65v1.67h-4.29v14.06h-2.05v-14.06h-4.31v-1.67h10.65Z"/>
        <path class="cls-2" d="M82.57,117.36c.69-1.23,1.64-2.18,2.83-2.88,1.2-.69,2.52-1.04,3.98-1.04,1.71,0,3.21.41,4.49,1.24,1.28.83,2.21,2,2.8,3.52h-2.46c-.44-.95-1.06-1.68-1.88-2.19-.82-.51-1.8-.77-2.94-.77s-2.08.26-2.96.77c-.87.51-1.56,1.24-2.05,2.18s-.74,2.04-.74,3.31.25,2.34.74,3.28,1.18,1.67,2.05,2.18c.87.51,1.86.77,2.96.77s2.12-.25,2.94-.76c.82-.5,1.45-1.23,1.88-2.18h2.46c-.59,1.5-1.52,2.67-2.8,3.49-1.28.82-2.77,1.23-4.49,1.23-1.46,0-2.79-.34-3.98-1.03-1.2-.68-2.14-1.64-2.83-2.85-.69-1.22-1.04-2.59-1.04-4.13s.35-2.91,1.04-4.14Z"/>
        <path class="cls-2" d="M102.24,117.36c.69-1.23,1.64-2.18,2.83-2.88,1.2-.69,2.52-1.04,3.98-1.04,1.71,0,3.21.41,4.49,1.24,1.28.83,2.21,2,2.8,3.52h-2.46c-.44-.95-1.06-1.68-1.88-2.19-.82-.51-1.8-.77-2.94-.77s-2.08.26-2.96.77c-.87.51-1.56,1.24-2.05,2.18s-.74,2.04-.74,3.31.25,2.34.74,3.28,1.18,1.67,2.05,2.18c.87.51,1.86.77,2.96.77s2.12-.25,2.94-.76c.82-.5,1.45-1.23,1.88-2.18h2.46c-.59,1.5-1.52,2.67-2.8,3.49-1.28.82-2.77,1.23-4.49,1.23-1.46,0-2.79-.34-3.98-1.03-1.2-.68-2.14-1.64-2.83-2.85-.69-1.22-1.04-2.59-1.04-4.13s.35-2.91,1.04-4.14Z"/>
      </g>
    </g>
  </g>
</svg>