<?xml version="1.0" encoding="UTF-8"?>
<svg id="Camada_2" data-name="Camada 2" xmlns="http://www.w3.org/2000/svg" xmlns:xlink="http://www.w3.org/1999/xlink" viewBox="0 0 120.29 162.73">
  <defs>
    <style>
      .cls-1 {
        fill: rgba(44, 89, 182, .35);
      }

      .cls-2 {
        fill: #2c59b6;
      }

      .cls-3 {
        clip-path: url(#clippath);
      }

      .cls-4 {
        fill: none;
        stroke: #2c59b6;
        stroke-miterlimit: 10;
        stroke-width: 8px;
      }
    </style>
    <clipPath id="clippath">
      <polyline class="cls-2" points="117.36 43.81 76.94 43.81 76.94 4"/>
    </clipPath>
  </defs>
  <g id="Camada_1-2" data-name="Camada 1">
    <g>
      <path class="cls-4" d="M77.8,4H14.32c-5.55,0-10.32,4.76-10.32,10.32v134.1c0,5.55,4.76,10.31,10.32,10.31h91.65c5.55,0,10.32-4.76,10.32-10.31V42.88L77.8,4Z"/>
      <g>
        <polyline class="cls-2" points="117.36 43.81 76.94 43.81 76.94 4"/>
        <g class="cls-3">
          <path class="cls-1" d="M77.8,4v38.88h38.49"/>
        </g>
      </g>
      <path class="cls-2" d="M94.86,88.9H27.81c-1.98,0-3.57-1.59-3.57-3.57s1.59-3.57,3.57-3.57h67.06c1.98,0,3.57,1.59,3.57,3.57s-1.59,3.57-3.57,3.57Z"/>
      <path class="cls-2" d="M64.31,130.56H27.81c-1.98,0-3.57-1.59-3.57-3.57s1.59-3.57,3.57-3.57h36.5c1.98,0,3.57,1.59,3.57,3.57,0,1.59-1.59,3.57-3.57,3.57Z"/>
      <path class="cls-2" d="M81.37,109.53H27.81c-1.98,0-3.57-1.59-3.57-3.57s1.59-3.57,3.57-3.57h53.56c1.99,0,3.58,1.59,3.58,3.57s-1.59,3.57-3.58,3.57Z"/>
      <path class="cls-2" d="M66.81,32.51c-.57-.75-1.46-1.2-2.4-1.2h-4.11c-1.37,0-2.56.92-2.9,2.25l-3.57,13.75-3.74-13.79c-.35-1.31-1.54-2.21-2.9-2.21h-4.27c-1.34,0-2.52.89-2.89,2.18l-4.01,14.11-3.61-14.03c-.34-1.33-1.54-2.25-2.91-2.25h-4.06c-.94,0-1.82.44-2.39,1.19-.57.75-.75,1.72-.5,2.62l8.17,29.25c.36,1.3,1.54,2.19,2.89,2.19h.03l4.23-.04c1.31-.01,2.47-.88,2.84-2.14l4.11-13.74,3.96,13.71c.37,1.28,1.55,2.17,2.88,2.17h4.27c1.34,0,2.51-.88,2.88-2.17l8.46-29.21c.26-.91.08-1.88-.48-2.64Z"/>
    </g>
  </g>
</svg>