<?xml version="1.0" encoding="UTF-8"?>
<svg id="Camada_2" data-name="Camada 2" xmlns="http://www.w3.org/2000/svg" xmlns:xlink="http://www.w3.org/1999/xlink" viewBox="0 0 114.12 155.12">
  <defs>
    <style>
      .cls-1 {
        fill: none;
      }

      .cls-2 {
        fill: #2c59b6;
      }

      .cls-3 {
        clip-path: url(#clippath-1);
      }

      .cls-4 {
        fill: #f0f1f1;
      }

      .cls-5 {
        fill: #211f1f;
      }

      .cls-6 {
        clip-path: url(#clippath);
      }

      .cls-7 {
        opacity: .35;
      }
    </style>
    <clipPath id="clippath">
      <rect class="cls-1" width="114.12" height="155.12"/>
    </clipPath>
    <clipPath id="clippath-1">
      <rect class="cls-1" x="73.7" width="40.42" height="39.81"/>
    </clipPath>
  </defs>
  <g id="Camada_1-2" data-name="Camada 1">
    <g>
      <g class="cls-6">
        <path class="cls-2" d="M74.56,0H11.08C5.53,0,.76,4.76.76,10.32v134.1c0,5.55,4.76,10.31,10.32,10.31h91.65c5.55,0,10.32-4.76,10.32-10.31V38.88L74.56,0Z"/>
      </g>
      <g class="cls-3">
        <g class="cls-7">
          <polyline class="cls-5" points="74.56 0 74.56 38.88 113.05 38.88"/>
        </g>
      </g>
      <path class="cls-4" d="M91.63,84.9H24.57c-1.98,0-3.57-1.59-3.57-3.57s1.59-3.57,3.57-3.57h67.06c1.98,0,3.57,1.59,3.57,3.57s-1.59,3.57-3.57,3.57Z"/>
      <path class="cls-4" d="M61.07,126.56H24.57c-1.98,0-3.57-1.59-3.57-3.57s1.59-3.57,3.57-3.57h36.5c1.98,0,3.57,1.59,3.57,3.57,0,1.59-1.59,3.57-3.57,3.57Z"/>
      <path class="cls-4" d="M78.13,105.53H24.57c-1.98,0-3.57-1.59-3.57-3.57s1.59-3.57,3.57-3.57h53.56c1.99,0,3.58,1.59,3.58,3.57s-1.59,3.57-3.58,3.57Z"/>
      <path class="cls-4" d="M91.63,84.9H24.57c-1.98,0-3.57-1.59-3.57-3.57s1.59-3.57,3.57-3.57h67.06c1.98,0,3.57,1.59,3.57,3.57s-1.59,3.57-3.57,3.57Z"/>
      <path class="cls-4" d="M53.59,34.66c-.42-.55-1.07-.88-1.76-.88h-3.02c-1,0-1.88.68-2.13,1.65l-2.62,10.1-2.75-10.13c-.26-.96-1.13-1.63-2.13-1.63h-3.14c-.99,0-1.85.65-2.12,1.6l-2.95,10.36-2.65-10.31c-.25-.97-1.13-1.65-2.13-1.65h-2.99c-.69,0-1.34.32-1.76.87-.42.55-.55,1.26-.37,1.93l6,21.49c.27.95,1.13,1.61,2.12,1.61h.02l3.11-.03c.97,0,1.81-.65,2.09-1.57l3.02-10.09,2.91,10.07c.27.94,1.14,1.59,2.12,1.59h3.14c.98,0,1.84-.65,2.12-1.59l6.22-21.46c.19-.67.06-1.38-.35-1.94Z"/>
    </g>
  </g>
</svg>