<?xml version="1.0" encoding="UTF-8"?>
<svg id="Camada_2" data-name="Camada 2" xmlns="http://www.w3.org/2000/svg" xmlns:xlink="http://www.w3.org/1999/xlink" viewBox="0 0 86.43 130.63">
  <defs>
    <style>
      .cls-1 {
        fill: url(#Gradiente_sem_nome_179);
      }
    </style>
    <linearGradient id="Gradiente_sem_nome_179" data-name="Gradiente sem nome 179" x1="7.4" y1="-.37" x2="66.07" y2="111.63" gradientUnits="userSpaceOnUse">
      <stop offset=".54" stop-color="#97abcb"/>
      <stop offset=".61" stop-color="#91a8c8"/>
      <stop offset=".7" stop-color="#80a1c0"/>
      <stop offset=".81" stop-color="#6495b3"/>
      <stop offset=".92" stop-color="#3e84a1"/>
      <stop offset="1" stop-color="#207893"/>
    </linearGradient>
  </defs>
  <g id="Camada_1-2" data-name="Camada 1">
    <path class="cls-1" d="M82.28,78.4c-2.77-4.63-6.59-8.6-11.46-11.91-2.17-1.47-4.49-2.78-6.96-3.94,1.6-.75,3.14-1.57,4.62-2.46,4.75-2.89,8.51-6.43,11.28-10.65,2.77-4.21,4.15-9.2,4.15-14.98,0-6.74-1.8-12.69-5.41-17.86-3.61-5.17-8.54-9.23-14.8-12.18C57.44,1.47,50.4,0,42.58,0c-6.13,0-12.09,1.05-17.86,3.16-5.77,2.11-10.74,5.17-14.89,9.2-4.15,4.03-7.07,8.99-8.75,14.89l22.37,6.68c1.2-3.25,2.8-5.74,4.78-7.49,1.98-1.74,4.18-3,6.59-3.79,2.41-.78,4.75-1.17,7.04-1.17,3.49,0,6.55.66,9.2,1.98,2.64,1.33,4.69,3.13,6.13,5.41,1.44,2.29,2.17,4.87,2.17,7.76,0,5.05-2.05,9.02-6.13,11.91-4.09,2.89-10.35,4.33-18.76,4.33h-7.58v20.21h7.58c6.5,0,11.76.75,15.79,2.26,4.03,1.51,6.95,3.64,8.75,6.41,1.8,2.77,2.71,5.95,2.71,9.56,0,5.29-1.78,9.59-5.32,12.9-3.55,3.31-8.33,4.96-14.34,4.96-4.09,0-7.4-.72-9.92-2.17-2.53-1.44-4.51-3.22-5.95-5.32-1.44-2.1-2.59-3.88-3.43-5.32L0,103.03c1.56,5.66,4.36,10.56,8.39,14.71,4.03,4.15,9.05,7.34,15.07,9.56,6.01,2.22,12.75,3.34,20.21,3.34s14.62-1.44,21.11-4.33,11.73-7.07,15.7-12.54c3.97-5.47,5.95-12,5.95-19.58,0-5.89-1.38-11.16-4.15-15.79Z"/>
  </g>
</svg>