<?xml version="1.0" encoding="UTF-8"?>
<svg id="Camada_2" data-name="Camada 2" xmlns="http://www.w3.org/2000/svg" viewBox="0 0 64 64">
  <defs>
    <style>
      .cls-1 {
        fill: #ea3700;
      }

      .cls-2 {
        fill: #fff;
        stroke: #fff;
        stroke-linecap: round;
        stroke-linejoin: round;
        stroke-width: .75px;
      }
    </style>
  </defs>
  <g id="Camada_1-2" data-name="Camada 1">
    <g>
      <circle class="cls-1" cx="32" cy="32" r="32"/>
      <path class="cls-2" d="M45.31,45.65l-8.92-12.67c-.67-.96-.67-2.24,0-3.2l8.05-11.44c1.29-1.84-.02-4.38-2.27-4.38h-.03c-.92,0-1.78.46-2.3,1.22l-7.8,11.54-7.86-11.54c-.52-.76-1.38-1.21-2.3-1.21h0c-2.26,0-3.57,2.55-2.26,4.39l8.09,11.37c.69.96.69,2.25,0,3.22l-9.03,12.7c-1.31,1.84,0,4.39,2.26,4.39h.14c.92,0,1.78-.46,2.3-1.22l8.68-12.8,8.56,12.79c.52.77,1.38,1.23,2.31,1.23h.09c2.25,0,3.57-2.54,2.27-4.38Z"/>
    </g>
  </g>
</svg>