<?xml version="1.0" encoding="UTF-8"?>
<svg id="Camada_2" data-name="Camada 2" xmlns="http://www.w3.org/2000/svg" xmlns:xlink="http://www.w3.org/1999/xlink" viewBox="0 0 240.89 111.75">
  <defs>
    <style>
      .cls-1 {
        letter-spacing: 0em;
      }

      .cls-2, .cls-3 {
        fill: #fff;
      }

      .cls-3 {
        font-size: 28px;
        isolation: isolate;
      }

      .cls-4 {
        letter-spacing: 0em;
      }

      .cls-5 {
        fill: url(#Gradiente_sem_nome_4);
      }
    </style>
    <linearGradient id="Gradiente_sem_nome_4" data-name="Gradiente sem nome 4" x1="13.63" y1="117.45" x2="227.27" y2="-5.7" gradientUnits="userSpaceOnUse">
      <stop offset="0" stop-color="#92acce"/>
      <stop offset="1" stop-color="#207893"/>
    </linearGradient>
  </defs>
  <g id="Camada_1-2" data-name="Camada 1">
    <g>
      <rect class="cls-5" y="0" width="240.89" height="111.75" rx="24.5" ry="24.5"/>
      <text class="cls-3" transform="translate(98.32 47.89)"><tspan x="0" y="0">Ligação </tspan><tspan x="0" y="33.6">Ex</tspan><tspan class="cls-1" x="31.5" y="33.6">t</tspan><tspan class="cls-4" x="42.5" y="33.6">erna</tspan></text>
      <path class="cls-2" d="M49.75,27.54c-15.62,0-28.33,12.71-28.33,28.33s12.71,28.33,28.33,28.33,28.33-12.71,28.33-28.33-12.71-28.33-28.33-28.33ZM23.75,57.02h11.27c.08,4.06.59,7.87,1.44,11.29h-9.57c-1.85-3.38-2.96-7.21-3.14-11.29ZM50.9,41.13v-11.17c3.69.75,6.97,5.03,9.03,11.17h-9.03ZM60.62,43.43c.91,3.4,1.47,7.24,1.55,11.29h-11.27v-11.29h9.72ZM48.6,29.97v11.17h-9.03c2.06-6.13,5.34-10.42,9.03-11.17ZM48.6,43.43v11.29h-11.27c.09-4.05.64-7.89,1.55-11.29h9.72ZM35.02,54.72h-11.27c.18-4.07,1.29-7.91,3.14-11.29h9.57c-.85,3.42-1.36,7.23-1.44,11.29ZM37.32,57.02h11.27v11.29h-9.72c-.91-3.4-1.47-7.24-1.55-11.29ZM48.6,70.61v11.17c-3.69-.75-6.97-5.03-9.03-11.17h9.03ZM50.9,81.78v-11.17h9.03c-2.06,6.13-5.34,10.42-9.03,11.17ZM50.9,68.31v-11.29h11.27c-.09,4.05-.64,7.89-1.55,11.29h-9.72ZM64.48,57.02h11.27c-.18,4.07-1.29,7.91-3.14,11.29h-9.57c.85-3.42,1.35-7.23,1.44-11.29ZM64.47,54.72c-.08-4.06-.59-7.87-1.43-11.29h9.57c1.85,3.38,2.96,7.22,3.14,11.29h-11.27ZM71.18,41.13h-8.79c-1.36-4.38-3.33-7.95-5.69-10.33,5.95,1.65,11.05,5.37,14.47,10.33ZM42.78,30.8c-2.36,2.38-4.32,5.95-5.69,10.33h-8.79c3.42-4.96,8.52-8.68,14.47-10.33ZM28.31,70.61h8.79c1.36,4.38,3.32,7.95,5.68,10.33-5.95-1.66-11.05-5.37-14.47-10.33ZM56.71,80.95c2.36-2.38,4.33-5.95,5.69-10.33h8.79c-3.42,4.96-8.52,8.68-14.48,10.33Z"/>
    </g>
  </g>
</svg>