<?xml version="1.0" encoding="UTF-8"?>
<svg id="Camada_2" data-name="Camada 2" xmlns="http://www.w3.org/2000/svg" xmlns:xlink="http://www.w3.org/1999/xlink" viewBox="0 0 240.89 111.75">
  <defs>
    <style>
      .cls-1 {
        fill: #fff;
      }

      .cls-2 {
        fill: url(#Gradiente_sem_nome_4);
      }
    </style>
    <linearGradient id="Gradiente_sem_nome_4" data-name="Gradiente sem nome 4" x1="-15797.75" y1="-91.33" x2="-15584.11" y2="-214.48" gradientTransform="translate(15811.38 208.78)" gradientUnits="userSpaceOnUse">
      <stop offset="0" stop-color="#92acce"/>
      <stop offset="1" stop-color="#207893"/>
    </linearGradient>
  </defs>
  <g id="Camada_1-2" data-name="Camada 1">
    <g>
      <rect class="cls-2" x="0" y="0" width="240.89" height="111.75" rx="24.5" ry="24.5" transform="translate(240.89 111.75) rotate(180)"/>
      <path class="cls-1" d="M120.45,27.54c-15.62,0-28.33,12.71-28.33,28.33s12.71,28.33,28.33,28.33,28.33-12.71,28.33-28.33-12.71-28.33-28.33-28.33ZM94.45,57.02h11.27c.08,4.06.59,7.87,1.44,11.29h-9.57c-1.85-3.38-2.96-7.21-3.14-11.29ZM121.6,41.13v-11.17c3.69.75,6.97,5.03,9.03,11.17h-9.03ZM131.32,43.43c.91,3.4,1.47,7.24,1.55,11.29h-11.27v-11.29h9.72ZM119.3,29.97v11.17h-9.03c2.06-6.13,5.34-10.42,9.03-11.17ZM119.3,43.43v11.29h-11.27c.09-4.05.64-7.89,1.55-11.29h9.72ZM105.72,54.72h-11.27c.18-4.07,1.29-7.91,3.14-11.29h9.57c-.85,3.42-1.36,7.23-1.44,11.29ZM108.02,57.02h11.27v11.29h-9.72c-.91-3.4-1.47-7.24-1.55-11.29ZM119.3,70.61v11.17c-3.69-.75-6.97-5.03-9.03-11.17h9.03ZM121.6,81.78v-11.17h9.03c-2.06,6.13-5.34,10.42-9.03,11.17ZM121.6,68.31v-11.29h11.27c-.09,4.05-.64,7.89-1.55,11.29h-9.72ZM135.18,57.02h11.27c-.18,4.07-1.29,7.91-3.14,11.29h-9.57c.85-3.42,1.35-7.23,1.44-11.29ZM135.18,54.72c-.08-4.06-.59-7.87-1.43-11.29h9.57c1.85,3.38,2.96,7.22,3.14,11.29h-11.27ZM141.89,41.13h-8.79c-1.36-4.38-3.33-7.95-5.69-10.33,5.95,1.65,11.05,5.37,14.47,10.33ZM113.48,30.8c-2.36,2.38-4.32,5.95-5.69,10.33h-8.79c3.42-4.96,8.52-8.68,14.47-10.33ZM99.01,70.61h8.79c1.36,4.38,3.32,7.95,5.68,10.33-5.95-1.66-11.05-5.37-14.47-10.33ZM127.41,80.95c2.36-2.38,4.33-5.95,5.69-10.33h8.79c-3.42,4.96-8.52,8.68-14.48,10.33Z"/>
    </g>
  </g>
</svg>