<?xml version="1.0" encoding="UTF-8"?>
<svg id="Camada_2" data-name="Camada 2" xmlns="http://www.w3.org/2000/svg" xmlns:xlink="http://www.w3.org/1999/xlink" viewBox="0 0 240.89 111.75">
  <defs>
    <style>
      .cls-1 {
        fill: #fff;
      }

      .cls-2 {
        fill: none;
      }

      .cls-3 {
        fill: url(#Gradiente_sem_nome_4);
      }

      .cls-4 {
        clip-path: url(#clippath);
      }
    </style>
    <linearGradient id="Gradiente_sem_nome_4" data-name="Gradiente sem nome 4" x1="-15797.02" y1="-91.33" x2="-15583.37" y2="-214.48" gradientTransform="translate(15810.64 208.78)" gradientUnits="userSpaceOnUse">
      <stop offset="0" stop-color="#92acce"/>
      <stop offset="1" stop-color="#207893"/>
    </linearGradient>
    <clipPath id="clippath">
      <rect class="cls-2" x="96.6" y="19.39" width="47.69" height="72.97"/>
    </clipPath>
  </defs>
  <g id="Camada_1-2" data-name="Camada 1">
    <g>
      <rect class="cls-3" x="0" y="0" width="240.89" height="111.75" rx="24.5" ry="24.5" transform="translate(240.89 111.75) rotate(180)"/>
      <g>
        <g class="cls-4">
          <path class="cls-1" d="M143.82,19.71c-.29-.24-.68-.32-1.04-.24l-45.2,10.24c-.57.13-.97.63-.97,1.21v60.21c0,.68.55,1.24,1.23,1.24h45.2c.68,0,1.23-.55,1.23-1.24V20.69c0-.38-.17-.74-.46-.97ZM119.21,89.88h-4.75v-11.84h4.75v11.84ZM126.44,89.88h-4.75v-11.84h4.75v11.84ZM141.81,89.88h-12.9v-13.08c0-.68-.55-1.24-1.24-1.24h-14.45c-.68,0-1.24.55-1.24,1.24v13.08h-12.9V31.91l42.72-9.67v67.65Z"/>
        </g>
        <path class="cls-1" d="M104.92,44.93h6.78c.68,0,1.24-.55,1.24-1.24v-7.12c0-.68-.55-1.24-1.24-1.24h-6.78c-.68,0-1.23.55-1.23,1.24v7.12c0,.68.54,1.24,1.23,1.24ZM106.16,37.81h4.3v4.64h-4.3v-4.64Z"/>
        <path class="cls-1" d="M117.06,44.93h6.78c.68,0,1.24-.55,1.24-1.24v-7.12c0-.68-.55-1.24-1.24-1.24h-6.78c-.68,0-1.24.55-1.24,1.24v7.12c0,.68.55,1.24,1.24,1.24ZM118.29,37.81h4.3v4.64h-4.3v-4.64Z"/>
        <path class="cls-1" d="M129.19,44.93h6.78c.68,0,1.23-.55,1.23-1.24v-7.12c0-.68-.55-1.24-1.23-1.24h-6.78c-.68,0-1.24.55-1.24,1.24v7.12c0,.68.55,1.24,1.24,1.24ZM130.43,37.81h4.3v4.64h-4.3v-4.64Z"/>
        <path class="cls-1" d="M104.92,58.15h6.78c.68,0,1.24-.55,1.24-1.24v-7.12c0-.68-.55-1.24-1.24-1.24h-6.78c-.68,0-1.23.55-1.23,1.24v7.12c0,.68.54,1.24,1.23,1.24ZM106.16,51.03h4.3v4.64h-4.3v-4.64Z"/>
        <path class="cls-1" d="M117.06,58.15h6.78c.68,0,1.24-.55,1.24-1.24v-7.12c0-.68-.55-1.24-1.24-1.24h-6.78c-.68,0-1.24.55-1.24,1.24v7.12c0,.68.55,1.24,1.24,1.24ZM118.29,51.03h4.3v4.64h-4.3v-4.64Z"/>
        <path class="cls-1" d="M129.19,58.15h6.78c.68,0,1.23-.55,1.23-1.24v-7.12c0-.68-.55-1.24-1.23-1.24h-6.78c-.68,0-1.24.55-1.24,1.24v7.12c0,.68.55,1.24,1.24,1.24ZM130.43,51.03h4.3v4.64h-4.3v-4.64Z"/>
        <path class="cls-1" d="M104.92,71.37h6.78c.68,0,1.24-.55,1.24-1.24v-7.12c0-.68-.55-1.24-1.24-1.24h-6.78c-.68,0-1.23.55-1.23,1.24v7.12c0,.68.54,1.24,1.23,1.24ZM106.16,64.25h4.3v4.64h-4.3v-4.64Z"/>
        <path class="cls-1" d="M117.06,71.37h6.78c.68,0,1.24-.55,1.24-1.24v-7.12c0-.68-.55-1.24-1.24-1.24h-6.78c-.68,0-1.24.55-1.24,1.24v7.12c0,.68.55,1.24,1.24,1.24ZM118.29,64.25h4.3v4.64h-4.3v-4.64Z"/>
        <path class="cls-1" d="M129.19,71.37h6.78c.68,0,1.23-.55,1.23-1.24v-7.12c0-.68-.55-1.24-1.23-1.24h-6.78c-.68,0-1.24.55-1.24,1.24v7.12c0,.68.55,1.24,1.24,1.24ZM130.43,64.25h4.3v4.64h-4.3v-4.64Z"/>
      </g>
    </g>
  </g>
</svg>