<?xml version="1.0" encoding="UTF-8"?>
<svg id="Camada_2" data-name="Camada 2" xmlns="http://www.w3.org/2000/svg" xmlns:xlink="http://www.w3.org/1999/xlink" viewBox="0 0 240.89 111.75">
  <defs>
    <style>
      .cls-1, .cls-2 {
        fill: #fff;
      }

      .cls-3 {
        letter-spacing: 0em;
      }

      .cls-2 {
        font-size: 28px;
        isolation: isolate;
      }

      .cls-4 {
        fill: none;
      }

      .cls-5 {
        fill: url(#Gradiente_sem_nome_4);
      }

      .cls-6 {
        clip-path: url(#clippath);
      }
    </style>
    <linearGradient id="Gradiente_sem_nome_4" data-name="Gradiente sem nome 4" x1="13.63" y1="117.45" x2="227.27" y2="-5.7" gradientUnits="userSpaceOnUse">
      <stop offset="0" stop-color="#92acce"/>
      <stop offset="1" stop-color="#207893"/>
    </linearGradient>
    <clipPath id="clippath">
      <rect class="cls-4" x="25.17" y="19.39" width="47.69" height="72.97"/>
    </clipPath>
  </defs>
  <g id="Camada_1-2" data-name="Camada 1">
    <g>
      <rect class="cls-5" x="0" y="0" width="240.89" height="111.75" rx="24.5" ry="24.5"/>
      <text class="cls-2" transform="translate(98.32 47.89)"><tspan x="0" y="0">Ligação </tspan><tspan x="0" y="33.6">In</tspan><tspan class="cls-3" x="24" y="33.6">t</tspan><tspan x="35" y="33.6">erna</tspan></text>
      <g>
        <g class="cls-6">
          <path class="cls-1" d="M72.38,19.71c-.29-.24-.68-.32-1.04-.24l-45.2,10.24c-.57.13-.97.63-.97,1.21v60.21c0,.68.55,1.24,1.23,1.24h45.2c.68,0,1.23-.55,1.23-1.24V20.69c0-.38-.17-.74-.46-.97ZM47.77,89.88h-4.75v-11.84h4.75v11.84ZM55,89.88h-4.75v-11.84h4.75v11.84ZM70.37,89.88h-12.9v-13.08c0-.68-.55-1.24-1.24-1.24h-14.45c-.68,0-1.24.55-1.24,1.24v13.08h-12.9V31.91l42.72-9.67v67.65Z"/>
        </g>
        <path class="cls-1" d="M33.49,44.93h6.78c.68,0,1.24-.55,1.24-1.24v-7.12c0-.68-.55-1.24-1.24-1.24h-6.78c-.68,0-1.23.55-1.23,1.24v7.12c0,.68.54,1.24,1.23,1.24ZM34.72,37.81h4.3v4.64h-4.3v-4.64Z"/>
        <path class="cls-1" d="M45.62,44.93h6.78c.68,0,1.24-.55,1.24-1.24v-7.12c0-.68-.55-1.24-1.24-1.24h-6.78c-.68,0-1.24.55-1.24,1.24v7.12c0,.68.55,1.24,1.24,1.24ZM46.85,37.81h4.3v4.64h-4.3v-4.64Z"/>
        <path class="cls-1" d="M57.75,44.93h6.78c.68,0,1.23-.55,1.23-1.24v-7.12c0-.68-.55-1.24-1.23-1.24h-6.78c-.68,0-1.24.55-1.24,1.24v7.12c0,.68.55,1.24,1.24,1.24ZM58.99,37.81h4.3v4.64h-4.3v-4.64Z"/>
        <path class="cls-1" d="M33.49,58.15h6.78c.68,0,1.24-.55,1.24-1.24v-7.12c0-.68-.55-1.24-1.24-1.24h-6.78c-.68,0-1.23.55-1.23,1.24v7.12c0,.68.54,1.24,1.23,1.24ZM34.72,51.03h4.3v4.64h-4.3v-4.64Z"/>
        <path class="cls-1" d="M45.62,58.15h6.78c.68,0,1.24-.55,1.24-1.24v-7.12c0-.68-.55-1.24-1.24-1.24h-6.78c-.68,0-1.24.55-1.24,1.24v7.12c0,.68.55,1.24,1.24,1.24ZM46.85,51.03h4.3v4.64h-4.3v-4.64Z"/>
        <path class="cls-1" d="M57.75,58.15h6.78c.68,0,1.23-.55,1.23-1.24v-7.12c0-.68-.55-1.24-1.23-1.24h-6.78c-.68,0-1.24.55-1.24,1.24v7.12c0,.68.55,1.24,1.24,1.24ZM58.99,51.03h4.3v4.64h-4.3v-4.64Z"/>
        <path class="cls-1" d="M33.49,71.37h6.78c.68,0,1.24-.55,1.24-1.24v-7.12c0-.68-.55-1.24-1.24-1.24h-6.78c-.68,0-1.23.55-1.23,1.24v7.12c0,.68.54,1.24,1.23,1.24ZM34.72,64.25h4.3v4.64h-4.3v-4.64Z"/>
        <path class="cls-1" d="M45.62,71.37h6.78c.68,0,1.24-.55,1.24-1.24v-7.12c0-.68-.55-1.24-1.24-1.24h-6.78c-.68,0-1.24.55-1.24,1.24v7.12c0,.68.55,1.24,1.24,1.24ZM46.85,64.25h4.3v4.64h-4.3v-4.64Z"/>
        <path class="cls-1" d="M57.75,71.37h6.78c.68,0,1.23-.55,1.23-1.24v-7.12c0-.68-.55-1.24-1.23-1.24h-6.78c-.68,0-1.24.55-1.24,1.24v7.12c0,.68.55,1.24,1.24,1.24ZM58.99,64.25h4.3v4.64h-4.3v-4.64Z"/>
      </g>
    </g>
  </g>
</svg>